<svg height="605.09" viewBox="0 0 1920 605.09" width="1920" xmlns="http://www.w3.org/2000/svg" xmlns:xlink="http://www.w3.org/1999/xlink"><clipPath id="a"><path d="m0-21.535s475.44-111.465 955.44-111.465 964.56 111.465 964.56 111.465v493.629h-1920z" transform="translate(0 8185)"/></clipPath><g transform="translate(0 -8052.004)"><path d="m0-21.551s475.44-111.449 955.44-111.449 964.56 111.449 964.56 111.449v493.551h-1920z" fill="#f2f4f9" transform="translate(0 8185)"/><g clip-path="url(#a)" fill="none"><g opacity=".47" stroke="#fff" stroke-width="10" transform="matrix(.7313537 -.68199836 .68199836 .7313537 -295.013 8548.218)"><ellipse cx="284" cy="162" rx="284" ry="162" stroke="none"/><ellipse cx="284" cy="162" fill="none" rx="279" ry="157"/></g><g opacity=".47" stroke="#fff" stroke-width="10" transform="matrix(.7313537 -.68199836 .68199836 .7313537 -239.645 8615.801)"><ellipse cx="284" cy="161.5" rx="284" ry="161.5" stroke="none"/><ellipse cx="284" cy="161.5" fill="none" rx="279" ry="156.5"/></g><g stroke="#4e6ef1" stroke-width="9"><g opacity=".35" transform="matrix(.66913061 -.74314483 .74314483 .66913061 1335.473 8835.063)"><ellipse cx="284" cy="162" rx="284" ry="162" stroke="none"/><ellipse cx="284" cy="162" fill="none" rx="279.5" ry="157.5"/></g><g opacity=".35" transform="matrix(.66913061 -.74314483 .74314483 .66913061 1518.461 8869.786)"><ellipse cx="284" cy="161.5" rx="284" ry="161.5" stroke="none"/><ellipse cx="284" cy="161.5" fill="none" rx="279.5" ry="157"/></g></g></g></g></svg>