<svg height="566" viewBox="0 0 532 566" width="532" xmlns="http://www.w3.org/2000/svg" xmlns:xlink="http://www.w3.org/1999/xlink"><clipPath id="a"><path d="m375 6847h532v566h-532z"/></clipPath><g clip-path="url(#a)" transform="translate(-375 -6847)"><path d="m456.574 70.543c37.3 43.871 59.9 91.289 84.721 143.567 24.694 52.278 51.884 109.415 46.761 165.9-5.123 56.35-42.426 111.911-93.259 137.656-50.7 25.745-115.064 21.673-177.718 19.309-62.654-2.233-123.733-2.758-181.133-26.4-57.531-23.518-111.385-70.147-129.246-127.811-17.732-57.663.525-126.491 45.579-162.35 44.922-35.859 116.508-38.749 164.846-79.073s74.529-136.777 113.014-155.429c55.261-26.866 89.261 40.628 126.435 84.631z" fill="#f2f4f9" transform="matrix(-.53 .848 -.848 -.53 1070.414 7047.765)"/><g fill="none" stroke="#fff" stroke-width="10"><path d="m4046.57 16082.79s139.451 57.939-70.2 156.945-18.786 352.642-290.558 309.933" opacity=".53" transform="translate(-3295.809 -9236.565)"/><path d="m3767.188 16117.861s-25.158 222.834 118.605 186.893 174.314-46.725 136.575 111.416-23.461 219.615 60.852 203.256" opacity=".53" transform="translate(-3282.178 -9216.218)"/></g></g></svg>