<svg height="708.33" viewBox="0 0 558 708.33" width="558" xmlns="http://www.w3.org/2000/svg" xmlns:xlink="http://www.w3.org/1999/xlink"><linearGradient id="a" gradientUnits="objectBoundingBox" x1=".5" x2=".5" y2="1"><stop offset="0" stop-color="#f2f4f9"/><stop offset="1" stop-color="#f4f6fc"/></linearGradient><linearGradient id="b" gradientUnits="objectBoundingBox" x1="1.396" x2="-.085" y1="-.374" y2="1.142"><stop offset="0" stop-color="#1d3289"/><stop offset="1" stop-color="#1e205f"/></linearGradient><linearGradient id="c" gradientUnits="objectBoundingBox" x1=".412" x2=".5" y1=".017" y2="1"><stop offset="0" stop-color="#b7e8c7"/><stop offset="1" stop-color="#3ac492"/></linearGradient><linearGradient id="d" gradientUnits="objectBoundingBox" x1=".412" x2=".5" y1=".017" y2="1"><stop offset="0" stop-color="#fff"/><stop offset="1" stop-color="#3ac492"/></linearGradient><linearGradient id="e" gradientUnits="objectBoundingBox" x1=".5" x2=".5" y2="1"><stop offset="0" stop-color="#e7effd"/><stop offset=".24" stop-color="#dce7fa"/><stop offset=".364" stop-color="#d6e3f8"/><stop offset="1" stop-color="#b8cdef"/></linearGradient><g transform="translate(-375 -1429)"><rect fill="url(#a)" height="708" rx="20" transform="translate(375 1429)" width="558"/><path d="m515.263 370.354c-.3.9 10.214 40.852 10.214 40.852l7.209-1.5-9.913-39.35z" fill="#6b84eb" transform="translate(328.566 1699.893)"/><path d="m570.272 364.765-14.418 46.559h8.411l13.818-43.255z" fill="#6b84eb" transform="translate(329.429 1699.774)"/><path d="m583.257 357.706-16.521 53.769h8.411l15.92-50.464z" fill="#6b84eb" transform="translate(329.661 1699.624)"/><path d="m520.263 407.12 8.411 29.137h42.354l7.81-29.137z" fill="#c9d9f5" transform="translate(328.673 1700.675)"/><path d="m542.095 408.371a1.338 1.338 0 0 1 -.094-.3c-.057-.228-.131-.522-.224-.891-.194-.82-.466-1.972-.814-3.442-.692-3.031-1.684-7.364-2.91-12.725-2.422-10.81-5.769-25.751-9.506-42.431l.258.208h-7.415l.259-.325c3.759 16.7 7.127 31.649 9.564 42.469 1.186 5.375 2.144 9.72 2.815 12.76l.736 3.463c.075.374.134.671.179.9a1.364 1.364 0 0 1 .044.31 1.433 1.433 0 0 1 -.1-.3c-.058-.228-.134-.521-.229-.891-.2-.819-.476-1.971-.831-3.441l-2.975-12.724c-2.478-10.81-5.9-25.751-9.725-42.432l-.075-.324h7.963l.046.207c3.673 16.695 6.964 31.648 9.345 42.468 1.158 5.375 2.095 9.72 2.749 12.761.306 1.478.547 2.638.719 3.462.073.374.13.671.174.9a1.464 1.464 0 0 1 .047.318z" fill="#6b84eb" transform="translate(328.689 1699.423)"/><g transform="translate(471.126 1637.375)"><g fill="#fff"><path d="m0 0h71.718v49.944h-71.718z"/><path d="m0 0h71.718v6.241h-71.718z"/><path d="m209.975 78.013a.749.749 0 1 1 -.748-.782.765.765 0 0 1 .748.782z" transform="translate(-206.082 -74.714)"/><path d="m212.947 78.013a.749.749 0 1 1 -.749-.782.765.765 0 0 1 .749.782z" transform="translate(-206.019 -74.714)"/><path d="m215.919 78.013a.749.749 0 1 1 -.749-.782.765.765 0 0 1 .749.782z" transform="translate(-205.956 -74.714)"/></g><path d="m6.819 12.358h10.222v24.521h-10.222z" fill="#e0e0e0"/><path d="m22.58 12.358h10.222v24.521h-10.222z" fill="#ebebeb"/><path d="m38.34 12.358h10.222v24.521h-10.222z" fill="#f2f4fa"/><path d="m54.101 12.551h10.222v24.521h-10.222z" fill="#ebebeb"/><path d="m5.635 39.586h61.951v5.603h-61.951z" fill="#ecf0f1"/><path d="m264 117.186 1.333 6.746 1.1-1.882 2.354 3.363 1.177-.757-2.354-3.363 2.161-.317z" fill="#e0e0e0" transform="translate(-204.902 -73.865)"/></g><path d="m428.914 1704.583h125.564v87.442h-125.564z" fill="#fff"/><path d="m428.914 1704.583h125.564v10.927h-125.564z" fill="#4e6ef1"/><path d="m148.028 146.26a1.311 1.311 0 1 1 -1.31-1.37 1.34 1.34 0 0 1 1.31 1.37z" fill="#fff" transform="translate(287.704 1564.099)"/><path d="m153.231 146.26a1.311 1.311 0 1 1 -1.31-1.37 1.341 1.341 0 0 1 1.31 1.37z" fill="#fff" transform="translate(287.814 1564.099)"/><path d="m158.433 146.26a1.311 1.311 0 1 1 -1.309-1.37 1.34 1.34 0 0 1 1.309 1.37z" fill="#fff" transform="translate(287.925 1564.099)"/><path d="m584.745 175.746v24.031l39.1 1.072-.689-24.432z" fill="#fff" transform="translate(283.044 1564.755)"/><path d="m584.746 175.8-.037-2.4 38.474.526v3.405z" fill="#4e6ef1" transform="translate(283.043 1564.705)"/><path d="m588.117 181.659.418 4.894 5.221.058.129-4.71z" fill="#f2f4f9" transform="translate(283.116 1564.881)"/><path d="m595.724 184.987-.284-2.046 11.571.742-.228 2.117z" fill="#f2f4f9" transform="translate(283.271 1564.908)"/><path d="m613 182.549.965 5.079 5.953-.3-.347-4.383z" fill="#f2f4f9" transform="translate(283.645 1564.9)"/><path d="m588.191 189.561.418 4.894 5.221.058.129-4.71z" fill="#f2f4f9" transform="translate(283.117 1565.049)"/><path d="m595.748 192.527-.233-1.685 8.446.761-.138 1.736z" fill="#f2f4f9" transform="translate(283.273 1565.076)"/><path d="m613.071 190.451.965 5.079 5.953-.3-.347-4.383z" fill="#f2f4f9" transform="translate(283.646 1565.068)"/><path d="m526.88 281.534c4.341 29.965 14.779 66.831 14.779 88.595v73.081l7.893 4.266a47.792 47.792 0 0 0 17.243 5.434 2.713 2.713 0 0 1 2.4 2.7v.408a2.714 2.714 0 0 1 -2.714 2.714h-40.43a2.711 2.711 0 0 1 -2.71-2.6l-8.181-82.4-21.918-58.674v-33.524z" fill="#3d82f0" stroke="#1d3289" stroke-miterlimit="10" stroke-width=".25" transform="translate(27.999 1678.234)"/><path d="m533.558 366.207-21.918-58.675v-19.442l28.26 77.148 8.2 85.971h-3.648a2.711 2.711 0 0 1 -2.71-2.6z" fill="#2860b9" stroke="#1e205f" stroke-miterlimit="10" stroke-width=".25" transform="translate(9.604 1685.754)"/><path d="m569.154 281.534v20.531a17.758 17.758 0 0 1 -5.37 12.722 17.759 17.759 0 0 0 -5.368 12.537l-1.216 115.886s3.285 6.39 5.112 8.4 1.278 7.12 1.278 7.12h-22.458c-2.557-5.477 1.224-13.793 1.224-13.793s-21.173-102.789-18.953-163.4z" fill="#3d82f0" stroke="#1d3289" stroke-miterlimit="10" stroke-width=".25" transform="translate(-36.361 1678.234)"/><path d="m554.878 1959.769h-67.835" fill="none" stroke="#225dd9" stroke-miterlimit="10" stroke-width=".25"/><path d="m512.929 294.955c-.445-8.453-7.552-21.667-7.552-21.667l7.4-41.047c15.161 9.892 18.555 44.609 17.209 62.713z" fill="#ceddf7" transform="translate(40.887 1621.69)"/><path d="m523.775 346.259c0-6.422-4.144-23.779-11.251-55.119a105.622 105.622 0 0 1 .676-48.84 17.824 17.824 0 0 1 9.147-11.491c26.938-13.7 54.507.429 68.053 9.613 5.742 3.893 7.586 9.765 7.586 17.177 0 7.178-2.13 11.811-4.477 19.575-5.773 19.1-1.9 69.084-1.9 69.084z" fill="#d4e1f9" transform="translate(-36.732 1613.509)"/><path d="m540.308 238.661 24.149-1.046c-.3 11.174-9.252 23.391-11.483 30.929-5.23 17.671 5.563 51.426 4.794 63.37h-4.768c0-6.422-4.144-23.779-11.251-55.119a105.194 105.194 0 0 1 -1.441-38.134z" fill="#adc2e8" stroke="#fff" stroke-miterlimit="10" stroke-width=".25" transform="translate(-65.957 1627.853)"/><path d="m562.04 228.4a102.84 102.84 0 0 1 14.57 8.256c5.742 3.893 7.79 9.671 7.569 17.634-.167 6.113-2.113 11.354-4.46 19.118-5.773 19.1-1.9 69.084-1.9 69.084h-67.833" fill="none" stroke="#fff" stroke-linecap="round" stroke-linejoin="round" stroke-width=".25" transform="translate(-22.943 1617.279)"/><path d="m518.675 257.457-4.8 9.392h16.864l4.868-9.8a.7.7 0 0 0 -.623-1h-13.99a2.6 2.6 0 0 0 -2.319 1.408z" fill="#4e6ef1" stroke="#0179b1" stroke-miterlimit="10" stroke-width=".25" transform="translate(17.219 1648.989)"/><path d="m516.463 260.858a10.559 10.559 0 0 1 1.782-1.473c6.918 2.984 7.335 15.257-.254 17.632a24.965 24.965 0 0 1 -7.6-4.938z" fill="#f4b7bc" stroke="#f4b7bc" stroke-linecap="round" stroke-linejoin="round" stroke-width=".25" transform="translate(36.829 1652.826)"/><path d="m518.366 260.664 2.218 1.172c-.159 2.441-.717 5.02-4.971 10.907a28.248 28.248 0 0 1 -2.632-2.132z" fill="#adc2e8" stroke="#fff" stroke-miterlimit="10" stroke-width=".25" transform="translate(34.237 1654.293)"/><path d="m563.993 227.765c12.305 4.266 14.736 18.3 11.85 26.191-.947 2.592-3.036 5.306-4.468 7.665-3.575 5.9-11.038 18.646-9.507 19.837 1.359 1.056 8.144 5.389 12.359 8.063-1.713 1.844-4.855 6.3-5.537 14.484h-19.924c-15.99 0-12.66-64.076 15.227-76.24z" fill="#ceddf7" transform="translate(-78.378 1616.554)"/><path d="m526.745 258.033h15.59l10.809-2.123a4.993 4.993 0 0 1 2.826.03l6.912 2.534-.949 1.859 6.476 2.942a3.923 3.923 0 0 1 1.89 1.823l1.065 2.134a3.925 3.925 0 0 1 -2.881 5.625l-10.523 1.72c-2.091.339-3.657.6-3.657.6h-6.173a7.287 7.287 0 0 1 -3.824-1.086l-3.474-2.149h-23.032c.683-8.185 3.822-12.64 5.535-14.484z" fill="#ceddf7" transform="translate(-27.297 1648.622)"/><path d="m521.509 266.124-2.177-4.08 5.368 3.556z" fill="#adc2e8" stroke="#fff" stroke-miterlimit="10" stroke-width=".25" transform="translate(16.483 1655.876)"/><path d="m505.754 260.5c6.126-4.127 16.043-1.87 15.8 4.434a53.508 53.508 0 0 1 -.874 6.753c-1.391 6.654-7.826 9.361-15.182 6.446 7.591-2.375 7.174-14.648.256-17.633z" fill="#ceddf7" transform="translate(49.319 1651.711)"/><path d="m545.213 240.969-8.17 10.955-17.037-18.011 8.471-16.477 17.375 6.982z" fill="#f9cbce" stroke="#f4b7bc" stroke-miterlimit="10" stroke-width=".25" transform="translate(-6.117 1604.706)"/><path d="m520.007 222.032s5.059 14.761 16.271 13.851l.586-15.2z" fill="#9498a4" stroke="#9498a4" stroke-linecap="round" stroke-linejoin="round" stroke-width=".25" transform="translate(2.871 1608.436)"/><path d="m515.579 220.369c-3.852 13.991 3.989 25.2 13.009 27.691s13.991-8.421 16.979-19.234.775-21.025-8.245-23.517-18.767 4.245-21.743 15.06z" fill="#f9cbce" stroke="#f4b7bc" stroke-miterlimit="10" stroke-width=".25" transform="translate(4.578 1590.199)"/><path d="m527.98 215.859c-.234 2.574 1 4.792 2.77 4.953s3.386-1.8 3.62-4.369-1-4.792-2.77-4.953-3.386 1.795-3.62 4.369z" fill="#f4b7bc" stroke="#f4b7bc" stroke-miterlimit="10" stroke-width=".25" transform="translate(-11.722 1597.874)"/><path d="m549.008 222.126c-.346 4.775-4.08 7.266-8.5 7.646-4.724.408-8.921-2.214-11.584-5.892-3.455-4.777-6.117-4.552-7.755-3.384-1.9 1.351-2.053 6.276-2.65 9.437s-2.293 2.119-2.5.754 1.825-10.124-2.789-8.007c0 0 0-14.066 9.707-19.09s27.254 2.193 26.071 18.536z" fill="url(#b)" stroke="#1e205f" stroke-linejoin="round" stroke-width=".25" transform="translate(5.224 1587.016)"/><path d="m515.158 227.427a18.613 18.613 0 0 0 10.289 7.792c9.02 2.495 13.991-8.421 16.979-19.234" fill="none" stroke="#1e205f" stroke-linecap="round" stroke-linejoin="round" stroke-width=".25" transform="translate(7.72 1603.041)"/><path d="m532.9 211.49c-1.765-.161-3.386 1.795-3.62 4.369s1 4.792 2.77 4.953" fill="#f9cbce" stroke="#1e205f" stroke-linecap="round" stroke-miterlimit="10" stroke-width=".25" transform="translate(-13.025 1597.874)"/><path d="m533.978 291.1a17.758 17.758 0 0 1 -5.37 12.722 17.759 17.759 0 0 0 -5.368 12.537" fill="none" stroke="#1e205f" stroke-linecap="round" stroke-linejoin="round" stroke-width=".25" transform="translate(-1.185 1689.203)"/><path d="m545.511 232.166-8.17 10.955-17.041-18.01" fill="none" stroke="#1e205f" stroke-linecap="round" stroke-linejoin="round" stroke-width=".25" transform="translate(-6.415 1613.509)"/><path d="m569.658 2121.443h-16.581" fill="none" stroke="#1e205f" stroke-linecap="round" stroke-linejoin="round" stroke-width=".25"/><path d="m543.652 357.464s-4.554-3.579-14.845 1.726" fill="none" stroke="#1e205f" stroke-linecap="round" stroke-linejoin="round" stroke-width=".25" transform="translate(-22.812 1763.98)"/><path d="m505.5 278.133c7.588-2.375 7.172-14.648.253-17.632 6.126-4.127 16.043-1.87 15.8 4.434" fill="#ceddf7" stroke="#fff" stroke-linecap="round" stroke-linejoin="round" stroke-width=".25" transform="translate(49.319 1651.711)"/><path d="m519.366 255.822 6.911 2.533-.95 1.859 6.476 2.942" fill="none" stroke="#fff" stroke-linecap="round" stroke-linejoin="round" stroke-width=".25" transform="translate(9.308 1648.739)"/><path d="m562.439 266.509h-6.173a7.288 7.288 0 0 1 -3.824-1.086l-3.474-2.149h-23.032" fill="none" stroke="#fff" stroke-linecap="round" stroke-linejoin="round" stroke-width=".25" transform="translate(-35.435 1657.286)"/><path d="m528.543 259.171a2.3 2.3 0 0 1 -1.726 1.254c-2.815.412-9.735 1.419-11.03 1.555-.855.088-1.737 1.059-2.385 1.967a2.279 2.279 0 0 0 .208 2.888l7.3 7.736a2.7 2.7 0 0 0 3.2.565 19.056 19.056 0 0 0 7.221-6.736c3.828-6.027-2.141-10.532-2.141-10.532z" fill="#f4b7bc" stroke="#f4b7bc" stroke-linecap="round" stroke-linejoin="round" stroke-width=".25" transform="translate(22.207 1651.086)"/><path d="m512.981 261.98c1.295-.135 8.215-1.142 11.03-1.555a2.3 2.3 0 0 0 1.726-1.254l.648-1.3s5.969 4.5 2.141 10.532a19.056 19.056 0 0 1 -7.221 6.736" fill="none" stroke="#fff" stroke-linecap="round" stroke-linejoin="round" stroke-width=".25" transform="translate(25.012 1651.086)"/><path d="m520.563 260.7a2.279 2.279 0 0 0 .208 2.888l3.626 3.843" fill="none" stroke="#fff" stroke-linecap="round" stroke-linejoin="round" stroke-width=".25" transform="translate(15.045 1654.334)"/><path d="m546.428 304.005c.683-8.185 3.822-12.64 5.535-14.484h-.189c-4.215-2.673-11-7.006-12.359-8.062-1.531-1.192 5.932-13.939 9.507-19.837 1.432-2.36 3.592-5.048 4.468-7.665 2.74-8.181.455-21.924-11.85-26.191" fill="none" stroke="#fff" stroke-linecap="round" stroke-linejoin="round" stroke-width=".25" transform="translate(-55.927 1616.554)"/><path d="m534.73 281.534c0 40.851 3.292 81.2 18.07 162.4" fill="none" stroke="#1e205f" stroke-linecap="round" stroke-linejoin="round" stroke-width=".25" transform="translate(-44.677 1678.234)"/><path d="m497.602 1959.769-7.189 21.996" fill="none" stroke="#1e205f" stroke-linecap="round" stroke-linejoin="round" stroke-width=".25"/><path d="m558.45 1980.298-6.641-20.529" fill="none" stroke="#1e205f" stroke-linecap="round" stroke-linejoin="round" stroke-width=".25"/><path d="m151.751 241.825c-6.694.639-10.18 8.59-10.031 15.312s2.476 13.435 1.312 20.057c-1.48 8.41-8.341 15.157-9.633 23.6-1.524 9.954 4.983 19.289 6.465 29.249.72 4.846.251 9.892 1.738 14.56a18.025 18.025 0 0 0 35.138-3.969c.641-7.677-3.636-15.222-2.566-22.852.791-5.639 4.458-10.795 4.11-16.478-.415-6.763-6.324-11.926-8.106-18.463s.78-13.452.455-20.222c-.583-12.144-6.727-20.98-18.883-20.791" fill="url(#c)" transform="translate(265.288 1699.16)"/><path d="m151.751 241.825c-6.694.639-10.18 8.59-10.031 15.312s2.476 13.435 1.312 20.057c-1.48 8.41-8.341 15.157-9.633 23.6-1.524 9.954 4.983 19.289 6.465 29.249.72 4.846.251 9.892 1.738 14.56a18.025 18.025 0 0 0 35.138-3.969c.641-7.677-3.636-15.222-2.566-22.852.791-5.639 4.458-10.795 4.11-16.478-.415-6.763-6.324-11.926-8.106-18.463s.78-13.452.455-20.222c-.583-12.144-6.727-20.98-18.883-20.791" fill="url(#c)" opacity=".2" transform="translate(265.288 1699.16)"/><path d="m114.568 296.856c-1.846 11.1 2.248 24.56 7.371 34.576a53.367 53.367 0 0 0 23.613 23.317c1.137.564 2.565 1.068 3.6.334a3.608 3.608 0 0 0 1.1-2.806 54.964 54.964 0 0 0 -35.681-55.421" fill="url(#c)" transform="translate(264.883 1700.33)"/><path d="m157.868 378.577a2.85 2.85 0 0 1 -.279-.642c-.18-.5-.4-1.118-.679-1.881-.569-1.639-1.425-4-2.52-6.9a239.343 239.343 0 0 0 -9.71-22.187 239.173 239.173 0 0 0 -11.967-21.059c-1.668-2.615-3.046-4.714-4.021-6.15-.445-.677-.809-1.229-1.1-1.67a2.9 2.9 0 0 1 -.348-.608 2.863 2.863 0 0 1 .453.533l1.2 1.6c1.038 1.4 2.476 3.458 4.2 6.047a204.35 204.35 0 0 1 12.158 21.021 204.559 204.559 0 0 1 9.556 22.319c1.045 2.928 1.837 5.315 2.334 6.981l.567 1.918a2.966 2.966 0 0 1 .156.678z" fill="url(#d)" transform="translate(265.162 1700.769)"/><path d="m156.911 272.571a6.687 6.687 0 0 1 .052 1.079q.011 1.143.026 3.09v11.367c-.012 9.6-.014 22.857.073 37.5s.25 27.906.377 37.5c.057 4.754.1 8.621.137 11.367q.008 1.945.011 3.09a6.773 6.773 0 0 1 -.039 1.078 6.92 6.92 0 0 1 -.089-1.075q-.049-1.143-.131-3.088c-.083-2.744-.2-6.611-.34-11.364-.241-9.6-.474-22.856-.563-37.507s-.013-27.908.114-37.507c.085-4.754.154-8.622.2-11.367q.06-1.947.094-3.089a7.059 7.059 0 0 1 .078-1.074z" fill="url(#d)" transform="translate(265.781 1699.814)"/><path d="m141.3 362.1 3.359 73.515h23.51l2.612-70.156z" fill="url(#e)" transform="translate(265.46 1701.717)"/><path d="m170.048 380a3.944 3.944 0 0 1 -1.067.369 21.581 21.581 0 0 1 -3.026.57 24.052 24.052 0 0 1 -4.573.09 29.039 29.039 0 0 1 -5.506-1 52.691 52.691 0 0 0 -5.385-1.257 14.408 14.408 0 0 0 -4.453-.026 10.917 10.917 0 0 0 -3.832 1.469 3.083 3.083 0 0 1 .876-.72 8.581 8.581 0 0 1 2.887-1.118 13.927 13.927 0 0 1 4.591-.09 46.4 46.4 0 0 1 5.45 1.228 27.725 27.725 0 0 0 9.907 1.054c2.561-.217 4.109-.656 4.131-.569z" fill="#fff" transform="translate(265.48 1702.058)"/><path d="m169.435 387.918c-.04.032-.279-.309-.853-.75a5.839 5.839 0 0 0 -2.813-1.088 9.989 9.989 0 0 0 -4.473.528c-1.649.508-3.4 1.336-5.388 1.84a15.583 15.583 0 0 1 -10.235-1.02 13.75 13.75 0 0 1 -2.694-1.639 4 4 0 0 1 -.846-.786 27.441 27.441 0 0 0 3.693 2.082 15.919 15.919 0 0 0 9.953.848c1.922-.484 3.677-1.3 5.374-1.793a9.994 9.994 0 0 1 4.673-.431 5.669 5.669 0 0 1 2.887 1.3 3.319 3.319 0 0 1 .577.644c.11.165.161.255.145.265z" fill="#fff" transform="translate(265.478 1702.204)"/><path d="m169.7 397.757c.005.017-.084.061-.261.129a3.507 3.507 0 0 1 -.809.192 6.388 6.388 0 0 1 -3.009-.456c-1.218-.432-2.542-1.208-4.034-1.935a25.035 25.035 0 0 0 -5.077-1.813 25.827 25.827 0 0 0 -9.756-.435c-2.5.356-3.979.913-4.01.813a4.481 4.481 0 0 1 1.021-.433 20.674 20.674 0 0 1 2.929-.751 24.158 24.158 0 0 1 15.111 2.179c1.511.768 2.787 1.561 3.952 2.024a6.8 6.8 0 0 0 2.856.6c.694-.033 1.071-.163 1.087-.114z" fill="#fff" transform="translate(265.491 1702.367)"/><path d="m143.235 404.381c.015-.049.383.1 1.069.127a5.884 5.884 0 0 0 2.789-.682 23.762 23.762 0 0 0 3.588-2.487 10.954 10.954 0 0 1 2.287-1.351 9.3 9.3 0 0 1 2.794-.65 20.914 20.914 0 0 1 5.427.537c1.63.331 3.085.634 4.322.78a16.105 16.105 0 0 0 2.937.094 4.689 4.689 0 0 1 1.087-.084 4.06 4.06 0 0 1 -1.062.289 13.039 13.039 0 0 1 -3 .075c-1.264-.1-2.747-.37-4.376-.673a21.773 21.773 0 0 0 -5.3-.487 8.975 8.975 0 0 0 -2.634.6 10.83 10.83 0 0 0 -2.2 1.267 21.589 21.589 0 0 1 -3.715 2.431 5.651 5.651 0 0 1 -2.964.547 3.3 3.3 0 0 1 -.8-.2c-.17-.07-.256-.114-.249-.133z" fill="#fff" transform="translate(265.501 1702.508)"/><path d="m169.356 410.557a7.5 7.5 0 0 0 -3.646-.924c-2.347-.057-5.514 1.218-9.213 1.377a30.2 30.2 0 0 1 -9.337-.844 24.835 24.835 0 0 1 -2.716-.847 3.96 3.96 0 0 1 -.948-.44c.031-.087 1.421.43 3.749.92a33.878 33.878 0 0 0 9.217.68 34.6 34.6 0 0 0 5.049-.716 17.178 17.178 0 0 1 4.207-.507 6.629 6.629 0 0 1 2.789.679 2.209 2.209 0 0 1 .849.622z" fill="#fff" transform="translate(265.507 1702.711)"/><path d="m579.166 1624.309h264.928v169.035h-264.928z" fill="#fff"/><path d="m569.021 231.012c0-1.708-.082-65.795-.21-169.034l.21.209-264.908.056h-.02l.266-.266c-.007 59.968-.014 117.091-.02 169.034l-.245-.244 264.928.244-264.928.245h-.245v-.246c-.006-51.942-.013-109.065-.02-169.034v-.267h.286l264.908.056h.21v.21c-.133 103.243-.209 167.332-.212 169.037z" fill="#313450" transform="translate(275.072 1562.331)"/><path d="m304.092 66.682-.153 8.669 264.783.472.3-9.141z" fill="#4e6ef1" transform="translate(275.074 1562.436)"/><path d="m546.644 101.154-.986 54.908 42.376 1.24 1.233-55.543z" fill="#6b6f92" transform="translate(280.213 1563.17)"/><path d="m546.8 106.344 30.945.166-.256-2.732 11.678.438.076-2.457-42.623-.6z" fill="#313450" transform="translate(280.234 1563.17)"/><path d="m548.405 103.67-.046 1.481 7.756.013-.32-1.447z" fill="#4e6ef1" transform="translate(280.271 1563.223)"/><path d="m557.808 103.694-.046 1.481 7.756.013-.32-1.447z" fill="#4e6ef1" transform="translate(280.471 1563.223)"/><path d="m567.407 103.88-.046 1.481 7.756.013-.32-1.447z" fill="#4e6ef1" transform="translate(280.674 1563.228)"/><path d="m549.107 108.734-.32 27.706 26.307.937-.905-27.834z" fill="#313450" transform="translate(280.28 1563.331)"/><path d="m574.106 111.2c.031.029-.325.45-.912 1.272s-1.394 2.054-2.389 3.612c-.5.777-1.052 1.635-1.69 2.54a16.359 16.359 0 0 0 -1.7 3.033c-.519 1.13-1.01 2.359-1.6 3.621a12.068 12.068 0 0 1 -2.427 3.676l-.305.292-.185-.388a41.088 41.088 0 0 1 -2.345-6 24.789 24.789 0 0 1 -.991-5.138l.535.2a27.585 27.585 0 0 0 -4.6 7.243c-.588 1.186-1.145 2.311-1.724 3.333l-1.644 2.781-2.386 3.959a9.519 9.519 0 0 1 -.929 1.393 9.542 9.542 0 0 1 .738-1.506l2.221-4.048 1.574-2.815c.55-1.017 1.084-2.144 1.656-3.338a27.278 27.278 0 0 1 4.647-7.446l.481-.5.054.694a24.749 24.749 0 0 0 .977 5 42.244 42.244 0 0 0 2.293 5.912l-.489-.1a11.7 11.7 0 0 0 2.316-3.47q.859-1.88 1.645-3.6a16.483 16.483 0 0 1 1.807-3.083c.65-.879 1.219-1.721 1.743-2.483 1.041-1.528 1.9-2.734 2.55-3.522a6 6 0 0 1 1.079-1.124z" fill="#e8505b" transform="translate(280.28 1563.383)"/><path d="m0 0h3.384v3.384h-3.384z" fill="#313450" transform="matrix(.99996707 .00811569 -.00811569 .99996707 856.497 1674.462)"/><path d="m579.845 111.672.142 1.522 6.492-.017-.1-1.053z" fill="#4e6ef1" transform="translate(280.94 1563.393)"/><path d="m0 0h3.384v3.384h-3.384z" fill="#313450" transform="matrix(.99996678 .0081506 -.0081506 .99996678 856.969 1679.495)"/><path d="m580.306 116.6.142 1.521 6.492-.017-.1-1.053z" fill="#4e6ef1" transform="translate(280.95 1563.498)"/><path d="m0 0h3.384v3.384h-3.384z" fill="#313450" transform="matrix(.99996678 .0081506 -.0081506 .99996678 856.804 1685.296)"/><path d="m580.144 122.28.142 1.522 6.492-.017-.1-1.053z" fill="#4e6ef1" transform="translate(280.946 1563.618)"/><path d="m549.469 138.7 31.617.61-.111 2.828-31.669-1.169z" fill="#313450" transform="translate(280.291 1563.968)"/><path d="m580.427 139.3 3.759.024-.111 2.828-3.759-.024z" fill="#4e6ef1" transform="translate(280.95 1563.98)"/><path d="m549.947 143.8 35.031.559-.021 3.228-35.173-1.517z" fill="#313450" transform="translate(280.301 1564.076)"/><path d="m566.34 144.028 3.759.024-.111 2.828-3.759-.024z" fill="#4e6ef1" transform="translate(280.651 1564.081)"/><path d="m550.408 148.728 31.617.61-.111 2.828-31.669-1.166z" fill="#313450" transform="translate(280.31 1564.181)"/><path d="m581.365 149.326 3.759.024-.111 2.828-3.759-.024z" fill="#4e6ef1" transform="translate(280.97 1564.194)"/><path d="m287.774 63.968 6.041-.279.546 85.4-5.612-.815z" fill="#313450" transform="translate(274.731 1562.373)"/><path d="m288.87 67.052.608 4.071 2.167-.195.333-4.4z" fill="#fff" transform="translate(274.754 1562.434)"/><path d="m289.65 108.331.608 4.071 2.167-.195.333-4.4z" fill="#fff" transform="translate(274.771 1563.311)"/><path d="m289.086 73.578 3.437-.226.4 4.409h-3.7z" fill="#fff" transform="translate(274.759 1562.579)"/><path d="m289.366 87.223 2.983-.112.326 4.818-3.214-.141z" fill="#fff" transform="translate(274.764 1562.871)"/><path d="m289.569 93.975 2.983-.112.326 4.818-3.214-.141z" fill="#fff" transform="translate(274.769 1563.015)"/><path d="m289.807 100.975 2.983-.112.326 4.818-3.214-.141z" fill="#fff" transform="translate(274.774 1563.164)"/><path d="m290 116.171 2.983-.112.326 4.818-3.214-.141z" fill="#fff" transform="translate(274.778 1563.486)"/><path d="m289.282 80.245 3.488.345.158 4.513-3.3-.033z" fill="#fff" transform="translate(274.763 1562.726)"/><path d="m579.166 1624.309h264.928v4.809h-264.928z" fill="#313450"/><path d="m308.972 64.136a.953.953 0 1 1 -1.024-.877.952.952 0 0 1 1.024.877z" fill="#fff" transform="translate(275.141 1562.364)"/><path d="m312.721 64.2a.954.954 0 1 1 -1.024-.876.954.954 0 0 1 1.024.876z" fill="#fff" transform="translate(275.221 1562.365)"/><path d="m316.469 64.235a.953.953 0 1 1 -1.023-.877.953.953 0 0 1 1.023.877z" fill="#fff" transform="translate(275.3 1562.366)"/><path d="m320.845 63.522.141 1.811 12.757.023-.342-1.8z" fill="#6b6f92" transform="translate(275.433 1562.369)"/><path d="m336.059 63.778.241 1.8 8.937-.177-.38-1.782z" fill="#6b6f92" transform="translate(275.757 1562.372)"/><path d="m349.392 64.014.194 1.806 8.939.055-.334-1.791z" fill="#6b6f92" transform="translate(276.041 1562.38)"/><path d="m343.426 95.983 6 144.129 177.813 1.06-1.9-141.123z" fill="#fff" transform="translate(275.913 1563.06)"/><path d="m343.426 95.983s.28 0 .844.005l2.518.043 9.83.192 37.2.768 131.527 2.819.231.005v.231c.574 42.026 1.229 89.948 1.92 140.595 0 .178.005.355.007.528v.272h-.272l-177.812-1.1h-.211l-.008-.21c-1.763-43.492-3.224-79.548-4.245-104.74-.5-12.568-.889-22.424-1.156-29.147-.129-3.346-.228-5.91-.294-7.647s-.085-2.6-.085-2.6.054.91.134 2.651.194 4.325.345 7.689c.294 6.734.724 16.606 1.272 29.194 1.075 25.155 2.614 61.158 4.471 104.586l-.22-.212 177.813 1.015-.268.27c0-.173 0-.35-.007-.528-.672-50.647-1.308-98.57-1.866-140.6l.234.236-131.352-3.067-37.257-.9-9.878-.249-2.545-.07c-.572-.012-.87-.029-.87-.029z" fill="#313450" transform="translate(275.913 1563.06)"/><path d="m343.323 94.564.139 5.556 181.88-.041v-4.791z" fill="#263238" transform="translate(275.911 1563.029)"/><path d="m495.166 112.983 1.209 8.851 17.742.065-.843-8.147z" fill="#e0e0e0" transform="translate(279.139 1563.421)"/><path d="m495.2 115.111 18.108.769-.035-2.128-18.108-.769z" fill="#455a64" transform="translate(279.139 1563.421)"/><path d="m0 0h2.743v2.743h-2.743z" fill="#e8505b" transform="matrix(.99986657 -.01633556 .01633556 .99986657 778.328 1680.036)"/><path d="m0 0h2.743v2.743h-2.743z" fill="#263238" transform="matrix(1 -.016 .016 1 777.894 1680.485)"/><path d="m0 0h2.743v2.743h-2.743z" fill="#e8505b" transform="matrix(.99986657 -.01633556 .01633556 .99986657 777.023 1681.234)"/><path d="m504.478 117.724-.124 1.4 7.868-.2-.088-.881z" fill="#263238" transform="translate(279.335 1563.522)"/><path d="m495.33 123.055 1.209 8.851 17.742.065-.843-8.147z" fill="#e0e0e0" transform="translate(279.143 1563.635)"/><path d="m495.365 125.183 18.108.768-.035-2.128-18.108-.769z" fill="#455a64" transform="translate(279.143 1563.635)"/><path d="m0 0h2.743v2.743h-2.743z" fill="#e8505b" transform="matrix(1 -.016 .016 1 778.496 1690.322)"/><path d="m0 0h2.743v2.743h-2.743z" fill="#263238" transform="matrix(1 -.016 .016 1 778.062 1690.77)"/><path d="m0 0h2.743v2.743h-2.743z" fill="#e8505b" transform="matrix(1 -.016 .016 1 777.191 1691.52)"/><path d="m504.643 127.8-.124 1.4 7.868-.2-.088-.881z" fill="#263238" transform="translate(279.338 1563.736)"/><path d="m0 0h4.29v4.29h-4.29z" fill="#6b6f92" transform="matrix(.99999101 -.00424114 .00424114 .99999101 637.695 1702.526)"/><path d="m0 0h4.29v4.29h-4.29z" fill="#6b6f92" transform="matrix(.99999101 -.00424114 .00424114 .99999101 784.362 1703.668)"/><path d="m0 0h4.29v4.29h-4.29z" fill="#6b6f92" transform="matrix(1 -.004 .004 1 783.856 1768.105)"/><path d="m0 0h4.29v4.29h-4.29z" fill="#6b6f92" transform="matrix(1 -.004 .004 1 640.356 1763.315)"/><path d="m0 0h2.823v2.823h-2.823z" fill="#6b6f92" transform="matrix(.004 1 -1 .004 716.009 1704.354)"/><path d="m0 0h2.823v2.823h-2.823z" fill="#6b6f92" transform="matrix(.00422368 .99999108 -.99999108 .00422368 641.84 1735.243)"/><path d="m0 0h2.823v2.823h-2.823z" fill="#6b6f92" transform="matrix(.00424114 .99999101 -.99999101 .00424114 787.783 1732.812)"/><path d="m0 0h2.823v2.823h-2.823z" fill="#6b6f92" transform="matrix(.004 1 -1 .004 714.411 1766.45)"/><path d="m510.2 141.821a6.393 6.393 0 0 1 -.753.029l-2.142.011-8.225-.022-30.635-.2-105.383-.991.618-.632c.665 19.094 1.387 39.826 2.134 61.316.008.214.015.429.022.635l-.623-.618 144.028 3.806-.471.453c.4-19.637.728-35.53.954-46.534.134-5.521.237-9.81.307-12.74q.066-2.184.1-3.342c.015-.371.028-.655.037-.864a1.755 1.755 0 0 1 .029-.306 8.6 8.6 0 0 1 .032 1.078v3.26c-.017 2.907-.044 7.163-.078 12.64-.109 11.073-.268 27.063-.463 46.821v.465l-.467-.011-144.038-3.447-.6-.015-.02-.6c-.007-.206-.014-.421-.021-.635-.728-21.491-1.431-42.223-2.078-61.318l-.021-.641.64.009 105.785 1.572 30.49.54 8.1.175 2.069.063a4.276 4.276 0 0 1 .673.043z" fill="#6b6f92" transform="translate(276.317 1563.983)"/><path d="m508.784 209.308 2.418 10.877 1.8-3.7 4.327-.69z" fill="#6b6f92" transform="translate(279.428 1565.469)"/><path d="m748.012 1781.191h5.772v5.772h-5.772z" fill="#4e6ef1"/><path d="m756.237 1781.191h5.772v5.772h-5.772z" fill="#e0e0e0"/><path d="m764.462 1781.191h5.772v5.772h-5.772z" fill="#6b6f92"/><path d="m772.688 1781.191h5.772v5.772h-5.772z" fill="#313450"/><path d="m505.258 200.5-132.671-3.869-2.178-52.461 134.849 1.813z" fill="#4e6ef1" transform="translate(276.487 1564.084)"/><path d="m403.957 180.116-27.9-.572-.914-22.821 28.811.4z" fill="#e0e0e0" transform="translate(276.587 1564.351)"/><path d="m537.194 212.429 3.7 43.884 36.121.6-2.757-42.013z" fill="#6b6f92" transform="translate(280.033 1565.536)"/><path d="m536.945 210.589.472 4.454 36.942 1.342-.2-4.347z" fill="#313450" transform="translate(280.027 1565.496)"/><path d="m546.168 222.869 1.844 24.188 20.9 1.085-1.117-25.119z" fill="#313450" transform="translate(280.224 1565.757)"/><path d="m566.475 242.513a22.371 22.371 0 0 1 -4.474.3c-2.778.071-6.638.109-10.97.1h-.425l-.04-.424c-.043-.468-.09-.965-.137-1.467-.428-4.654-.763-8.87-.959-11.926a26.083 26.083 0 0 1 -.124-4.964 26.006 26.006 0 0 1 .785 4.9c.365 3.04.8 7.247 1.233 11.9.046.5.091 1 .134 1.468l-.464-.425c4.332.031 8.193.1 10.969.2a22.425 22.425 0 0 1 4.472.338z" fill="#e0e0e0" transform="translate(280.29 1565.784)"/><path d="m549.971 243.406c.2.159.122.607-.186 1s-.721.581-.925.421-.121-.607.185-1 .721-.581.926-.421z" fill="#4e6ef1" transform="translate(280.279 1566.193)"/><path d="m555.068 236.921c.2.16-.209 1.03-.923 1.944s-1.459 1.527-1.665 1.366.209-1.029.924-1.944 1.46-1.526 1.664-1.366z" fill="#4e6ef1" transform="translate(280.357 1566.056)"/><path d="m560.135 230.437c.205.159-.208 1.03-.923 1.944s-1.459 1.526-1.664 1.366.208-1.03.923-1.944 1.46-1.527 1.664-1.366z" fill="#4e6ef1" transform="translate(280.465 1565.918)"/><path d="m563.728 225.8c.2.159.121.608-.186 1s-.721.581-.925.421-.122-.607.186-1 .72-.578.925-.421z" fill="#4e6ef1" transform="translate(280.571 1565.819)"/><path d="m539.687 217.07.237 1.935 8.153.122.315-2z" fill="#4e6ef1" transform="translate(280.085 1565.634)"/><path d="m534.722 81.994 1.209 8.851 17.742.065-.843-8.147z" fill="#e0e0e0" transform="translate(279.981 1562.762)"/><path d="m534.757 84.122 18.108.769-.035-2.128-18.108-.769z" fill="#455a64" transform="translate(279.981 1562.762)"/><path d="m0 0h2.743v2.743h-2.743z" fill="#e8505b" transform="matrix(1 -.016 .016 1 818.726 1648.388)"/><path d="m0 0h2.743v2.743h-2.743z" fill="#263238" transform="matrix(1 -.016 .016 1 818.292 1648.837)"/><path d="m0 0h2.743v2.743h-2.743z" fill="#e8505b" transform="matrix(1 -.016 .016 1 817.421 1649.586)"/><path d="m544.035 86.735-.124 1.4 7.868-.2-.088-.881z" fill="#263238" transform="translate(280.176 1562.863)"/><path d="m301.64 300.1v-5.059s-.2-6.475 8.5-7.082 39.134-.055 39.134-.055 9.028-.23 9.028 5.519v6.88z" fill="#313450" transform="translate(287.025 1698.134)"/><path d="m301.64 300.1v-5.059s-.2-6.475 8.5-7.082 39.134-.055 39.134-.055 9.028-.23 9.028 5.519v6.88z" fill="#313450" opacity=".2" transform="translate(287.025 1698.134)"/><path d="m301.64 299.837s26.433 1.625 27.81 6.863h4.9s3.233-5.432 23.949-6.661z" fill="#313450" transform="translate(287.025 1698.392)"/><path d="m310.49 437.481h41.316l-15.75-10.381-.215-60.125h7.691v-1.6h-7.7l-.061-16.962-1.434-4.02-.206-44.365h-4.806c-.16.9 0 44.237 0 44.237l-1.442 3.837v17.273h-12.515v1.6h12.519v60.125z" fill="#313450" transform="translate(287.214 1698.397)"/><path d="m325.647 212.756a17.391 17.391 0 0 1 -25.735-4.073 12.527 12.527 0 0 1 -2.1-8.378 8.061 8.061 0 0 1 5.2-6.563c1.118-.354 2.311-.407 3.443-.715a3.844 3.844 0 0 0 2.7-2.049c.539-1.377-.218-2.941.043-4.4.425-2.375 3.2-3.442 4.672-5.352 1.957-2.54 1.356-6.142.661-9.271l2.132-1.828z" fill="#263238" transform="translate(286.941 1695.635)"/><path d="m355.332 216.325s17.927 24.6 18.919 25.233c3.077 1.952 34.347 14.036 34.347 14.036l-1.729 10.781s-39.876-11.325-42.2-13-18.6-26.269-18.6-26.269z" fill="#ffbe9d" transform="translate(287.97 1696.617)"/><g fill="#e8505b"><path d="m296.757 230.018 1.524-20.027c2.528-14.082 20.547-12.881 20.547-12.881l15.493-.251s10.77.336 16.923 9.068c5.01 7.11 10.44 14.622 10.44 14.622l-11.584 11.736-4.039-7.071a9.385 9.385 0 0 1 1.839 6.751c-.474 5.375-4.419 6.4-4.419 6.4l1.752 36.3-48.965-.45 8.113-18.677-1.594-26.171z" transform="translate(286.911 1696.204)"/><path d="m315.277 229.516c.438-.066.89.521 1.118 1.286s.167 1.5-.236 1.687-1.033-.35-1.294-1.234-.021-1.675.412-1.739z" transform="translate(287.305 1696.898)"/><path d="m316.747 210.523c.436.06.676 1.475.533 3.159s-.616 3.04-1.056 3.025-.68-1.429-.533-3.159.62-3.084 1.056-3.025z" transform="translate(287.323 1696.495)"/><path d="m313.95 224.058a.8.8 0 1 1 .681-1.42.8.8 0 0 1 -.681 1.42z" transform="translate(287.274 1696.747)"/><path d="m326.278 212.111c.433.084.634.919.451 1.864s-.683 1.643-1.116 1.559-.634-.918-.45-1.864.683-1.643 1.115-1.559z" transform="translate(287.525 1696.528)"/><path d="m339.707 213.591c.08.429-.655.92-1.641.849s-1.643-.662-1.5-1.075.849-.567 1.618-.517 1.446.305 1.523.743z" transform="translate(287.767 1696.543)"/><path d="m342.057 211.588c-.269.349-1.233.06-2.153-.645s-1.451-1.563-1.183-1.912 1.232-.061 2.153.645 1.45 1.562 1.183 1.912z" transform="translate(287.812 1696.459)"/><path d="m344.232 210.055c-.434.007-.8-1.079-.451-2.363s1.193-2.05 1.567-1.827.251 1.178-.025 2.238-.644 1.951-1.091 1.952z" transform="translate(287.918 1696.395)"/><path d="m349.175 208.924c.325.3.006 1.172-.712 1.952s-1.561 1.17-1.886.872-.005-1.172.713-1.952 1.561-1.17 1.885-.872z" transform="translate(287.978 1696.458)"/><path d="m346.906 215.248c-.079.434-1.038.624-2.142.425s-1.937-.712-1.859-1.146 1.037-.624 2.142-.425 1.937.711 1.859 1.146z" transform="translate(287.903 1696.568)"/><path d="m334.509 214.248c-.095.431-.944.609-1.894.4s-1.644-.73-1.549-1.16.944-.609 1.894-.4 1.64.73 1.549 1.16z" transform="translate(287.651 1696.547)"/><path d="m336.275 210.263c-.223.381-1.046.315-1.839-.148s-1.257-1.146-1.036-1.527 1.046-.315 1.839.148 1.261 1.146 1.036 1.527z" transform="translate(287.699 1696.448)"/><path d="m341.911 207.242c-.383.209-1.11-.4-1.348-1.442s.148-1.906.583-1.885.779.713.972 1.529.182 1.59-.207 1.798z" transform="translate(287.851 1696.354)"/><path d="m348.676 205.112a1.107 1.107 0 1 1 -1.2.573.96.96 0 0 1 1.2-.573z" transform="translate(287.996 1696.378)"/><path d="m352.625 211.079c.115.425-.261.9-.839 1.052a.975.975 0 0 1 -1.254-.489c-.114-.425.261-.9.84-1.052a.973.973 0 0 1 1.253.489z" transform="translate(288.064 1696.495)"/><path d="m334.235 203.282c.237-.365 1.339-.059 2.226.928s1.08 2.113.693 2.311-1.134-.425-1.879-1.243-1.288-1.625-1.04-1.996z" transform="translate(287.717 1696.337)"/><path d="m344.073 201.215c.44 0 .8.553.8 1.235s-.355 1.237-.8 1.238-.8-.551-.8-1.235.358-1.237.8-1.238z" transform="translate(287.911 1696.297)"/><path d="m327.362 209.4c.142-.418 1.149-.452 2.25-.079s1.878 1.016 1.736 1.433-1.149.452-2.25.079-1.878-1.021-1.736-1.433z" transform="translate(287.572 1696.464)"/><path d="m331.85 205.923c-.311.313-.947.184-1.421-.287s-.607-1.107-.3-1.42.947-.184 1.421.288.611 1.107.3 1.419z" transform="translate(287.628 1696.357)"/><path d="m338.816 199.54c.44-.033.845.6.9 1.416s-.246 1.5-.686 1.536-.845-.6-.9-1.418.247-1.501.686-1.534z" transform="translate(287.801 1696.261)"/><path d="m320.324 208.919c.411.159.434 1.088.053 2.073s-1.024 1.654-1.435 1.5-.435-1.088-.053-2.073 1.024-1.66 1.435-1.5z" transform="translate(287.386 1696.46)"/><path d="m323.143 208.621c.433-.083.938.652 1.125 1.639s-.009 1.857-.442 1.939-.936-.652-1.124-1.64.009-1.859.441-1.938z" transform="translate(287.472 1696.454)"/><path d="m329.249 207.2c-.023.44-.866.753-1.881.7s-1.819-.455-1.794-.9.865-.753 1.88-.7 1.818.457 1.795.9z" transform="translate(287.535 1696.404)"/><path d="m317.868 206.751c.094.431-.5.926-1.332 1.106s-1.579-.021-1.673-.452.5-.925 1.333-1.106 1.578.021 1.672.452z" transform="translate(287.306 1696.403)"/><path d="m323.167 205.145c.155.413-.277.957-.964 1.215s-1.372.135-1.527-.278.277-.957.964-1.215 1.371-.135 1.527.278z" transform="translate(287.43 1696.372)"/><path d="m318.482 203.733c.045.433-1.164.909-2.693.778s-2.641-.8-2.524-1.218 1.289-.483 2.658-.372 2.516.369 2.559.812z" transform="translate(287.272 1696.332)"/><path d="m321.04 201.742c-.176.4-1.422.251-2.782-.341s-2.321-1.4-2.146-1.8 1.422-.251 2.782.341 2.322 1.396 2.146 1.8z" transform="translate(287.332 1696.258)"/><path d="m335.392 199.739c.183.4-.276 1-.958 1.456s-1.418.632-1.716.305.038-1.111.838-1.637 1.656-.524 1.836-.124z" transform="translate(287.684 1696.259)"/><path d="m313.2 200.633c-.161.41-.809.539-1.446.288s-1.022-.786-.861-1.2.809-.539 1.446-.289 1.02.79.861 1.201z" transform="translate(287.221 1696.256)"/><path d="m334.778 244.346c.014.44-1.038.832-2.35.875s-2.387-.279-2.4-.719 1.038-.832 2.35-.875 2.386.279 2.4.719z" transform="translate(287.629 1697.198)"/><path d="m337.068 241.653c-.317.306-1.129-.018-1.813-.726s-.983-1.529-.667-1.836 1.129.019 1.813.727.984 1.528.667 1.835z" transform="translate(287.723 1697.099)"/><path d="m339.3 240.3c-.427.086-.956-.8-.869-1.974s.735-1.974 1.145-1.828.51 1 .446 1.943-.282 1.777-.722 1.859z" transform="translate(287.807 1697.046)"/><path d="m341.2 242.213c.29.334.062 1.007-.451 1.563s-1.17.83-1.525.566-.224-1.028.355-1.651 1.337-.808 1.621-.478z" transform="translate(287.821 1697.165)"/><path d="m340.206 248.926c-.439-.013-.774-.68-.633-1.475s.683-1.306 1.1-1.168.587.776.471 1.446-.496 1.212-.938 1.197z" transform="translate(287.831 1697.254)"/><path d="m336.422 246.373a.659.659 0 1 1 -.611 1.161.682.682 0 1 1 .611-1.161z" transform="translate(287.74 1697.252)"/><path d="m342.934 234.85c.411.149.425 1.144-.137 2.139s-1.417 1.5-1.759 1.226-.12-1.136.369-2.008 1.11-1.507 1.527-1.357z" transform="translate(287.859 1697.011)"/><path d="m339.768 234.443c.025.439-.838.846-1.928.907s-1.992-.246-2.017-.686.838-.846 1.928-.907 1.993.243 2.017.686z" transform="translate(287.752 1696.989)"/><path d="m332.764 241.413c-.343.275-.95.09-1.353-.415s-.452-1.137-.108-1.411.95-.09 1.353.415.452 1.135.108 1.411z" transform="translate(287.651 1697.11)"/><path d="m326.439 244.789c-.3.314-1.306-.177-1.967-1.289s-.617-2.227-.2-2.344 1.017.613 1.569 1.527.911 1.788.598 2.106z" transform="translate(287.5 1697.145)"/><path d="m323.134 244.69c-.112.426-.745.628-1.411.452s-1.117-.665-1-1.091.745-.628 1.412-.452 1.111.665.999 1.091z" transform="translate(287.431 1697.196)"/><path d="m301.16 268.164c-.436-.063-.646-1.1-.47-2.314s.674-2.15 1.11-2.085.645 1.1.469 2.314-.669 2.148-1.109 2.085z" transform="translate(287.004 1697.626)"/><path d="m307.087 267.5c-.4.188-1.223-.73-1.841-2.049s-.8-2.54-.4-2.727 1.223.73 1.842 2.05.798 2.536.399 2.726z" transform="translate(287.089 1697.604)"/><path d="m312.3 263.838c-.291.336-1.413-.164-2.592-1.006s-2.012-1.746-1.789-2.129 1.473-.06 2.718.832 1.954 1.973 1.663 2.303z" transform="translate(287.158 1697.558)"/><path d="m304.308 257.686c.409.165.471.964.14 1.786s-.931 1.353-1.34 1.188-.471-.964-.14-1.785.932-1.354 1.34-1.189z" transform="translate(287.049 1697.496)"/><path d="m312.467 268.39c-.351.267-1.1-.127-1.665-.876s-.743-1.573-.392-1.839 1.1.127 1.665.876.743 1.574.392 1.839z" transform="translate(287.208 1697.665)"/><path d="m303.869 269.987c-.437.061-.87-.448-.968-1.139s.176-1.3.612-1.363.869.447.968 1.139-.181 1.301-.612 1.363z" transform="translate(287.051 1697.705)"/><path d="m320.529 262.085c-.112.426-1.523.5-3.149.162s-2.891-.964-2.825-1.4 1.475-.509 3.149-.162 2.938.974 2.825 1.4z" transform="translate(287.3 1697.556)"/><path d="m319.532 268.272c-.281.34-1.428-.142-2.561-1.076s-1.827-1.967-1.546-2.307 1.427.142 2.56 1.076 1.827 1.967 1.547 2.307z" transform="translate(287.317 1697.648)"/><path d="m325.123 266.5c-.131.421-1.091.5-2.144.17s-1.8-.934-1.67-1.355 1.09-.5 2.144-.169 1.8.934 1.67 1.354z" transform="translate(287.444 1697.652)"/><path d="m329.552 267.509c.022.445-.614.841-1.338 1.179-.732.323-1.448.542-1.769.232-.32-.3.078-1.216 1.109-1.684s1.986-.162 1.998.273z" transform="translate(287.551 1697.695)"/><path d="m328.147 263.8c-.216.385-1.056.323-1.878-.137s-1.314-1.146-1.1-1.531 1.056-.323 1.878.138 1.316 1.142 1.1 1.53z" transform="translate(287.525 1697.586)"/><path d="m332.679 263.3a1.447 1.447 0 0 1 -.3 1.362c-.309.431-.723.816-1.165.766s-.689-.881-.149-1.67 1.424-.846 1.614-.458z" transform="translate(287.645 1697.612)"/><path d="m337.377 266.8c.013.44-.828.824-1.881.857s-1.917-.3-1.93-.738.828-.824 1.881-.857 1.916.301 1.93.738z" transform="translate(287.704 1697.675)"/><path d="m338.034 264.323c-.174.4-1.006.435-1.86.068s-1.4-.993-1.229-1.4 1.007-.435 1.86-.067 1.404.994 1.229 1.399z" transform="translate(287.733 1697.603)"/><path d="m341.158 265.555c-.434-.058-.7-.727-.436-1.446s.9-1.055 1.269-.817a1.154 1.154 0 0 1 .228 1.37c-.202.538-.619.954-1.061.893z" transform="translate(287.854 1697.614)"/><path d="m315.861 224.731c.369-.242 1.179.339 1.811 1.3s.846 1.934.477 2.176-1.179-.339-1.81-1.3-.846-1.934-.478-2.176z" transform="translate(287.324 1696.796)"/><path d="m322.489 223.322c.371.238.059 1.389-.7 2.573s-1.67 1.951-2.042 1.714-.059-1.389.7-2.573 1.671-1.951 2.042-1.714z" transform="translate(287.407 1696.766)"/><path d="m326.131 227.71c.155.413-.59 1.074-1.664 1.478s-2.071.4-2.226-.016.59-1.073 1.665-1.477 2.071-.395 2.225.015z" transform="translate(287.463 1696.854)"/><path d="m325.149 234.776c-.26.351-1.23.076-2.076-.719s-1.19-1.74-.856-2.024 1.169.135 1.945.859 1.251 1.529.987 1.884z" transform="translate(287.46 1696.949)"/><path d="m319.323 237.6c-.422.1-1.042-1.011-.947-2.5s.845-2.517 1.249-2.362c.421.151.414 1.227.344 2.462-.084 1.233-.21 2.3-.646 2.4z" transform="translate(287.382 1696.966)"/><path d="m321.168 230.777c-.118.424-.813.6-1.55.393s-1.239-.719-1.119-1.144.813-.6 1.55-.392 1.238.719 1.119 1.143z" transform="translate(287.383 1696.899)"/><path d="m327.2 222.726c.355.252 0 1.356-1.007 2.267s-2.134 1.169-2.352.791.414-1.178 1.278-1.971 1.722-1.348 2.081-1.087z" transform="translate(287.496 1696.752)"/><path d="m318.418 220.117c.426-.1.965.67 1.02 1.735s-.4 1.885-.831 1.833-.71-.833-.762-1.748.14-1.722.573-1.82z" transform="translate(287.369 1696.698)"/><path d="m324.171 217.339c.426.1.549 1.111.116 2.2s-1.214 1.741-1.593 1.522-.274-1.136.109-2.11.937-1.715 1.368-1.612z" transform="translate(287.468 1696.639)"/><path d="m331.422 226.953c.043.438-.6.859-1.429.94s-1.539-.21-1.582-.65.6-.859 1.429-.939 1.54.211 1.582.649z" transform="translate(287.595 1696.829)"/><path d="m329.223 232.556c-.157.412-1.054.5-2 .186s-1.625-.907-1.508-1.332 1.012-.509 2-.186 1.666.92 1.508 1.332z" transform="translate(287.537 1696.93)"/><path d="m323.141 238.91c-.381.212-1.1-.354-1.39-1.346s.005-1.858.441-1.885.849.628 1.09 1.435.249 1.586-.141 1.796z" transform="translate(287.45 1697.029)"/><path d="m319.138 242.639c-.439.026-.832-.571-.876-1.333s.277-1.4.717-1.425.832.571.876 1.333-.277 1.4-.717 1.425z" transform="translate(287.379 1697.119)"/><path d="m329.058 240.734c-.4.185-1.1-.486-1.71-1.413s-.928-1.843-.6-2.137 1.26.229 1.934 1.268.774 2.103.376 2.282z" transform="translate(287.556 1697.059)"/><path d="m333.666 237.058c-.222.384-1.228.22-2.314-.223s-1.917-1.035-1.8-1.464 1.214-.5 2.409-.012 1.924 1.321 1.705 1.699z" transform="translate(287.619 1697.015)"/><path d="m333.945 232.452a1.385 1.385 0 0 1 -1.4-.11c-.478-.263-.9-.653-.876-1.1s.807-.744 1.624-.313 1.007 1.266.652 1.523z" transform="translate(287.664 1696.924)"/><path d="m320.977 213.6c.436.074.63 1.078.518 2.254s-.5 2.124-.94 2.113-.769-1.028-.648-2.266.637-2.172 1.07-2.101z" transform="translate(287.413 1696.56)"/><path d="m329.966 216.984c.328.294-.02 1.218-.779 2.064s-1.639 1.294-1.967 1 .02-1.217.779-2.063 1.639-1.294 1.967-1.001z" transform="translate(287.567 1696.63)"/><path d="m331.264 219.1a.717.717 0 1 1 -.212 1.048.757.757 0 0 1 .212-1.048z" transform="translate(287.648 1696.673)"/><path d="m307.379 216.134c-.142.415-1.267.4-2.462-.143s-1.939-1.39-1.718-1.768 1.264-.192 2.382.317 1.942 1.175 1.798 1.594z" transform="translate(287.058 1696.569)"/><path d="m302.462 224.64c-.407.16-1.031-.452-1.273-1.406s.009-1.79.444-1.844.883.6 1.1 1.45.142 1.637-.271 1.8z" transform="translate(287.014 1696.725)"/><path d="m308.635 220.913c-.331.29-1.133-.082-1.79-.83s-.923-1.593-.591-1.883 1.133.081 1.79.83.921 1.591.591 1.883z" transform="translate(287.12 1696.655)"/><path d="m305.735 207.963c.315.309-.255 1.4-1.272 2.428s-2.094 1.617-2.408 1.307.255-1.4 1.271-2.428 2.096-1.617 2.409-1.307z" transform="translate(287.032 1696.438)"/><path d="m301.1 206.106c.416.145.47 1.073.119 2.072s-.97 1.692-1.386 1.546-.47-1.073-.119-2.073.968-1.691 1.386-1.545z" transform="translate(286.979 1696.4)"/><path d="m301.291 213.606c.247.369-.118 1.045-.694 1.645s-1.246.982-1.623.748-.236-1.124.476-1.858 1.602-.901 1.841-.535z" transform="translate(286.964 1696.556)"/><path d="m299.52 212.578c-.4.172-.931-.177-.962-.807s.466-1.026.882-.893a.874.874 0 0 1 .08 1.7z" transform="translate(286.96 1696.501)"/><path d="m308.192 211.555c.061.436-.684.9-1.664 1.037s-1.824-.107-1.884-.543.684-.9 1.665-1.037 1.823.107 1.883.543z" transform="translate(287.089 1696.504)"/><path d="m304.933 204.159c.358.256.159 1.151-.444 2s-1.385 1.329-1.744 1.072-.159-1.15.444-2 1.385-1.331 1.744-1.072z" transform="translate(287.046 1696.358)"/><path d="m307.774 226.237c-.31.3-1.279-.2-1.851-1.315s-.419-2.195.009-2.27.947.653 1.41 1.541.758 1.736.432 2.044z" transform="translate(287.108 1696.753)"/><path d="m298.838 227.766c-.436.043-.86-.639-.787-1.521s.6-1.486 1.023-1.372.624.777.568 1.5-.363 1.35-.804 1.393z" transform="translate(286.949 1696.8)"/><path d="m304.71 227.642c-.129.422-.938.547-1.808.282s-1.471-.823-1.342-1.244.939-.547 1.809-.282 1.47.823 1.341 1.244z" transform="translate(287.023 1696.829)"/><path d="m312.066 225.621c-.329.293-1.15-.091-1.832-.858s-.971-1.627-.641-1.92 1.149.091 1.832.859.975 1.627.641 1.919z" transform="translate(287.192 1696.754)"/><path d="m313.816 213.773c.026.44-.933.853-2.142.922s-2.209-.231-2.233-.67.933-.853 2.142-.923 2.208.231 2.233.671z" transform="translate(287.191 1696.549)"/><path d="m311.488 206.211c.217.384-.4 1.142-1.382 1.693s-1.949.686-2.165.3.4-1.142 1.383-1.693 1.948-.684 2.164-.3z" transform="translate(287.159 1696.398)"/><path d="m302.809 202.227a1.153 1.153 0 1 1 -1.217.6.984.984 0 0 1 1.217-.6z" transform="translate(287.021 1696.317)"/><path d="m309.9 202.066c.319.3-.006 1.162-.726 1.915s-1.563 1.118-1.881.814.007-1.162.727-1.916 1.56-1.117 1.88-.813z" transform="translate(287.143 1696.312)"/><path d="m314.3 209.862c.083.433-.635.933-1.6 1.117s-1.82-.017-1.9-.45.636-.932 1.6-1.117 1.822.017 1.9.45z" transform="translate(287.22 1696.47)"/><path d="m314.913 220.213c-.252.364-1.188.152-2.144-.383s-1.624-1.226-1.444-1.63 1.2-.339 2.224.239 1.613 1.414 1.364 1.774z" transform="translate(287.231 1696.652)"/><path d="m340.689 227.572c-.132.421-1.243.446-2.481.056s-2.134-1.045-2-1.465 1.243-.445 2.482-.056 2.13 1.046 1.999 1.465z" transform="translate(287.76 1696.82)"/><path d="m341.006 231.721c-.292.33-1.073.116-1.744-.477s-.978-1.342-.686-1.672 1.072-.116 1.743.477.981 1.342.687 1.672z" transform="translate(287.808 1696.896)"/><path d="m341.711 222.2c.147.416-.793 1.187-2.1 1.722s-2.517.644-2.7.245.753-1.17 2.1-1.722 2.553-.665 2.7-.245z" transform="translate(287.775 1696.737)"/><path d="m343.393 224.987c.012.44-.606.814-1.38.835s-1.412-.32-1.424-.76.606-.815 1.38-.835 1.413.319 1.424.76z" transform="translate(287.853 1696.786)"/><path d="m345.385 230.544c-.413.176-1.012-.293-1.666-.774-.637-.5-1.246-.96-1.186-1.4.041-.212.3-.375.711-.385a2.541 2.541 0 0 1 2.324 1.776c.099.396.01.687-.183.783z" transform="translate(287.895 1696.866)"/><path d="m345.42 234.646c-.347.272-1.152-.178-1.8-1s-.888-1.715-.541-1.986 1.152.178 1.8 1 .888 1.714.541 1.986z" transform="translate(287.903 1696.942)"/><path d="m329.6 222.728c.218-.383 1.436-.1 2.722.63s2.152 1.633 1.934 2.016-1.437.1-2.723-.629-2.153-1.634-1.933-2.017z" transform="translate(287.619 1696.75)"/><path d="m334.654 216.479c.44-.022.859 1.215.936 2.764s-.217 2.822-.657 2.843-.859-1.215-.936-2.764.217-2.822.657-2.843z" transform="translate(287.713 1696.621)"/><path d="m341.131 217.59c.271.348-.3 1.242-1.266 2s-1.975 1.085-2.246.737.3-1.242 1.266-2 1.975-1.084 2.246-.737z" transform="translate(287.789 1696.641)"/><path d="m347.446 218.918c.105.428-.816 1.02-2.057 1.323s-2.331.2-2.435-.227.816-1.02 2.057-1.324 2.33-.2 2.435.228z" transform="translate(287.904 1696.664)"/><path d="m349.2 224.054c-.128.422-1.093.5-2.155.181s-1.819-.925-1.691-1.347 1.093-.5 2.155-.18 1.815.925 1.691 1.346z" transform="translate(287.955 1696.749)"/><path d="m353.278 220c.065.436-.614.9-1.516 1.034s-1.687-.108-1.753-.544.614-.9 1.517-1.034 1.687.111 1.752.544z" transform="translate(288.053 1696.683)"/><path d="m350.9 225.821c.182.4-.331 1.019-1.193 1.219s-1.6-.128-1.611-.565.553-.823 1.248-.989 1.372-.07 1.556.335z" transform="translate(288.013 1696.811)"/><path d="m352.968 225.13c-.416.137-.954-.378-.988-1.175s.46-1.355.885-1.254.68.626.709 1.188a1.191 1.191 0 0 1 -.606 1.241z" transform="translate(288.096 1696.753)"/><path d="m350.191 213.91c.433.081.616 1.046.409 2.156s-.727 1.942-1.16 1.862-.616-1.046-.408-2.156.726-1.943 1.159-1.862z" transform="translate(288.031 1696.566)"/><path d="m353.947 217.084c-.439-.043-.733-.7-.659-1.479s.492-1.368.93-1.326.733.7.658 1.48-.491 1.368-.929 1.325z" transform="translate(288.123 1696.574)"/><path d="m356.6 221.215c-.438.054-.88-.614-.989-1.49s.158-1.631.6-1.685.879.613.988 1.489-.163 1.632-.599 1.686z" transform="translate(288.173 1696.654)"/><path d="m299.185 223.486c-.438.016-.846-1.38-.791-3.116s.543-3.107.979-3.063.665 1.433.615 3.111-.36 3.051-.803 3.068z" transform="translate(286.957 1696.639)"/><path d="m304.168 220.96c-.371.237-1.316-.582-2.112-1.829s-1.138-2.449-.766-2.686 1.316.582 2.112 1.829 1.138 2.449.766 2.686z" transform="translate(287.015 1696.62)"/><path d="m336.972 232.567c-.384.214-1.335-.754-2.123-2.163s-1.115-2.726-.73-2.941 1.335.753 2.123 2.163 1.115 2.725.73 2.941z" transform="translate(287.712 1696.854)"/></g><g fill="#fff" opacity=".2"><path d="m315.277 229.516c.438-.066.89.521 1.118 1.286s.167 1.5-.236 1.687-1.033-.35-1.294-1.234-.021-1.675.412-1.739z" transform="translate(287.305 1696.898)"/><path d="m316.747 210.523c.436.06.676 1.475.533 3.159s-.616 3.04-1.056 3.025-.68-1.429-.533-3.159.62-3.084 1.056-3.025z" transform="translate(287.323 1696.495)"/><path d="m313.95 224.058a.8.8 0 1 1 .681-1.42.8.8 0 0 1 -.681 1.42z" transform="translate(287.274 1696.747)"/><path d="m326.278 212.111c.433.084.634.919.451 1.864s-.683 1.643-1.116 1.559-.634-.918-.45-1.864.683-1.643 1.115-1.559z" transform="translate(287.525 1696.528)"/><path d="m339.707 213.591c.08.429-.655.92-1.641.849s-1.643-.662-1.5-1.075.849-.567 1.618-.517 1.446.305 1.523.743z" transform="translate(287.767 1696.543)"/><path d="m342.057 211.588c-.269.349-1.233.06-2.153-.645s-1.451-1.563-1.183-1.912 1.232-.061 2.153.645 1.45 1.562 1.183 1.912z" transform="translate(287.812 1696.459)"/><path d="m344.232 210.055c-.434.007-.8-1.079-.451-2.363s1.193-2.05 1.567-1.827.251 1.178-.025 2.238-.644 1.951-1.091 1.952z" transform="translate(287.918 1696.395)"/><path d="m349.175 208.924c.325.3.006 1.172-.712 1.952s-1.561 1.17-1.886.872-.005-1.172.713-1.952 1.561-1.17 1.885-.872z" transform="translate(287.978 1696.458)"/><path d="m346.906 215.248c-.079.434-1.038.624-2.142.425s-1.937-.712-1.859-1.146 1.037-.624 2.142-.425 1.937.711 1.859 1.146z" transform="translate(287.903 1696.568)"/><path d="m334.509 214.248c-.095.431-.944.609-1.894.4s-1.644-.73-1.549-1.16.944-.609 1.894-.4 1.64.73 1.549 1.16z" transform="translate(287.651 1696.547)"/><path d="m336.275 210.263c-.223.381-1.046.315-1.839-.148s-1.257-1.146-1.036-1.527 1.046-.315 1.839.148 1.261 1.146 1.036 1.527z" transform="translate(287.699 1696.448)"/><path d="m341.911 207.242c-.383.209-1.11-.4-1.348-1.442s.148-1.906.583-1.885.779.713.972 1.529.182 1.59-.207 1.798z" transform="translate(287.851 1696.354)"/><path d="m348.676 205.112a1.107 1.107 0 1 1 -1.2.573.96.96 0 0 1 1.2-.573z" transform="translate(287.996 1696.378)"/><path d="m352.625 211.079c.115.425-.261.9-.839 1.052a.975.975 0 0 1 -1.254-.489c-.114-.425.261-.9.84-1.052a.973.973 0 0 1 1.253.489z" transform="translate(288.064 1696.495)"/><path d="m334.235 203.282c.237-.365 1.339-.059 2.226.928s1.08 2.113.693 2.311-1.134-.425-1.879-1.243-1.288-1.625-1.04-1.996z" transform="translate(287.717 1696.337)"/><path d="m344.073 201.215c.44 0 .8.553.8 1.235s-.355 1.237-.8 1.238-.8-.551-.8-1.235.358-1.237.8-1.238z" transform="translate(287.911 1696.297)"/><path d="m327.362 209.4c.142-.418 1.149-.452 2.25-.079s1.878 1.016 1.736 1.433-1.149.452-2.25.079-1.878-1.021-1.736-1.433z" transform="translate(287.572 1696.464)"/><path d="m331.85 205.923c-.311.313-.947.184-1.421-.287s-.607-1.107-.3-1.42.947-.184 1.421.288.611 1.107.3 1.419z" transform="translate(287.628 1696.357)"/><path d="m338.816 199.54c.44-.033.845.6.9 1.416s-.246 1.5-.686 1.536-.845-.6-.9-1.418.247-1.501.686-1.534z" transform="translate(287.801 1696.261)"/><path d="m320.324 208.919c.411.159.434 1.088.053 2.073s-1.024 1.654-1.435 1.5-.435-1.088-.053-2.073 1.024-1.66 1.435-1.5z" transform="translate(287.386 1696.46)"/><path d="m323.143 208.621c.433-.083.938.652 1.125 1.639s-.009 1.857-.442 1.939-.936-.652-1.124-1.64.009-1.859.441-1.938z" transform="translate(287.472 1696.454)"/><path d="m329.249 207.2c-.023.44-.866.753-1.881.7s-1.819-.455-1.794-.9.865-.753 1.88-.7 1.818.457 1.795.9z" transform="translate(287.535 1696.404)"/><path d="m317.868 206.751c.094.431-.5.926-1.332 1.106s-1.579-.021-1.673-.452.5-.925 1.333-1.106 1.578.021 1.672.452z" transform="translate(287.306 1696.403)"/><path d="m323.167 205.145c.155.413-.277.957-.964 1.215s-1.372.135-1.527-.278.277-.957.964-1.215 1.371-.135 1.527.278z" transform="translate(287.43 1696.372)"/><path d="m318.482 203.733c.045.433-1.164.909-2.693.778s-2.641-.8-2.524-1.218 1.289-.483 2.658-.372 2.516.369 2.559.812z" transform="translate(287.272 1696.332)"/><path d="m321.04 201.742c-.176.4-1.422.251-2.782-.341s-2.321-1.4-2.146-1.8 1.422-.251 2.782.341 2.322 1.396 2.146 1.8z" transform="translate(287.332 1696.258)"/><path d="m335.392 199.739c.183.4-.276 1-.958 1.456s-1.418.632-1.716.305.038-1.111.838-1.637 1.656-.524 1.836-.124z" transform="translate(287.684 1696.259)"/><path d="m313.2 200.633c-.161.41-.809.539-1.446.288s-1.022-.786-.861-1.2.809-.539 1.446-.289 1.02.79.861 1.201z" transform="translate(287.221 1696.256)"/><path d="m334.778 244.346c.014.44-1.038.832-2.35.875s-2.387-.279-2.4-.719 1.038-.832 2.35-.875 2.386.279 2.4.719z" transform="translate(287.629 1697.198)"/><path d="m337.068 241.653c-.317.306-1.129-.018-1.813-.726s-.983-1.529-.667-1.836 1.129.019 1.813.727.984 1.528.667 1.835z" transform="translate(287.723 1697.099)"/><path d="m339.3 240.3c-.427.086-.956-.8-.869-1.974s.735-1.974 1.145-1.828.51 1 .446 1.943-.282 1.777-.722 1.859z" transform="translate(287.807 1697.046)"/><path d="m341.2 242.213c.29.334.062 1.007-.451 1.563s-1.17.83-1.525.566-.224-1.028.355-1.651 1.337-.808 1.621-.478z" transform="translate(287.821 1697.165)"/><path d="m340.206 248.926c-.439-.013-.774-.68-.633-1.475s.683-1.306 1.1-1.168.587.776.471 1.446-.496 1.212-.938 1.197z" transform="translate(287.831 1697.254)"/><path d="m336.422 246.373a.659.659 0 1 1 -.611 1.161.682.682 0 1 1 .611-1.161z" transform="translate(287.74 1697.252)"/><path d="m342.934 234.85c.411.149.425 1.144-.137 2.139s-1.417 1.5-1.759 1.226-.12-1.136.369-2.008 1.11-1.507 1.527-1.357z" transform="translate(287.859 1697.011)"/><path d="m339.768 234.443c.025.439-.838.846-1.928.907s-1.992-.246-2.017-.686.838-.846 1.928-.907 1.993.243 2.017.686z" transform="translate(287.752 1696.989)"/><path d="m332.764 241.413c-.343.275-.95.09-1.353-.415s-.452-1.137-.108-1.411.95-.09 1.353.415.452 1.135.108 1.411z" transform="translate(287.651 1697.11)"/><path d="m326.439 244.789c-.3.314-1.306-.177-1.967-1.289s-.617-2.227-.2-2.344 1.017.613 1.569 1.527.911 1.788.598 2.106z" transform="translate(287.5 1697.145)"/><path d="m323.134 244.69c-.112.426-.745.628-1.411.452s-1.117-.665-1-1.091.745-.628 1.412-.452 1.111.665.999 1.091z" transform="translate(287.431 1697.196)"/><path d="m301.16 268.164c-.436-.063-.646-1.1-.47-2.314s.674-2.15 1.11-2.085.645 1.1.469 2.314-.669 2.148-1.109 2.085z" transform="translate(287.004 1697.626)"/><path d="m307.087 267.5c-.4.188-1.223-.73-1.841-2.049s-.8-2.54-.4-2.727 1.223.73 1.842 2.05.798 2.536.399 2.726z" transform="translate(287.089 1697.604)"/><path d="m312.3 263.838c-.291.336-1.413-.164-2.592-1.006s-2.012-1.746-1.789-2.129 1.473-.06 2.718.832 1.954 1.973 1.663 2.303z" transform="translate(287.158 1697.558)"/><path d="m304.308 257.686c.409.165.471.964.14 1.786s-.931 1.353-1.34 1.188-.471-.964-.14-1.785.932-1.354 1.34-1.189z" transform="translate(287.049 1697.496)"/><path d="m312.467 268.39c-.351.267-1.1-.127-1.665-.876s-.743-1.573-.392-1.839 1.1.127 1.665.876.743 1.574.392 1.839z" transform="translate(287.208 1697.665)"/><path d="m303.869 269.987c-.437.061-.87-.448-.968-1.139s.176-1.3.612-1.363.869.447.968 1.139-.181 1.301-.612 1.363z" transform="translate(287.051 1697.705)"/><path d="m320.529 262.085c-.112.426-1.523.5-3.149.162s-2.891-.964-2.825-1.4 1.475-.509 3.149-.162 2.938.974 2.825 1.4z" transform="translate(287.3 1697.556)"/><path d="m319.532 268.272c-.281.34-1.428-.142-2.561-1.076s-1.827-1.967-1.546-2.307 1.427.142 2.56 1.076 1.827 1.967 1.547 2.307z" transform="translate(287.317 1697.648)"/><path d="m325.123 266.5c-.131.421-1.091.5-2.144.17s-1.8-.934-1.67-1.355 1.09-.5 2.144-.169 1.8.934 1.67 1.354z" transform="translate(287.444 1697.652)"/><path d="m329.552 267.509c.022.445-.614.841-1.338 1.179-.732.323-1.448.542-1.769.232-.32-.3.078-1.216 1.109-1.684s1.986-.162 1.998.273z" transform="translate(287.551 1697.695)"/><path d="m328.147 263.8c-.216.385-1.056.323-1.878-.137s-1.314-1.146-1.1-1.531 1.056-.323 1.878.138 1.316 1.142 1.1 1.53z" transform="translate(287.525 1697.586)"/><path d="m332.679 263.3a1.447 1.447 0 0 1 -.3 1.362c-.309.431-.723.816-1.165.766s-.689-.881-.149-1.67 1.424-.846 1.614-.458z" transform="translate(287.645 1697.612)"/><path d="m337.377 266.8c.013.44-.828.824-1.881.857s-1.917-.3-1.93-.738.828-.824 1.881-.857 1.916.301 1.93.738z" transform="translate(287.704 1697.675)"/><path d="m338.034 264.323c-.174.4-1.006.435-1.86.068s-1.4-.993-1.229-1.4 1.007-.435 1.86-.067 1.404.994 1.229 1.399z" transform="translate(287.733 1697.603)"/><path d="m341.158 265.555c-.434-.058-.7-.727-.436-1.446s.9-1.055 1.269-.817a1.154 1.154 0 0 1 .228 1.37c-.202.538-.619.954-1.061.893z" transform="translate(287.854 1697.614)"/><path d="m315.861 224.731c.369-.242 1.179.339 1.811 1.3s.846 1.934.477 2.176-1.179-.339-1.81-1.3-.846-1.934-.478-2.176z" transform="translate(287.324 1696.796)"/><path d="m322.489 223.322c.371.238.059 1.389-.7 2.573s-1.67 1.951-2.042 1.714-.059-1.389.7-2.573 1.671-1.951 2.042-1.714z" transform="translate(287.407 1696.766)"/><path d="m326.131 227.71c.155.413-.59 1.074-1.664 1.478s-2.071.4-2.226-.016.59-1.073 1.665-1.477 2.071-.395 2.225.015z" transform="translate(287.463 1696.854)"/><path d="m325.149 234.776c-.26.351-1.23.076-2.076-.719s-1.19-1.74-.856-2.024 1.169.135 1.945.859 1.251 1.529.987 1.884z" transform="translate(287.46 1696.949)"/><path d="m319.323 237.6c-.422.1-1.042-1.011-.947-2.5s.845-2.517 1.249-2.362c.421.151.414 1.227.344 2.462-.084 1.233-.21 2.3-.646 2.4z" transform="translate(287.382 1696.966)"/><path d="m321.168 230.777c-.118.424-.813.6-1.55.393s-1.239-.719-1.119-1.144.813-.6 1.55-.392 1.238.719 1.119 1.143z" transform="translate(287.383 1696.899)"/><path d="m327.2 222.726c.355.252 0 1.356-1.007 2.267s-2.134 1.169-2.352.791.414-1.178 1.278-1.971 1.722-1.348 2.081-1.087z" transform="translate(287.496 1696.752)"/><path d="m318.418 220.117c.426-.1.965.67 1.02 1.735s-.4 1.885-.831 1.833-.71-.833-.762-1.748.14-1.722.573-1.82z" transform="translate(287.369 1696.698)"/><path d="m324.171 217.339c.426.1.549 1.111.116 2.2s-1.214 1.741-1.593 1.522-.274-1.136.109-2.11.937-1.715 1.368-1.612z" transform="translate(287.468 1696.639)"/><path d="m331.422 226.953c.043.438-.6.859-1.429.94s-1.539-.21-1.582-.65.6-.859 1.429-.939 1.54.211 1.582.649z" transform="translate(287.595 1696.829)"/><path d="m329.223 232.556c-.157.412-1.054.5-2 .186s-1.625-.907-1.508-1.332 1.012-.509 2-.186 1.666.92 1.508 1.332z" transform="translate(287.537 1696.93)"/><path d="m323.141 238.91c-.381.212-1.1-.354-1.39-1.346s.005-1.858.441-1.885.849.628 1.09 1.435.249 1.586-.141 1.796z" transform="translate(287.45 1697.029)"/><path d="m319.138 242.639c-.439.026-.832-.571-.876-1.333s.277-1.4.717-1.425.832.571.876 1.333-.277 1.4-.717 1.425z" transform="translate(287.379 1697.119)"/><path d="m329.058 240.734c-.4.185-1.1-.486-1.71-1.413s-.928-1.843-.6-2.137 1.26.229 1.934 1.268.774 2.103.376 2.282z" transform="translate(287.556 1697.059)"/><path d="m333.666 237.058c-.222.384-1.228.22-2.314-.223s-1.917-1.035-1.8-1.464 1.214-.5 2.409-.012 1.924 1.321 1.705 1.699z" transform="translate(287.619 1697.015)"/><path d="m333.945 232.452a1.385 1.385 0 0 1 -1.4-.11c-.478-.263-.9-.653-.876-1.1s.807-.744 1.624-.313 1.007 1.266.652 1.523z" transform="translate(287.664 1696.924)"/><path d="m320.977 213.6c.436.074.63 1.078.518 2.254s-.5 2.124-.94 2.113-.769-1.028-.648-2.266.637-2.172 1.07-2.101z" transform="translate(287.413 1696.56)"/><path d="m329.966 216.984c.328.294-.02 1.218-.779 2.064s-1.639 1.294-1.967 1 .02-1.217.779-2.063 1.639-1.294 1.967-1.001z" transform="translate(287.567 1696.63)"/><path d="m331.264 219.1a.717.717 0 1 1 -.212 1.048.757.757 0 0 1 .212-1.048z" transform="translate(287.648 1696.673)"/><path d="m307.379 216.134c-.142.415-1.267.4-2.462-.143s-1.939-1.39-1.718-1.768 1.264-.192 2.382.317 1.942 1.175 1.798 1.594z" transform="translate(287.058 1696.569)"/><path d="m302.462 224.64c-.407.16-1.031-.452-1.273-1.406s.009-1.79.444-1.844.883.6 1.1 1.45.142 1.637-.271 1.8z" transform="translate(287.014 1696.725)"/><path d="m308.635 220.913c-.331.29-1.133-.082-1.79-.83s-.923-1.593-.591-1.883 1.133.081 1.79.83.921 1.591.591 1.883z" transform="translate(287.12 1696.655)"/><path d="m305.735 207.963c.315.309-.255 1.4-1.272 2.428s-2.094 1.617-2.408 1.307.255-1.4 1.271-2.428 2.096-1.617 2.409-1.307z" transform="translate(287.032 1696.438)"/><path d="m301.1 206.106c.416.145.47 1.073.119 2.072s-.97 1.692-1.386 1.546-.47-1.073-.119-2.073.968-1.691 1.386-1.545z" transform="translate(286.979 1696.4)"/><path d="m301.291 213.606c.247.369-.118 1.045-.694 1.645s-1.246.982-1.623.748-.236-1.124.476-1.858 1.602-.901 1.841-.535z" transform="translate(286.964 1696.556)"/><path d="m299.52 212.578c-.4.172-.931-.177-.962-.807s.466-1.026.882-.893a.874.874 0 0 1 .08 1.7z" transform="translate(286.96 1696.501)"/><path d="m308.192 211.555c.061.436-.684.9-1.664 1.037s-1.824-.107-1.884-.543.684-.9 1.665-1.037 1.823.107 1.883.543z" transform="translate(287.089 1696.504)"/><path d="m304.933 204.159c.358.256.159 1.151-.444 2s-1.385 1.329-1.744 1.072-.159-1.15.444-2 1.385-1.331 1.744-1.072z" transform="translate(287.046 1696.358)"/><path d="m307.774 226.237c-.31.3-1.279-.2-1.851-1.315s-.419-2.195.009-2.27.947.653 1.41 1.541.758 1.736.432 2.044z" transform="translate(287.108 1696.753)"/><path d="m298.838 227.766c-.436.043-.86-.639-.787-1.521s.6-1.486 1.023-1.372.624.777.568 1.5-.363 1.35-.804 1.393z" transform="translate(286.949 1696.8)"/><path d="m304.71 227.642c-.129.422-.938.547-1.808.282s-1.471-.823-1.342-1.244.939-.547 1.809-.282 1.47.823 1.341 1.244z" transform="translate(287.023 1696.829)"/><path d="m312.066 225.621c-.329.293-1.15-.091-1.832-.858s-.971-1.627-.641-1.92 1.149.091 1.832.859.975 1.627.641 1.919z" transform="translate(287.192 1696.754)"/><path d="m313.816 213.773c.026.44-.933.853-2.142.922s-2.209-.231-2.233-.67.933-.853 2.142-.923 2.208.231 2.233.671z" transform="translate(287.191 1696.549)"/><path d="m311.488 206.211c.217.384-.4 1.142-1.382 1.693s-1.949.686-2.165.3.4-1.142 1.383-1.693 1.948-.684 2.164-.3z" transform="translate(287.159 1696.398)"/><path d="m302.809 202.227a1.153 1.153 0 1 1 -1.217.6.984.984 0 0 1 1.217-.6z" transform="translate(287.021 1696.317)"/><path d="m309.9 202.066c.319.3-.006 1.162-.726 1.915s-1.563 1.118-1.881.814.007-1.162.727-1.916 1.56-1.117 1.88-.813z" transform="translate(287.143 1696.312)"/><path d="m314.3 209.862c.083.433-.635.933-1.6 1.117s-1.82-.017-1.9-.45.636-.932 1.6-1.117 1.822.017 1.9.45z" transform="translate(287.22 1696.47)"/><path d="m314.913 220.213c-.252.364-1.188.152-2.144-.383s-1.624-1.226-1.444-1.63 1.2-.339 2.224.239 1.613 1.414 1.364 1.774z" transform="translate(287.231 1696.652)"/><path d="m340.689 227.572c-.132.421-1.243.446-2.481.056s-2.134-1.045-2-1.465 1.243-.445 2.482-.056 2.13 1.046 1.999 1.465z" transform="translate(287.76 1696.82)"/><path d="m341.006 231.721c-.292.33-1.073.116-1.744-.477s-.978-1.342-.686-1.672 1.072-.116 1.743.477.981 1.342.687 1.672z" transform="translate(287.808 1696.896)"/><path d="m341.711 222.2c.147.416-.793 1.187-2.1 1.722s-2.517.644-2.7.245.753-1.17 2.1-1.722 2.553-.665 2.7-.245z" transform="translate(287.775 1696.737)"/><path d="m343.393 224.987c.012.44-.606.814-1.38.835s-1.412-.32-1.424-.76.606-.815 1.38-.835 1.413.319 1.424.76z" transform="translate(287.853 1696.786)"/><path d="m345.385 230.544c-.413.176-1.012-.293-1.666-.774-.637-.5-1.246-.96-1.186-1.4.041-.212.3-.375.711-.385a2.541 2.541 0 0 1 2.324 1.776c.099.396.01.687-.183.783z" transform="translate(287.895 1696.866)"/><path d="m345.42 234.646c-.347.272-1.152-.178-1.8-1s-.888-1.715-.541-1.986 1.152.178 1.8 1 .888 1.714.541 1.986z" transform="translate(287.903 1696.942)"/><path d="m329.6 222.728c.218-.383 1.436-.1 2.722.63s2.152 1.633 1.934 2.016-1.437.1-2.723-.629-2.153-1.634-1.933-2.017z" transform="translate(287.619 1696.75)"/><path d="m334.654 216.479c.44-.022.859 1.215.936 2.764s-.217 2.822-.657 2.843-.859-1.215-.936-2.764.217-2.822.657-2.843z" transform="translate(287.713 1696.621)"/><path d="m341.131 217.59c.271.348-.3 1.242-1.266 2s-1.975 1.085-2.246.737.3-1.242 1.266-2 1.975-1.084 2.246-.737z" transform="translate(287.789 1696.641)"/><path d="m347.446 218.918c.105.428-.816 1.02-2.057 1.323s-2.331.2-2.435-.227.816-1.02 2.057-1.324 2.33-.2 2.435.228z" transform="translate(287.904 1696.664)"/><path d="m349.2 224.054c-.128.422-1.093.5-2.155.181s-1.819-.925-1.691-1.347 1.093-.5 2.155-.18 1.815.925 1.691 1.346z" transform="translate(287.955 1696.749)"/><path d="m353.278 220c.065.436-.614.9-1.516 1.034s-1.687-.108-1.753-.544.614-.9 1.517-1.034 1.687.111 1.752.544z" transform="translate(288.053 1696.683)"/><path d="m350.9 225.821c.182.4-.331 1.019-1.193 1.219s-1.6-.128-1.611-.565.553-.823 1.248-.989 1.372-.07 1.556.335z" transform="translate(288.013 1696.811)"/><path d="m352.968 225.13c-.416.137-.954-.378-.988-1.175s.46-1.355.885-1.254.68.626.709 1.188a1.191 1.191 0 0 1 -.606 1.241z" transform="translate(288.096 1696.753)"/><path d="m350.191 213.91c.433.081.616 1.046.409 2.156s-.727 1.942-1.16 1.862-.616-1.046-.408-2.156.726-1.943 1.159-1.862z" transform="translate(288.031 1696.566)"/><path d="m353.947 217.084c-.439-.043-.733-.7-.659-1.479s.492-1.368.93-1.326.733.7.658 1.48-.491 1.368-.929 1.325z" transform="translate(288.123 1696.574)"/><path d="m356.6 221.215c-.438.054-.88-.614-.989-1.49s.158-1.631.6-1.685.879.613.988 1.489-.163 1.632-.599 1.686z" transform="translate(288.173 1696.654)"/><path d="m299.185 223.486c-.438.016-.846-1.38-.791-3.116s.543-3.107.979-3.063.665 1.433.615 3.111-.36 3.051-.803 3.068z" transform="translate(286.957 1696.639)"/><path d="m304.168 220.96c-.371.237-1.316-.582-2.112-1.829s-1.138-2.449-.766-2.686 1.316.582 2.112 1.829 1.138 2.449.766 2.686z" transform="translate(287.015 1696.62)"/><path d="m336.972 232.567c-.384.214-1.335-.754-2.123-2.163s-1.115-2.726-.73-2.941 1.335.753 2.123 2.163 1.115 2.725.73 2.941z" transform="translate(287.712 1696.854)"/></g><path d="m313.94 211.037c.088 0 .208 3.864.27 8.633s.038 8.636-.05 8.638-.208-3.864-.27-8.634-.039-8.636.05-8.637z" fill="#263238" transform="translate(287.285 1696.505)"/><path d="m315.113 214.088a84.254 84.254 0 0 1 -.926 3.08 4.412 4.412 0 0 1 .926-3.08z" fill="#263238" transform="translate(287.291 1696.57)"/><path d="m333.513 197.185a.864.864 0 0 1 .085.262 5.245 5.245 0 0 1 .142.78 7.39 7.39 0 0 1 -.283 2.9 7.7 7.7 0 0 1 -2.351 3.612 7.6 7.6 0 0 1 -9.854-.252 7.7 7.7 0 0 1 -2.163-3.728 7.393 7.393 0 0 1 -.135-2.909 5.253 5.253 0 0 1 .182-.771.918.918 0 0 1 .1-.258 8.45 8.45 0 0 0 .074 3.881 7.62 7.62 0 0 0 2.144 3.569 7.384 7.384 0 0 0 9.466.242 7.613 7.613 0 0 0 2.324-3.454 8.457 8.457 0 0 0 .269-3.874z" fill="#263238" transform="translate(287.391 1696.203)"/><path d="m341.825 217.1a6.526 6.526 0 0 1 .69 1.232l1.524 3.034 1.534 3.029a6.571 6.571 0 0 1 .581 1.288 5.933 5.933 0 0 1 -.779-1.18c-.441-.752-1.021-1.807-1.621-2.993s-1.1-2.28-1.443-3.082a5.97 5.97 0 0 1 -.486-1.328z" fill="#263238" transform="translate(287.879 1696.634)"/><path d="m373.933 429.058-1.656-9.243-17.335 2.993 2.281 13.548 1.087-.116c4.829-.56 24.514-3.189 27.544-4.71 3.38-1.697-11.921-2.472-11.921-2.472z" fill="#e8505b" transform="translate(288.158 1700.944)"/><path d="m363.455 434.9a6.1 6.1 0 0 0 -2.85-3.314 5.924 5.924 0 0 0 -4.269-.561l.832 4.845z" fill="#e8505b" transform="translate(288.188 1701.179)"/><path d="m381.407 429.488s5.419.6 4.921 1.558-20.29 4.367-29.152 5.1l-.04-.391 23.121-3.776s.148-2.279 1.15-2.491z" fill="#e8505b" transform="translate(288.205 1701.15)"/><path d="m356.869 435.769a1.687 1.687 0 0 0 .3-.019l.865-.095 3.174-.406c2.678-.363 6.371-.912 10.435-1.607s7.73-1.407 10.376-1.957l3.128-.673.848-.2a1.578 1.578 0 0 0 .292-.083 1.642 1.642 0 0 0 -.3.041l-.856.158-3.14.607c-2.652.512-6.32 1.2-10.383 1.9s-7.748 1.267-10.42 1.668l-3.164.473-.859.136a1.612 1.612 0 0 0 -.296.057z" fill="#263238" transform="translate(288.199 1701.176)"/><path d="m379.82 432.258a4.65 4.65 0 0 1 1.2-3 2.842 2.842 0 0 0 -1.2 3z" fill="#263238" transform="translate(288.685 1701.145)"/><path d="m374.372 430.55c.055.022.248-.318.432-.759a1.857 1.857 0 0 0 .236-.841c-.054-.022-.248.318-.432.759a1.857 1.857 0 0 0 -.236.841z" fill="#263238" transform="translate(288.571 1701.138)"/><path d="m372.873 430.051c.046.036.288-.193.54-.513s.42-.609.374-.645-.288.193-.54.513-.42.608-.374.645z" fill="#263238" transform="translate(288.539 1701.137)"/><path d="m371.728 428.581a4 4 0 1 0 .891-.251 2.08 2.08 0 0 0 -.891.251z" fill="#263238" transform="translate(288.515 1701.123)"/><path d="m371.236 427.5a2.584 2.584 0 0 0 2.077-.2 5.764 5.764 0 0 0 -1.038.106 5.593 5.593 0 0 0 -1.039.094z" fill="#263238" transform="translate(288.504 1701.103)"/><path d="m374.693 428.978a3.254 3.254 0 0 0 1.113-.2 6.639 6.639 0 0 0 1.141-.466 3.285 3.285 0 0 0 .631-.4.617.617 0 0 0 .217-.394.444.444 0 0 0 -.246-.416 2.074 2.074 0 0 0 -2.423 1.031 2.01 2.01 0 0 0 -.235.806.632.632 0 0 0 .022.306 3.2 3.2 0 0 1 .344-1.038 2.04 2.04 0 0 1 .845-.782 1.758 1.758 0 0 1 1.344-.138c.2.1.166.321-.01.472a3.436 3.436 0 0 1 -.58.375 7.839 7.839 0 0 1 -1.1.5c-.644.236-1.069.31-1.063.344z" fill="#263238" transform="translate(288.578 1701.097)"/><path d="m375.022 428.984a1.11 1.11 0 0 0 0-.8 1.856 1.856 0 0 0 -.444-.762 1.135 1.135 0 0 0 -1.025-.409.45.45 0 0 0 -.254.574 1.216 1.216 0 0 0 .275.465 3.379 3.379 0 0 0 .641.583 1.636 1.636 0 0 0 .716.342c.014-.031-.256-.162-.625-.462a3.972 3.972 0 0 1 -.581-.588c-.193-.209-.371-.614-.1-.713.275-.075.607.153.815.346a1.878 1.878 0 0 1 .44.67 3.992 3.992 0 0 1 .142.754z" fill="#263238" transform="translate(288.547 1701.096)"/><path d="m356.417 430.967c.01.038.488-.133 1.288-.176a5.509 5.509 0 0 1 5.162 2.838c.393.7.5 1.193.542 1.182a.99.99 0 0 0 -.059-.35 4.573 4.573 0 0 0 -.35-.9 5.344 5.344 0 0 0 -5.306-2.918 4.568 4.568 0 0 0 -.95.189.992.992 0 0 0 -.327.135z" fill="#263238" transform="translate(288.189 1701.174)"/><path d="m356.961 423.593a61.086 61.086 0 0 0 1.135 7.14 30.61 30.61 0 0 0 -.462-3.587 31 31 0 0 0 -.673-3.553z" fill="#263238" transform="translate(288.201 1701.024)"/><path d="m365.158 432.811a14.442 14.442 0 0 0 5.075-.823c-.016-.06-1.137.2-2.535.429s-2.543.333-2.54.394z" fill="#263238" transform="translate(288.375 1701.203)"/><path d="m361.83 433.362c-.035.049.135.224.294.464s.263.459.323.445.042-.29-.146-.565-.44-.393-.471-.344z" fill="#263238" transform="translate(288.304 1701.232)"/><path d="m360.308 432.017c-.034.048.109.209.32.359s.409.235.443.187-.108-.208-.32-.359-.408-.235-.443-.187z" fill="#263238" transform="translate(288.272 1701.203)"/><path d="m358.391 431.616c.022.056.252.014.523.06s.477.15.516.1-.148-.261-.483-.314-.583.103-.556.154z" fill="#263238" transform="translate(288.231 1701.191)"/><path d="m357.056 431.5c-.011.057.1.13.257.16s.287.009.3-.048-.1-.13-.256-.16-.289-.013-.301.048z" fill="#263238" transform="translate(288.203 1701.191)"/><path d="m356.483 273.794s55.809 9.349 51.414 26.171c-4.354 16.667-37.359 57.185-37.359 57.185l-20.882-13.219s30.863-38.309 29.681-39.575-43.441-10.4-43.441-10.4l-9.424-24.156z" fill="#6b6f92" transform="translate(287.553 1697.754)"/><path d="m341.908 290.16c-.027.145-.386.2-.8.119s-.73-.258-.7-.4.386-.2.8-.12.728.257.7.401z" fill="#263238" transform="translate(287.849 1698.178)"/><path d="m347.664 291.308c-.03.144-.708.127-1.513-.038s-1.436-.415-1.407-.559.706-.127 1.513.038 1.437.415 1.407.559z" fill="#263238" transform="translate(287.942 1698.197)"/><path d="m353.369 292.55c-.033.143-.71.115-1.513-.063s-1.429-.439-1.4-.583.709-.115 1.514.063 1.43.44 1.399.583z" fill="#263238" transform="translate(288.063 1698.222)"/><path d="m359.05 293.891c-.035.142-.711.1-1.51-.09s-1.422-.464-1.388-.607.711-.1 1.511.089 1.423.465 1.387.608z" fill="#263238" transform="translate(288.184 1698.25)"/><path d="m364.709 295.329c-.038.142-.714.09-1.509-.115s-1.413-.488-1.377-.631.712-.091 1.509.116 1.414.488 1.377.63z" fill="#263238" transform="translate(288.305 1698.28)"/><path d="m370.342 296.865c-.041.141-.715.078-1.507-.142s-1.4-.513-1.365-.655.713-.078 1.507.142 1.405.514 1.365.655z" fill="#263238" transform="translate(288.425 1698.31)"/><path d="m375.947 298.5c-.043.141-.716.065-1.505-.167s-1.394-.537-1.353-.678.714-.066 1.5.168 1.399.534 1.358.677z" fill="#263238" transform="translate(288.544 1698.345)"/><path d="m381.522 300.228c-.044.139-.717.053-1.5-.194s-1.386-.561-1.342-.7.715-.053 1.5.194 1.387.559 1.342.7z" fill="#263238" transform="translate(288.663 1698.38)"/><path d="m382.913 304.525c-.137-.092.237-.687.571-1.359.364-.673.168-1.259.329-1.337.066-.03.173.113.289.4a1.653 1.653 0 0 1 -.134 1.155c-.407.808-.953 1.216-1.055 1.141z" fill="#263238" transform="translate(288.752 1698.435)"/><path d="m379.453 309.222c-.118-.087.181-.7.669-1.358s.979-1.131 1.1-1.043-.182.694-.67 1.358-.982 1.13-1.099 1.043z" fill="#263238" transform="translate(288.679 1698.541)"/><path d="m375.993 313.924c-.118-.087.181-.694.669-1.358s.979-1.13 1.1-1.043-.182.7-.67 1.358-.981 1.13-1.099 1.043z" fill="#263238" transform="translate(288.605 1698.641)"/><path d="m372.533 318.626c-.119-.087.182-.7.669-1.357s.979-1.131 1.1-1.044-.182.7-.669 1.358-.982 1.13-1.1 1.043z" fill="#263238" transform="translate(288.532 1698.741)"/><path d="m369.074 323.327c-.118-.087.182-.694.669-1.357s.979-1.131 1.1-1.043-.182.694-.669 1.357-.982 1.13-1.1 1.043z" fill="#263238" transform="translate(288.458 1698.84)"/><path d="m365.616 328.028c-.118-.088.181-.7.668-1.358s.979-1.13 1.1-1.043-.182.7-.669 1.358-.982 1.13-1.099 1.043z" fill="#263238" transform="translate(288.385 1698.941)"/><path d="m362.157 332.729c-.118-.088.181-.7.669-1.358s.978-1.129 1.1-1.043-.181.694-.669 1.358-.983 1.13-1.1 1.043z" fill="#263238" transform="translate(288.311 1699.04)"/><path d="m358.7 337.43c-.118-.087.182-.694.669-1.357s.979-1.131 1.1-1.044-.182.7-.669 1.358-.985 1.131-1.1 1.043z" fill="#263238" transform="translate(288.238 1699.14)"/><path d="m356.077 340.967c-.118-.087-.01-.434.24-.775s.55-.546.668-.459.011.433-.239.774-.546.547-.669.46z" fill="#263238" transform="translate(288.182 1699.241)"/><path d="m385.332 301.264a27.568 27.568 0 0 1 -7.238 2.461 27.667 27.667 0 0 1 7.238-2.461z" fill="#263238" transform="translate(288.651 1698.422)"/><path d="m386.042 303.138a21.226 21.226 0 0 1 -8.233.68 67.743 67.743 0 0 1 8.233-.68z" fill="#263238" transform="translate(288.644 1698.461)"/><path d="m370.256 357.176-12.569-8.125s-1.051-10.377-3.412-13.043l19.973 16.075z" fill="#313450" transform="translate(288.144 1699.162)"/><path d="m297.964 272.045s-3.421 10.925 7.625 27.417l37.193 57.545 8.421 74.739 27.578-2.456-9.332-82.809-39.185-73.414z" fill="#6b6f92" transform="translate(286.936 1697.802)"/><path d="m300.807 274.081c-.146.008-.264-.337-.262-.771s.123-.773.269-.758.264.361.262.771-.121.75-.269.758z" fill="#263238" transform="translate(287.002 1697.812)"/><path d="m301.755 280.056c-.142.038-.4-.613-.577-1.452s-.2-1.538-.055-1.561.4.628.576 1.452.201 1.523.056 1.561z" fill="#263238" transform="translate(287.012 1697.908)"/><path d="m303.7 285.76c-.135.058-.491-.544-.8-1.345s-.437-1.487-.3-1.533.5.556.8 1.345.432 1.473.3 1.533z" fill="#263238" transform="translate(287.045 1698.032)"/><path d="m306.386 291.15c-.127.075-.569-.47-.988-1.216-.4-.758-.6-1.428-.47-1.492s.548.493.94 1.242c.412.735.644 1.392.518 1.466z" fill="#263238" transform="translate(287.094 1698.15)"/><path d="m309.569 296.269c-.124.08-.593-.438-1.05-1.157s-.726-1.364-.6-1.442.6.44 1.05 1.157.723 1.363.6 1.442z" fill="#263238" transform="translate(287.158 1698.262)"/><path d="m312.872 301.31c-.123.081-.6-.428-1.069-1.138s-.749-1.35-.626-1.431.6.429 1.07 1.138.747 1.349.625 1.431z" fill="#263238" transform="translate(287.227 1698.369)"/><path d="m316.23 306.324c-.123.082-.606-.425-1.081-1.131s-.761-1.346-.639-1.428.606.424 1.08 1.131.762 1.346.64 1.428z" fill="#263238" transform="translate(287.298 1698.475)"/><path d="m319.616 311.322c-.122.083-.608-.422-1.086-1.125s-.767-1.343-.645-1.426.607.422 1.086 1.126.766 1.343.645 1.425z" fill="#263238" transform="translate(287.37 1698.583)"/><path d="m323.016 316.309c-.122.083-.609-.42-1.089-1.122s-.77-1.34-.648-1.423.609.42 1.088 1.122.77 1.34.649 1.423z" fill="#263238" transform="translate(287.442 1698.689)"/><path d="m326.421 321.286c-.121.083-.609-.419-1.09-1.12s-.772-1.339-.651-1.422.609.419 1.09 1.12.772 1.336.651 1.422z" fill="#263238" transform="translate(287.515 1698.794)"/><path d="m329.83 326.263c-.122.083-.61-.419-1.09-1.12s-.772-1.338-.651-1.422.609.419 1.09 1.12.771 1.338.651 1.422z" fill="#263238" transform="translate(287.587 1698.9)"/><path d="m333.235 331.242c-.122.083-.609-.42-1.089-1.122s-.771-1.338-.65-1.422.609.42 1.089 1.122.771 1.338.65 1.422z" fill="#263238" transform="translate(287.659 1699.006)"/><path d="m336.63 336.229c-.121.083-.608-.421-1.087-1.124s-.767-1.342-.645-1.424.608.421 1.086 1.124.767 1.342.646 1.424z" fill="#263238" transform="translate(287.732 1699.112)"/><path d="m340 341.234c-.123.082-.606-.425-1.081-1.132s-.761-1.346-.638-1.428.606.425 1.079 1.132.764 1.347.64 1.428z" fill="#263238" transform="translate(287.804 1699.218)"/><path d="m343.32 346.274c-.124.079-.6-.433-1.064-1.145s-.742-1.354-.62-1.435.6.431 1.065 1.144.742 1.356.619 1.436z" fill="#263238" transform="translate(287.875 1699.324)"/><path d="m346.349 351.489c-.124.027-.472-.521-.9-1.255s-.68-1.382-.554-1.458.591.448 1.016 1.2.604 1.472.438 1.513z" fill="#263238" transform="translate(287.944 1699.433)"/><path d="m347.054 357.476c-.146.016-.341-.656-.436-1.5s-.054-1.541.092-1.558.341.654.436 1.5.054 1.541-.092 1.558z" fill="#263238" transform="translate(287.98 1699.553)"/><path d="m347.7 363.465c-.146.015-.338-.657-.428-1.5s-.046-1.542.1-1.558.337.657.428 1.5.047 1.542-.1 1.558z" fill="#263238" transform="translate(287.994 1699.68)"/><path d="m348.332 369.459c-.146.015-.336-.657-.425-1.5s-.042-1.543.1-1.558.336.658.425 1.5.046 1.543-.1 1.558z" fill="#263238" transform="translate(288.008 1699.807)"/><path d="m348.955 375.455c-.146.015-.335-.659-.423-1.5s-.041-1.545.105-1.56.336.659.424 1.505.039 1.54-.106 1.555z" fill="#263238" transform="translate(288.021 1699.935)"/><path d="m349.573 381.457c-.146.015-.335-.659-.422-1.505s-.039-1.544.107-1.559.335.659.422 1.505.039 1.543-.107 1.559z" fill="#263238" transform="translate(288.034 1700.062)"/><path d="m350.187 387.451c-.146.015-.335-.658-.422-1.5s-.038-1.543.108-1.558.335.659.421 1.5.039 1.543-.107 1.558z" fill="#263238" transform="translate(288.048 1700.19)"/><path d="m350.8 393.455c-.146.014-.335-.66-.421-1.506s-.038-1.546.109-1.56.334.66.42 1.506.036 1.545-.108 1.56z" fill="#263238" transform="translate(288.061 1700.317)"/><path d="m351.406 399.456c-.146.014-.334-.66-.42-1.505s-.037-1.545.109-1.559.334.659.42 1.505.037 1.544-.109 1.559z" fill="#263238" transform="translate(288.073 1700.445)"/><path d="m352.013 405.457c-.146.015-.334-.659-.42-1.505s-.036-1.544.11-1.559.334.66.419 1.506.037 1.544-.109 1.558z" fill="#263238" transform="translate(288.087 1700.573)"/><path d="m352.618 411.459c-.147.015-.334-.659-.42-1.505s-.036-1.544.11-1.559.334.66.42 1.506.036 1.544-.11 1.558z" fill="#263238" transform="translate(288.1 1700.7)"/><path d="m353.221 417.464c-.146.015-.334-.66-.419-1.506s-.036-1.545.11-1.559.334.66.419 1.506.036 1.545-.11 1.559z" fill="#263238" transform="translate(288.112 1700.828)"/><path d="m353.822 423.471c-.146.014-.333-.661-.418-1.506s-.035-1.545.111-1.559.333.66.418 1.506.035 1.544-.111 1.559z" fill="#263238" transform="translate(288.124 1700.956)"/><path d="m354.27 427.946c-.146.014-.3-.315-.341-.734s.043-.772.189-.786.3.314.34.734-.042.771-.188.786z" fill="#263238" transform="translate(288.136 1701.083)"/><path d="m369.121 354.076c-.1.009-.234-1.489-.639-3.877a45.6 45.6 0 0 0 -2.489-9.084 52.86 52.86 0 0 0 -4.33-8.379 36.1 36.1 0 0 1 -2.022-3.373 4.013 4.013 0 0 1 .679.814c.406.545.983 1.343 1.659 2.356a44.087 44.087 0 0 1 4.509 8.387 39.093 39.093 0 0 1 2.366 9.224c.149 1.21.244 2.192.267 2.873a4.038 4.038 0 0 1 0 1.059z" fill="#263238" transform="translate(288.258 1699.02)"/><path d="m348.6 424.539.832 4.885 29.1-3.326-.837-5.821z" fill="#313450" transform="translate(288.024 1700.954)"/><path d="m333.348 269.937a10.287 10.287 0 0 1 -.06 1.928c-.085 1.222-.228 2.968-.416 5.061l-.009-.09a50.034 50.034 0 0 0 2.848 6.617c1.766 3.508 3.467 6.643 4.59 8.971.564 1.162 1 2.114 1.277 2.781a4.663 4.663 0 0 1 .378 1.06 4.547 4.547 0 0 1 -.566-.971l-1.424-2.7c-1.205-2.277-2.957-5.379-4.73-8.9a43.738 43.738 0 0 1 -2.809-6.719l-.014-.047.005-.044c.235-2.089.443-3.828.606-5.042a10.209 10.209 0 0 1 .324-1.905z" fill="#263238" transform="translate(287.679 1697.757)"/><path d="m369.62 259.381c-.147-2.207-5.642-4.038-7.859-4.689l.037-.04-.706-.15c-.149-.041-.252-.067-.252-.067l-.009.011-42.231-9.01-4.709-16.477h-15.259c.381.763 3.5 27.893 11.7 29.8s43.27 4.765 43.27 4.765 1.122.119 2.616.27c0 .026-.014.043-.014.068 0 1.432 1.523 1.575 3.16 1.64 4.051.161 5.231-1.582 5.231-1.582a9.824 9.824 0 0 0 2.249-2.75s.919 2.782 1.3 4.429c.542 2.356 1.48 2.073 1.48 2.073s.101-6.721-.004-8.291z" fill="#ffbe9d" transform="translate(286.961 1696.886)"/><path d="m361.326 263.667a19.044 19.044 0 0 1 -6.321-.53 19.044 19.044 0 0 1 6.321.53z" fill="#eb996e" transform="translate(288.159 1697.61)"/><path d="m362.376 261.808c0-.04.148-.092.4-.05a1.066 1.066 0 0 1 .775.593.864.864 0 0 1 -.142.977c-.193.189-.375.184-.381.146s.106-.116.2-.287a.736.736 0 0 0 .03-.7c-.264-.551-.906-.587-.882-.679z" fill="#eb996e" transform="translate(288.316 1697.583)"/><path d="m363.981 259.89c-.023-.1.665-.066.959.628.257.709-.227 1.2-.275 1.113-.074-.044.176-.493-.022-1s-.685-.659-.662-.741z" fill="#eb996e" transform="translate(288.35 1697.543)"/><path d="m361.194 254.538 4.106-7.338c.592-.125.91.04 1.061.379l-3.942 7.368z" fill="#455a64" transform="translate(288.291 1697.273)"/><path d="m356.644 263.136-1.644 3.064v1.6l1.64-1.121 1.86-3.279z" fill="#455a64" transform="translate(288.159 1697.612)"/><path d="m305.922 168.756a2.087 2.087 0 0 1 -.587-.811 5.456 5.456 0 0 1 -.546-2.679 7.607 7.607 0 0 1 1.332-3.83 8.294 8.294 0 0 1 3.8-3.19 6.076 6.076 0 0 1 4.949.136 4.857 4.857 0 0 1 2.572 3.126 4.188 4.188 0 0 1 -.247 2.725 1.842 1.842 0 0 1 -.581.816c-.04-.028.184-.307.389-.894a4.231 4.231 0 0 0 .075-2.552 4.544 4.544 0 0 0 -2.425-2.782 5.682 5.682 0 0 0 -4.537-.08 8.024 8.024 0 0 0 -3.59 2.969 7.513 7.513 0 0 0 -1.363 3.58 5.789 5.789 0 0 0 .361 2.571c.23.579.433.87.398.895z" fill="#263238" transform="translate(287.092 1695.373)"/><path d="m333.519 200.17c.077-4.137.229-8.49.229-8.49s4.992-.684 6.133-7.6c1.088-6.593.306-21.949.306-21.949a17.594 17.594 0 0 0 -20.842 4.258l-.106 33.622a7.14 7.14 0 0 0 7.015 7.162 7.139 7.139 0 0 0 7.265-7.003z" fill="#ffbe9d" transform="translate(287.4 1695.428)"/><path d="m333.626 191.088a15.927 15.927 0 0 1 -8.659-2.834s2.035 4.861 8.546 4.473z" fill="#eb996e" transform="translate(287.522 1696.021)"/><path d="m323.133 161.688c2.239 4.026 8.38 8.339 12.843 9.478-.5-.824-3.192-2.922-3.69-3.747 1.978 1.856 4.814 4.346 7.512 4.628a1.431 1.431 0 0 0 .934-.126 1.537 1.537 0 0 0 .513-1.158 36.325 36.325 0 0 0 .043-6.813 8.017 8.017 0 0 0 -2.174-4.961c-1.68-1.628-4.145-2.123-6.479-2.295a12.909 12.909 0 0 0 -5.8.637 5.9 5.9 0 0 0 -3.732 4.222" fill="#263238" transform="translate(287.482 1695.349)"/><path d="m324.782 162.472s1.985 7.881-3.069 13.055c0 0-.673 7.4-4.187 10.89 0 0-1.829-9.025-1.889-12.514s-1.624-16.3 9.867-14.8z" fill="#263238" transform="translate(287.321 1695.399)"/><path d="m317.174 168.069a6.059 6.059 0 0 0 -1-6.3 7.162 7.162 0 0 0 -6.052-2.32 8.78 8.78 0 0 0 -5.762 3.15 7.231 7.231 0 0 0 -1.83 4.785 6.466 6.466 0 0 0 3.877 5.467 8.5 8.5 0 0 0 6.854-.177 12.54 12.54 0 0 0 5.192-4.65" fill="#263238" transform="translate(287.044 1695.407)"/><path d="m309.166 162.6-3.307-6.5v-1.2l1.119.6 3.381 6.545z" fill="#e8505b" transform="translate(287.115 1695.312)"/><path d="m311.387 162.024c-.03-.092 0-7.736 0-7.736a.713.713 0 0 1 .734-.55.644.644 0 0 1 .612.581v7.859z" fill="#e8505b" transform="translate(287.233 1695.287)"/><path d="m311.387 162.024c-.03-.092 0-7.736 0-7.736a.713.713 0 0 1 .734-.55.644.644 0 0 1 .612.581v7.859z" opacity=".3" transform="translate(287.233 1695.287)"/><path d="m311.733 162.053-.023-7.812h.5v7.867z" fill="#e8505b" transform="translate(287.239 1695.297)"/><path d="m311.387 154.288 1.346.031s-.065-.623-.609-.624a.731.731 0 0 0 -.737.593z" fill="#455a64" transform="translate(287.233 1695.286)"/><path d="m305.859 156.089a.556.556 0 0 0 .415.04c.188-.081.2-.339.2-.339s.347.1.481 0 .027-.305.027-.305l-.785-.42-.333.183z" fill="#455a64" transform="translate(287.115 1695.315)"/><path d="m316.1 164.344a3.488 3.488 0 0 1 .485 1.208 7.729 7.729 0 0 1 .07 3.555 7.472 7.472 0 0 1 -2.836 4.43 7.273 7.273 0 0 1 -9.269-.351 6.858 6.858 0 0 1 -1.781-2.625 6.735 6.735 0 0 1 .142-5.248 8.732 8.732 0 0 1 2.156-2.828 4.078 4.078 0 0 1 1.051-.764 12.123 12.123 0 0 1 -.908.914 9.4 9.4 0 0 0 -1.955 2.829 6.52 6.52 0 0 0 4.429 8.819 6.839 6.839 0 0 0 5.843-1.139 7.214 7.214 0 0 0 2.761-4.122 8.176 8.176 0 0 0 .095-3.425c-.151-.807-.323-1.237-.283-1.253z" fill="#263238" transform="translate(287.04 1695.457)"/><path d="m331.082 167.656c.066.005-.182.65-1.119.9a2.666 2.666 0 0 1 -1.613-.109 5.343 5.343 0 0 1 -1.634-1.036 8.049 8.049 0 0 1 -2.043-2.765 2.706 2.706 0 0 1 -.363-1.376 14.935 14.935 0 0 0 2.756 3.741 3.587 3.587 0 0 0 2.819 1.176 3.316 3.316 0 0 0 1.197-.531z" fill="#263238" transform="translate(287.507 1695.49)"/><path d="m321.821 175.084a3.856 3.856 0 0 0 -2.091.076 2.7 2.7 0 0 0 -1.566 1.344 2.824 2.824 0 0 0 -.076 2.072 4.791 4.791 0 0 0 1.134 1.776 3.233 3.233 0 0 0 1.236.869 1.541 1.541 0 0 0 1.449-.184" fill="#ffbe9d" transform="translate(287.372 1695.739)"/><path d="m321.292 179.256c.079.029-.234.439-.863.251a1.366 1.366 0 0 1 -.765-.706 3.105 3.105 0 0 1 -.314-1.16 1.816 1.816 0 0 1 .327-1.212 1.208 1.208 0 0 1 .926-.513c.653 0 .842.461.767.472-.053.051-.3-.188-.729-.1a1.169 1.169 0 0 0 -.76 1.318 1.931 1.931 0 0 0 .689 1.549c.39.216.68.045.722.101z" fill="#eb996e" transform="translate(287.402 1695.758)"/><path d="m315.018 169.963a5.707 5.707 0 0 1 1.284-6.315 25.574 25.574 0 0 0 -1.1 3.066 25.31 25.31 0 0 0 -.184 3.249z" fill="#263238" transform="translate(287.3 1695.497)"/><path d="m331.524 269.82 1.139-1.168h28.272l.89 1.313z" fill="#455a64" transform="translate(287.661 1697.729)"/><path d="m231.346 272.423 35.948 165.27h4.2l-36.415-165.27z" fill="#313450" transform="translate(285.531 1697.81)"/><path d="m268.227 272.423-36.882 165.27h3.606l36.549-165.27h-3.268" fill="#313450" transform="translate(285.531 1697.81)"/><path d="m238.129 412.848h25.906v-3.358h-24.791z" fill="#313450" transform="translate(285.676 1700.724)"/><path d="m440.567 272.423 35.948 165.752h4.2l-36.415-165.752z" fill="#313450" transform="translate(289.979 1697.81)"/><path d="m477.449 272.423-36.882 165.751h3.606l36.543-165.752h-3.268" fill="#313450" transform="translate(289.979 1697.81)"/><path d="m447.351 413.258h25.906v-3.368h-24.792z" fill="#313450" transform="translate(290.123 1700.733)"/><path d="m444.931 227.618-14.74 43.075h-66.745l.492-2.218 26.989-.834 12.434-40.041z" fill="#263238" transform="translate(288.339 1696.857)"/><path d="m414.277 247.483c-.441 1.765.316 3.493 1.688 3.86s2.844-.766 3.284-2.531-.316-3.494-1.688-3.861-2.844.766-3.284 2.532z" fill="#fff" transform="translate(289.417 1697.224)"/><path d="m417.132 256.62 1.374 3.587 13.661-6.564-1.3-3.587z" fill="#fff" transform="translate(289.481 1697.334)"/><path d="m418.178 256.93.9 1.987 12.063-5.63-.662-2.46z" fill="#455a64" transform="translate(289.503 1697.351)"/><path d="m431.229 237.18a4.34 4.34 0 1 1 -4.34-4.34 4.34 4.34 0 0 1 4.34 4.34z" fill="#fff" transform="translate(289.596 1696.968)"/><path d="m426.119 233.684a3.585 3.585 0 0 0 -2.614 3.506 3.87 3.87 0 0 0 2.741 3.474 2.954 2.954 0 0 0 2.1-.112 3.388 3.388 0 0 0 1.447-1.583 4.3 4.3 0 0 0 .44-2.853 3.278 3.278 0 0 0 -5.078-1.941" fill="#e8505b" transform="translate(289.616 1696.984)"/><path d="m402.177 255.11 4.173-1.839 2.891 2.276-2.109 5.105-5.354-2.152z" fill="#fff" transform="translate(289.155 1697.403)"/><path d="m402.532 255.491 3.685-1.717 2.368 1.992-1.751 4.239-4.544-1.728z" fill="#e8505b" transform="translate(289.166 1697.413)"/><path d="m496.559 1967.55h291.696v5.88h-291.696z" fill="#313450"/><path d="m461.637 250.36a19.569 19.569 0 0 1 -5.352-12.374c-.115-2.2.218-4.58 1.714-6.2a5.466 5.466 0 0 1 7.577-.139c2.031 2.04 2.053 5.32 1.54 8.152-.761 4.21-2.886 7.325-5.286 10.866" fill="#e8505b" transform="translate(290.313 1696.912)"/><path d="m466.1 250.1a14.582 14.582 0 0 1 5.557-8.374 6.244 6.244 0 0 1 4.568-1.449 4.075 4.075 0 0 1 3.167 4.678c-.449 2.1-2.49 3.445-4.468 4.276-2.939 1.236-5.751 1.174-8.938 1.114" fill="#e8505b" transform="translate(290.519 1697.126)"/><path d="m461.522 259.393a86.538 86.538 0 0 1 -.067-9.583 86.593 86.593 0 0 1 .465-9.572 86.529 86.529 0 0 1 .067 9.583 86.592 86.592 0 0 1 -.465 9.572z" fill="#263238" transform="translate(290.421 1697.126)"/><path d="m475.535 244.33a10.221 10.221 0 0 1 -1.917 1.44c-1.226.824-2.954 1.914-4.9 3.045s-3.756 2.088-5.081 2.742a10.221 10.221 0 0 1 -2.2.948 11.278 11.278 0 0 1 2.024-1.28l4.992-2.871 4.971-2.9a11.29 11.29 0 0 1 2.111-1.124z" fill="#263238" transform="translate(290.422 1697.213)"/><path d="m452.543 257.453 19.361.971-1.919 11.762h-15.524l-1.919-12.733" fill="#455a64" transform="translate(290.233 1697.492)"/><path d="m461.912 255.152a17.854 17.854 0 0 1 -7.648-3.187 196.248 196.248 0 0 1 7.648 3.187z" fill="#263238" transform="translate(290.27 1697.375)"/></g></svg>