<svg xmlns="http://www.w3.org/2000/svg" width="270.755" height="83.295" viewBox="0 0 270.755 83.295">
  <g id="Group_565" data-name="Group 565" transform="translate(-117 -420)">
    <g id="Group_18" data-name="Group 18" transform="translate(117 420)">
      <g id="Group_16" data-name="Group 16">
        <g id="Group_15" data-name="Group 15">
          <g id="Group_13" data-name="Group 13">
            <g id="Group_5" data-name="Group 5" transform="translate(26.146 1.583)">
              <g id="Group_2" data-name="Group 2">
                <g id="Group_1" data-name="Group 1">
                  <path id="Path_1" data-name="Path 1" d="M116.52,14.984l-8.551,48.528A12.484,12.484,0,0,1,95.723,73.787H87.066a9.631,9.631,0,0,0-19,0H59.477a9.631,9.631,0,0,0-19,0h-2.71a12.42,12.42,0,0,1-11.472-7.636c-4.293.035-8.622.035-12.915.035A3.15,3.15,0,0,1,10,63.089a3.379,3.379,0,0,1,3.378-3.378c4.786,0,8.551.07,12.035.141,0-.211.07-.422.07-.633l1.056-5.877c-4.5,0-9.325-.035-15.73-.035a3.378,3.378,0,1,1,0-6.757c6.616,0,11.93-.035,16.927-.035L28.9,39.969H25.94a3.378,3.378,0,0,1,0-6.757c1.232.035,2.639.035,4.152.07l.211-1.056a4.905,4.905,0,0,1,4.821-4.082h56.2L73.13,46.057H54.691a4.927,4.927,0,0,0,0,9.853l31.918-.035L91.5,28.145l1.76-9.853H32.732l.035-.035H27.418a2.731,2.731,0,0,1-2.956-2.71,3.019,3.019,0,0,1,2.991-3.026c4.364,0,7.812.07,10.979.106l6.158-6.053C36.5,6.538,31.359,6.5,23.547,6.5a3.011,3.011,0,0,1-2.991-2.991A3.011,3.011,0,0,1,23.547.521C32.7.521,39.137.45,50.82.45h53.454A12.343,12.343,0,0,1,116.52,14.984Z" transform="translate(-7.43 -0.45)" fill="#ff6702"/>
                </g>
              </g>
              <g id="Group_3" data-name="Group 3" transform="translate(35.718 68.094)">
                <path id="Path_2" data-name="Path 2" d="M31.2,26.627a6.809,6.809,0,0,1-13.619,0,6.123,6.123,0,0,1,.211-1.584A6.76,6.76,0,0,1,24.407,19.8a6.859,6.859,0,0,1,6.651,5.243A7.578,7.578,0,0,1,31.2,26.627Z" transform="translate(-17.58 -19.8)" fill="#ff6702"/>
              </g>
              <g id="Group_4" data-name="Group 4" transform="translate(63.308 68.094)">
                <path id="Path_3" data-name="Path 3" d="M39.039,26.627a6.809,6.809,0,0,1-13.619,0,6.124,6.124,0,0,1,.211-1.584,6.818,6.818,0,0,1,13.267,0A7.578,7.578,0,0,1,39.039,26.627Z" transform="translate(-25.42 -19.8)" fill="#ff6702"/>
              </g>
            </g>
            <g id="Group_9" data-name="Group 9" transform="translate(0 36.07)">
              <g id="Group_6" data-name="Group 6" transform="translate(0 9.43)">
                <path id="Path_4" data-name="Path 4" d="M16.328,16.309A3.379,3.379,0,0,0,12.95,12.93H3.378a3.378,3.378,0,0,0,0,6.757h9.537A3.409,3.409,0,0,0,16.328,16.309Z" transform="translate(0 -12.93)" fill="#ff6702"/>
              </g>
              <g id="Group_7" data-name="Group 7" transform="translate(20.234)">
                <path id="Path_5" data-name="Path 5" d="M9.128,17.007h9.537a3.378,3.378,0,1,0,0-6.757H9.128a3.378,3.378,0,0,0,0,6.757Z" transform="translate(-5.75 -10.25)" fill="#ff6702"/>
              </g>
              <g id="Group_8" data-name="Group 8" transform="translate(9.15 19.671)">
                <path id="Path_6" data-name="Path 6" d="M15.515,15.84H5.978a3.378,3.378,0,1,0,0,6.757h9.537a3.378,3.378,0,1,0,0-6.757Z" transform="translate(-2.6 -15.84)" fill="#ff6702"/>
              </g>
            </g>
            <g id="Group_12" data-name="Group 12" transform="translate(14.745)">
              <g id="Group_10" data-name="Group 10">
                <path id="Path_7" data-name="Path 7" d="M18.653,2.991A2.989,2.989,0,0,0,15.662,0H7.216A3.019,3.019,0,0,0,4.19,2.991,2.989,2.989,0,0,0,7.181,5.982h8.446A3,3,0,0,0,18.653,2.991Z" transform="translate(-4.19)" fill="#ff6702"/>
              </g>
              <g id="Group_11" data-name="Group 11" transform="translate(8.129 9.114)">
                <path id="Path_8" data-name="Path 8" d="M17.937,2.59H9.491a2.991,2.991,0,0,0,0,5.982h8.446a2.991,2.991,0,1,0,0-5.982Z" transform="translate(-6.5 -2.59)" fill="#ff6702"/>
              </g>
            </g>
          </g>
          <g id="Group_14" data-name="Group 14" transform="translate(132.316 12.528)">
            <path id="Path_9" data-name="Path 9" d="M66.96,30.692H59.922L58.937,25.8H48.556L46.2,30.692H39.16L53.307,3.56H60.45ZM50.984,20.663h6.862L55.84,10.633Z" transform="translate(-33.67 -3.56)" fill="#fff"/>
            <path id="Path_10" data-name="Path 10" d="M56.5,14.9,68.326,3.57h7.988l-.106.6L64.667,15.183l7.918,14.886-.106.633H65.546l-5.7-10.839-4.645,4.5L54.285,30.7H47.74l3.8-27.132h6.545Z" transform="translate(-12.057 -3.535)" fill="#fff"/>
            <path id="Path_11" data-name="Path 11" d="M74.794,19.511H63.779L63,25.036H76.166L75.357,30.7H55.65l3.8-27.132H79.157L78.383,9.2H65.222l-.739,5.138H75.5Z" transform="translate(7.869 -3.535)" fill="#fff"/>
            <path id="Path_12" data-name="Path 12" d="M81.634,19.511H70.619l-.774,5.525H83.006L82.2,30.7H62.49l3.8-27.132H86L85.223,9.2H72.062l-.739,5.138H82.337Z" transform="translate(25.099 -3.535)" fill="#fff"/>
            <path id="Path_13" data-name="Path 13" d="M79.772,30.692H69.32l3.8-27.132H83.572C91.49,3.56,96.1,8.522,96.1,15.349,96.1,23.935,89.414,30.692,79.772,30.692ZM78.927,9.226,76.71,25.061h3.378a8.9,8.9,0,0,0,9.185-9.079c0-4.434-2.991-6.721-6.968-6.721H78.927Z" transform="translate(42.304 -3.56)" fill="#fff"/>
            <path id="Path_14" data-name="Path 14" d="M52.732,26.347H42.562l-.915,6.334h11.93l-.422,3.2H37.6L40.662,14.03H56.216l-.422,3.2H43.864l-.845,6.053h10.17Z" transform="translate(-37.6 22.814)" fill="#ff6702"/>
            <path id="Path_15" data-name="Path 15" d="M56.365,24.657l5.384,11.226H57.385l-3.343-7.5-.669-1.654-1.056,1.654-5.419,7.5H42.57l8.41-11.226L45.808,14.03h4.364l3.273,7.144.493,1.654,1.056-1.654,5.243-7.144h4.328Z" transform="translate(-25.08 22.814)" fill="#ff6702"/>
            <path id="Path_16" data-name="Path 16" d="M51.962,14.03H60.97c4.645,0,7.46,2.393,7.46,6.3,0,5.314-3.977,8.481-9.607,8.481H53.51l-.985,7.073H48.9Zm8.375,3.2H55.129l-1.2,8.411h5.243c3.238,0,5.455-1.548,5.455-4.891C64.63,18.394,62.976,17.232,60.337,17.232Z" transform="translate(-9.135 22.814)" fill="#ff6702"/>
            <path id="Path_17" data-name="Path 17" d="M66.915,14.055c4.645,0,7.46,2.393,7.46,6.3A7.942,7.942,0,0,1,68.71,28.1l-.035.176,4.258,7.108-.07.493H68.886L64.7,28.659H59.49l-1.021,7.214H54.88L57.942,14.02h8.974Zm-.6,3.2H61.109l-1.161,8.235h5.419c2.956,0,5.208-1.513,5.208-4.716C70.575,18.419,68.921,17.258,66.317,17.258Z" transform="translate(5.929 22.789)" fill="#ff6702"/>
            <path id="Path_18" data-name="Path 18" d="M76.212,26.347H66.042l-.915,6.334h11.93l-.422,3.2H61.08L64.142,14.03H79.7l-.422,3.2H67.344L66.5,23.285h10.17Z" transform="translate(21.547 22.814)" fill="#ff6702"/>
            <path id="Path_19" data-name="Path 19" d="M68.718,31.274a9.031,9.031,0,0,0,5.877,2.111c3.273,0,4.68-1.443,4.68-3.378,0-1.408-1.056-2.287-4.469-3.343-4.223-1.337-6.369-2.886-6.369-5.806,0-4.082,3.273-6.968,8.974-6.968,5.419,0,7.284,2.217,7.284,2.217l-2.358,2.956a7.884,7.884,0,0,0-5.384-1.83c-2.71,0-4.469,1.126-4.469,3.026,0,1.267,1.161,2.041,4.4,3.026,4.54,1.372,6.51,3.132,6.51,6.018,0,4.047-3.1,7.425-9.149,7.425-5.6,0-7.883-2.745-7.883-2.745Z" transform="translate(34.848 22.462)" fill="#ff6702"/>
            <path id="Path_20" data-name="Path 20" d="M74.088,31.274a9.031,9.031,0,0,0,5.877,2.111c3.273,0,4.68-1.443,4.68-3.378,0-1.408-1.056-2.287-4.469-3.343-4.223-1.337-6.369-2.886-6.369-5.806,0-4.082,3.273-6.968,8.974-6.968,5.419,0,7.284,2.217,7.284,2.217l-2.358,2.956a7.884,7.884,0,0,0-5.384-1.83c-2.71,0-4.469,1.126-4.469,3.026,0,1.267,1.161,2.041,4.4,3.026,4.54,1.372,6.51,3.132,6.51,6.018,0,4.047-3.1,7.425-9.15,7.425-5.6,0-7.883-2.745-7.883-2.745Z" transform="translate(48.375 22.462)" fill="#ff6702"/>
          </g>
        </g>
      </g>
    </g>
  </g>
</svg>
