<svg width="359" height="359" viewBox="0 0 359 359" fill="none" xmlns="http://www.w3.org/2000/svg">
<rect width="358.652" height="358.65" rx="179.325" fill="#FF5B4E"/>
<rect width="359" height="359" rx="29" fill="url(#paint0_linear_467_5124)"/>
<path d="M256.815 165.237L241.406 149.215C241.224 149.043 241.103 148.757 241.164 148.528C241.164 148.3 241.224 148.013 241.406 147.842L256.815 131.82C258.991 129.989 258.991 127.3 256.815 125.411H256.755L243.46 110.763C243.46 110.763 243.4 110.706 243.339 110.648C241.527 109.161 238.868 108.245 235.967 108.245H164.115C162.181 108.245 156.501 108.245 149.914 108.188C149.672 108.188 149.43 108.302 149.188 108.474L144.898 112.193C143.629 113.51 141.876 113.51 140.668 112.193L136.135 108.302C136.135 108.302 135.712 108.074 135.471 108.074C129.246 108.016 118.429 108.016 116.737 108.016H108.942C107.129 108.016 105.074 107.673 103.684 110.133L99.3936 117.229C98.9102 118.144 99.031 119.174 99.6353 119.975L104.772 126.785C105.437 127.7 105.437 128.902 104.772 129.817L99.6958 136.455C98.9706 137.37 99.031 138.629 99.6958 139.545L105.497 146.812C105.86 147.27 106.041 147.785 106.041 148.357C106.041 148.986 105.86 149.501 105.497 149.959L99.7562 157.34C99.031 158.256 99.031 159.515 99.7562 160.43L104.711 167.011C105.376 167.926 105.376 169.128 104.711 170.043L99.5145 176.852C98.9102 177.654 98.8497 178.684 99.2727 179.542H99.3332L103.684 186.694C105.014 189.155 107.068 188.754 108.942 188.754C113.172 188.754 112.567 188.754 116.677 188.754H135.471C135.471 188.754 135.954 188.64 136.135 188.525L140.728 184.692C141.937 183.376 143.689 183.376 144.958 184.692L149.249 188.411C149.249 188.411 149.672 188.697 149.974 188.697C156.561 188.697 162.181 188.64 164.175 188.64H236.027C238.928 188.64 241.587 187.724 243.4 186.237C243.4 186.237 243.46 186.179 243.521 186.122L256.876 171.645C256.876 171.645 256.876 171.588 256.936 171.588C259.112 169.757 259.051 167.068 256.936 165.18L256.815 165.237ZM145.986 179.942L143.871 181.945C143.327 182.46 142.481 182.46 141.937 181.945L139.822 179.942C139.278 179.427 139.278 178.626 139.822 178.111L141.937 176.109C142.481 175.594 143.327 175.594 143.871 176.109L145.986 178.111C146.53 178.626 146.53 179.427 145.986 179.942ZM145.986 169.757L143.871 171.76C143.327 172.275 142.481 172.275 141.937 171.76L139.822 169.757C139.278 169.242 139.278 168.441 139.822 167.926L141.937 165.923C142.481 165.408 143.327 165.408 143.871 165.923L145.986 167.926C146.53 168.441 146.53 169.242 145.986 169.757ZM145.986 159.572L143.871 161.575C143.327 162.09 142.481 162.09 141.937 161.575L139.822 159.572C139.278 159.057 139.278 158.256 139.822 157.741L141.937 155.738C142.481 155.223 143.327 155.223 143.871 155.738L145.986 157.741C146.53 158.256 146.53 159.057 145.986 159.572ZM145.986 149.387L143.871 151.389C143.327 151.904 142.481 151.904 141.937 151.389L139.822 149.387C139.278 148.872 139.278 148.071 139.822 147.556L141.937 145.553C142.481 145.038 143.327 145.038 143.871 145.553L145.986 147.556C146.53 148.071 146.53 148.872 145.986 149.387ZM145.986 139.201L143.871 141.204C143.327 141.719 142.481 141.719 141.937 141.204L139.822 139.201C139.278 138.686 139.278 137.885 139.822 137.37L141.937 135.368C142.481 134.853 143.327 134.853 143.871 135.368L145.986 137.37C146.53 137.885 146.53 138.686 145.986 139.201ZM145.986 129.016L143.871 131.019C143.327 131.534 142.481 131.534 141.937 131.019L139.822 129.016C139.278 128.501 139.278 127.7 139.822 127.185L141.937 125.182C142.481 124.667 143.327 124.667 143.871 125.182L145.986 127.185C146.53 127.7 146.53 128.501 145.986 129.016ZM145.986 118.831L143.871 120.834C143.327 121.349 142.481 121.349 141.937 120.834L139.822 118.831C139.278 118.316 139.278 117.515 139.822 117L141.937 114.997C142.481 114.482 143.327 114.482 143.871 114.997L145.986 117C146.53 117.515 146.53 118.316 145.986 118.831ZM224.002 170.501L222.974 171.474C222.974 171.474 222.31 171.932 221.887 171.932H171.246C170.823 171.932 170.4 171.76 170.158 171.474L169.131 170.501C168.587 169.986 168.587 169.185 169.131 168.67L170.158 167.697C170.158 167.697 170.823 167.239 171.246 167.239H221.887C222.31 167.239 222.733 167.411 222.974 167.697L224.002 168.67C224.545 169.185 224.545 169.986 224.002 170.501ZM224.002 129.016L222.974 129.989C222.974 129.989 222.31 130.447 221.887 130.447H171.246C170.823 130.447 170.4 130.275 170.158 129.989L169.131 129.016C168.587 128.501 168.587 127.7 169.131 127.185L170.158 126.212C170.158 126.212 170.823 125.755 171.246 125.755H221.887C222.31 125.755 222.733 125.926 222.974 126.212L224.002 127.185C224.545 127.7 224.545 128.501 224.002 129.016Z" fill="white"/>
<path d="M101.009 207.247H114.9C122.891 207.247 127.604 210.221 127.604 217.173V217.374C127.604 220.188 126.62 222.599 124.284 224.166C123.588 224.649 123.67 226.055 124.448 226.377C127.686 227.864 129.243 230.436 129.243 234.455V234.656C129.243 241.729 124.448 245.306 115.925 245.306H101.828C101.378 245.306 101.009 244.945 101.009 244.502V207.287C101.009 207.287 101.009 207.247 101.05 207.247H101.009ZM114.04 223.282C118.834 223.282 120.678 221.594 120.678 217.696V217.495C120.678 213.878 118.588 212.31 113.958 212.31H108.918C108.467 212.31 108.098 212.672 108.098 213.114V222.478C108.098 222.921 108.467 223.282 108.918 223.282H114.04ZM115.064 240.283C119.9 240.283 122.113 238.152 122.113 234.214V234.013C122.113 230.074 119.9 228.105 114.573 228.105H108.877C108.426 228.105 108.057 228.467 108.057 228.909V239.479C108.057 239.921 108.426 240.283 108.877 240.283H115.064Z" fill="white"/>
<path d="M135.574 207.874C135.574 207.432 135.943 207.07 136.393 207.07H141.311C141.761 207.07 142.13 207.432 142.13 207.874V244.527C142.13 244.969 141.761 245.33 141.311 245.33H136.393C135.943 245.33 135.574 244.969 135.574 244.527V207.874Z" fill="white"/>
<path d="M148.283 231.641V231.199C148.283 222.598 154.307 216.851 162.379 216.851C169.428 216.851 175.779 220.95 175.779 230.917V231.962C175.779 232.404 175.41 232.766 174.96 232.766H155.864C155.413 232.766 155.044 233.128 155.085 233.61C155.536 238.353 158.24 241.045 162.871 241.045C166.477 241.045 168.526 239.759 169.223 237.468C169.346 237.107 169.673 236.825 170.083 236.825H174.796C175.287 236.825 175.697 237.267 175.574 237.75C174.304 243.015 169.591 245.908 162.748 245.908C154.388 245.908 148.365 240.523 148.365 231.761L148.283 231.641ZM169.346 228.386C169.346 228.386 169.305 228.386 169.305 228.345C168.977 223.603 166.477 221.473 162.42 221.473C158.65 221.473 156.151 223.724 155.331 227.501C155.208 227.984 155.618 228.426 156.11 228.426H169.346V228.386Z" fill="white"/>
<path d="M179.691 231.641V231.199C179.691 222.598 185.715 216.851 193.787 216.851C200.836 216.851 207.187 220.95 207.187 230.917V231.962C207.187 232.404 206.819 232.766 206.368 232.766H187.272C186.821 232.766 186.452 233.128 186.493 233.61C186.944 238.353 189.649 241.045 194.279 241.045C197.885 241.045 199.934 239.759 200.631 237.468C200.754 237.107 201.082 236.825 201.491 236.825H206.204C206.696 236.825 207.105 237.267 206.982 237.75C205.712 243.015 201 245.908 194.156 245.908C185.797 245.908 179.773 240.523 179.773 231.761L179.691 231.641ZM200.754 228.386C200.754 228.386 200.713 228.386 200.713 228.345C200.385 223.603 197.885 221.473 193.828 221.473C190.058 221.473 187.559 223.724 186.739 227.501C186.616 227.984 187.026 228.426 187.518 228.426H200.754V228.386Z" fill="white"/>
<path d="M214.188 237.574V219.931C214.188 219.488 213.82 219.127 213.369 219.127H211.197C210.746 219.127 210.377 218.765 210.377 218.323V215.068C210.377 214.625 210.746 214.264 211.197 214.264H213.369C213.82 214.264 214.188 213.902 214.188 213.46V207.874C214.188 207.432 214.557 207.07 215.008 207.07H219.925C220.376 207.07 220.745 207.432 220.745 207.874V213.46C220.745 213.902 221.114 214.264 221.565 214.264H226.154C226.605 214.264 226.974 214.625 226.974 215.068V218.323C226.974 218.765 226.605 219.127 226.154 219.127H221.565C221.114 219.127 220.745 219.488 220.745 219.931V237.011C220.745 239.463 221.933 240.588 223.982 240.588C224.761 240.588 225.457 240.548 226.031 240.387C226.605 240.267 227.179 240.668 227.179 241.231V244.607C227.179 244.929 226.974 245.25 226.646 245.33C225.662 245.612 224.433 245.853 222.753 245.853C217.098 245.853 214.188 242.879 214.188 237.614V237.574Z" fill="white"/>
<path d="M241.4 242.702L230.664 218.789C230.418 218.266 230.828 217.664 231.401 217.664H236.687C237.015 217.664 237.302 217.865 237.425 218.146L243.982 233.739C244.268 234.423 245.252 234.383 245.498 233.739L251.522 218.186C251.644 217.865 251.931 217.664 252.3 217.664H256.89C257.463 217.664 257.873 218.226 257.627 218.749L242.834 254.518C242.711 254.839 242.424 255 242.097 255H237.384C236.81 255 236.401 254.437 236.646 253.875L241.318 242.662L241.4 242.702Z" fill="white"/>
<defs>
<linearGradient id="paint0_linear_467_5124" x1="-19.3578" y1="-4.9284e-07" x2="179.5" y2="359" gradientUnits="userSpaceOnUse">
<stop stop-color="#F1B417"/>
<stop offset="1" stop-color="#FC641E"/>
</linearGradient>
</defs>
</svg>
