<svg width="183" height="36" viewBox="0 0 183 36" fill="none" xmlns="http://www.w3.org/2000/svg">
<path d="M10.9214 17.5519C8.64754 17.5519 6.6852 17.1766 5.03434 16.4261C3.39127 15.668 2.14144 14.6342 1.28487 13.3247C0.428289 12.0075 0 10.5219 0 8.86782C0 7.19074 0.436076 5.68214 1.30823 4.34202C2.18038 2.99423 3.45356 1.93361 5.12778 1.16017C6.802 0.386723 8.7916 0 11.0966 0C12.506 0 13.7948 0.137842 14.9629 0.413525C16.1387 0.689209 17.2561 1.08742 18.3152 1.60815V6.46708C17.6377 5.99995 16.7889 5.62088 15.7688 5.32988C14.7565 5.03888 13.678 4.89338 12.5333 4.89338C11.2796 4.89338 10.2011 5.0542 9.29776 5.37583C8.39446 5.69746 7.7053 6.14927 7.23029 6.73127C6.76307 7.30561 6.52946 7.97185 6.52946 8.72998C6.52946 9.49576 6.76696 10.1735 7.24197 10.7631C7.72477 11.3451 8.41782 11.8008 9.32112 12.1301C10.2244 12.4517 11.2951 12.6125 12.5333 12.6125C13.7169 12.6125 14.8188 12.4594 15.8389 12.153C16.859 11.8391 17.7 11.4217 18.3619 10.901V15.645C17.2172 16.3036 16.0608 16.7861 14.8928 17.0924C13.7325 17.3987 12.4087 17.5519 10.9214 17.5519Z" fill="#1C1B19"/>
<path d="M31.1522 17.5519C28.9796 17.5519 27.0679 17.1575 25.417 16.3687C23.7661 15.5799 22.4929 14.5117 21.5974 13.1639C20.7019 11.8161 20.2542 10.3228 20.2542 8.68403C20.2542 7.01461 20.698 5.52516 21.5858 4.21566C22.4813 2.89851 23.7545 1.86852 25.4053 1.12571C27.0562 0.375236 28.9796 0 31.1755 0C33.3559 0 35.2676 0.375236 36.9107 1.12571C38.5616 1.86852 39.8309 2.89851 40.7186 4.21566C41.6141 5.52516 42.0618 7.01461 42.0618 8.68403C42.0618 10.3305 41.6102 11.8276 40.7069 13.1754C39.8114 14.5232 38.5382 15.5914 36.8873 16.3802C35.2365 17.1613 33.3248 17.5519 31.1522 17.5519ZM31.1522 12.7733C32.0477 12.7733 32.8342 12.6049 33.5117 12.2679C34.1891 11.9233 34.7109 11.4447 35.0768 10.8321C35.4428 10.2194 35.6258 9.51874 35.6258 8.72998C35.6258 7.94887 35.4428 7.25967 35.0768 6.66235C34.7109 6.06504 34.1891 5.60174 33.5117 5.27245C32.8342 4.94316 32.0477 4.77851 31.1522 4.77851C30.2489 4.77851 29.4585 4.94316 28.781 5.27245C28.1035 5.60174 27.5779 6.06504 27.2041 6.66235C26.8381 7.25967 26.6551 7.94887 26.6551 8.72998C26.6551 9.51874 26.8381 10.2194 27.2041 10.8321C27.5779 11.4447 28.1035 11.9233 28.781 12.2679C29.4585 12.6049 30.2489 12.7733 31.1522 12.7733Z" fill="#1C1B19"/>
<path d="M63.2505 0.53988V17.012H55.623L49.736 6.6164V17.012H44.4213V0.53988H52.2941L57.9591 10.7517V0.53988H63.2505Z" fill="#1C1B19"/>
<path d="M85.2334 0.53988V17.012H77.6059L71.7189 6.6164V17.012H66.4042V0.53988H74.2769L79.942 10.7517V0.53988H85.2334Z" fill="#1C1B19"/>
<path d="M103.981 12.8193V17.012H88.3871V0.53988H103.911V4.73257H94.3676V6.75425H103.432V10.6138H94.3676V12.8193H103.981Z" fill="#1C1B19"/>
<path d="M116.654 17.5519C114.38 17.5519 112.418 17.1766 110.767 16.4261C109.124 15.668 107.874 14.6342 107.018 13.3247C106.161 12.0075 105.733 10.5219 105.733 8.86782C105.733 7.19074 106.169 5.68214 107.041 4.34202C107.913 2.99423 109.186 1.93361 110.861 1.16017C112.535 0.386723 114.524 0 116.829 0C118.239 0 119.528 0.137842 120.696 0.413525C121.872 0.689209 122.989 1.08742 124.048 1.60815V6.46708C123.371 5.99995 122.522 5.62088 121.502 5.32988C120.489 5.03888 119.411 4.89338 118.266 4.89338C117.012 4.89338 115.934 5.0542 115.031 5.37583C114.127 5.69746 113.438 6.14927 112.963 6.73127C112.496 7.30561 112.262 7.97185 112.262 8.72998C112.262 9.49576 112.5 10.1735 112.975 10.7631C113.458 11.3451 114.151 11.8008 115.054 12.1301C115.957 12.4517 117.028 12.6125 118.266 12.6125C119.45 12.6125 120.552 12.4594 121.572 12.153C122.592 11.8391 123.433 11.4217 124.095 10.901V15.645C122.95 16.3036 121.794 16.7861 120.626 17.0924C119.465 17.3987 118.142 17.5519 116.654 17.5519Z" fill="#1C1B19"/>
<path d="M143.041 5.18055H137.341V17.012H131.36V5.18055H125.555V0.53988H143.041V5.18055Z" fill="#1C1B19"/>
<path d="M160.538 12.8193V17.012H144.945V0.53988H160.468V4.73257H150.925V6.75425H159.989V10.6138H150.925V12.8193H160.538Z" fill="#1C1B19"/>
<path d="M163.307 0.53988H172.639C174.89 0.53988 176.79 0.888314 178.339 1.58518C179.897 2.27439 181.061 3.23162 181.832 4.45688C182.611 5.68214 183 7.09119 183 8.68403C183 10.2386 182.595 11.6438 181.785 12.8997C180.983 14.1556 179.753 15.1549 178.094 15.8977C176.443 16.6406 174.403 17.012 171.974 17.012H163.307V0.53988ZM171.868 12.8193C172.881 12.8193 173.741 12.6508 174.45 12.3139C175.158 11.9769 175.692 11.4983 176.05 10.878C176.408 10.2501 176.587 9.51108 176.587 8.66106C176.587 7.45877 176.221 6.50536 175.489 5.80084C174.765 5.08866 173.671 4.73257 172.207 4.73257H169.287V12.8193H171.868Z" fill="#1C1B19"/>
<path d="M20.1374 36L19.3548 24.3753L15.7571 36H9.7533L6.47105 24.8578L5.80526 36H0.327057L1.37831 19.5279H10.1621L13.0005 28.7633L15.9323 19.5279H24.6811L25.9543 36H20.1374Z" fill="#1C1B19"/>
<path d="M44.1527 31.8073V36H28.5591V19.5279H44.0826V23.7206H34.5395V25.7423H43.6037V29.6018H34.5395V31.8073H44.1527Z" fill="#1C1B19"/>
<path d="M65.7501 19.5279V36H58.1227L52.2357 25.6044V36H46.921V19.5279H54.7937L60.4588 29.7397V19.5279H65.7501Z" fill="#1C1B19"/>
<path d="M80.5845 32.8526H74.3003L73.2607 36H67.3503L73.2607 19.5279H81.8226L87.6863 36H81.6124L80.5845 32.8526ZM79.4982 29.5559L77.4424 23.2726L75.3749 29.5559H79.4982Z" fill="#1C1B19"/>
</svg>
