<svg xmlns="http://www.w3.org/2000/svg" width="174" height="68" viewBox="0 0 174 68"><g fill="currentColor" fill-rule="evenodd" clip-path="url(&quot;#a&quot;)" data-name="Group 92"><path d="M50.28 14.333c1.324.333 1.632 1.095 1.58 2.167-.038.777.08 1.544.748 2.163.379.352.578 1.061.107 1.436-.602.48-.32.917-.165 1.373.541 1.59 1.09 3.177 1.688 4.746.198.52.1.744-.413.934-1.44.536-2.878.48-4.323.064-.643-.185-.5-.69-.378-1.12.462-1.637.94-3.268 1.44-4.893.12-.388.189-.677-.134-1.03-.43-.473-.442-1.03.044-1.512.946-.934.52-1.995.227-2.997-.171-.588-1.435-.814-2.295-.386" data-name="Path 99"></path><path d="M79.622 47.408v-23.04h14.483v3.949H83.967v5.563h9.348v3.95h-9.348v9.578h-4.345Z" data-name="Path 100"></path><path d="M97.33 47.408V31.082h4.082v1.843h.593c.24-.658.641-1.14 1.201-1.448.56-.307 1.212-.461 1.958-.461h1.975v3.687h-2.04c-1.054 0-1.92.28-2.6.839-.681.56-1.021 1.42-1.021 2.583v9.283h-4.147Z" data-name="Path 101"></path><path d="M117.54 47.869c-1.623 0-3.082-.33-4.377-.988a7.4 7.4 0 0 1-3.061-2.864c-.746-1.25-1.12-2.753-1.12-4.509v-.527c0-1.755.374-3.258 1.12-4.509a7.403 7.403 0 0 1 3.06-2.863c1.296-.659 2.755-.988 4.379-.988 1.623 0 3.082.33 4.377.988a7.407 7.407 0 0 1 3.061 2.863c.746 1.25 1.12 2.754 1.12 4.51v.526c0 1.756-.374 3.259-1.12 4.51a7.405 7.405 0 0 1-3.06 2.863c-1.296.658-2.755.988-4.378.988m0-3.687c1.272 0 2.325-.411 3.16-1.234.833-.823 1.25-2.002 1.25-3.539v-.329c0-1.536-.411-2.715-1.234-3.538s-1.882-1.235-3.176-1.235c-1.273 0-2.327.412-3.16 1.235-.834.823-1.251 2.002-1.251 3.538v.33c0 1.536.417 2.715 1.25 3.538.834.823 1.888 1.234 3.16 1.234" data-name="Path 102"></path><path d="M139.725 47.869c-1.47 0-2.6-.253-3.39-.757-.79-.505-1.371-1.065-1.744-1.68h-.593v1.976h-4.081v-23.04h4.147v8.59h.592c.242-.395.565-.768.971-1.12.406-.35.944-.641 1.613-.872.67-.23 1.498-.345 2.485-.345 1.317 0 2.535.324 3.654.97 1.12.649 2.019 1.597 2.699 2.848.68 1.251 1.02 2.765 1.02 4.542v.527c0 1.777-.34 3.292-1.02 4.542-.68 1.251-1.58 2.2-2.699 2.848a7.174 7.174 0 0 1-3.654.97m-1.25-3.62c1.272 0 2.337-.412 3.192-1.235.856-.822 1.284-2.024 1.284-3.604v-.329c0-1.58-.423-2.781-1.267-3.604-.845-.823-1.915-1.234-3.21-1.234-1.272 0-2.336.411-3.192 1.234-.856.823-1.284 2.024-1.284 3.604v.33c0 1.58.428 2.78 1.284 3.603.856.823 1.92 1.235 3.193 1.235" data-name="Path 103"></path><path d="M158.355 47.869c-1.624 0-3.056-.346-4.296-1.037a7.295 7.295 0 0 1-2.896-2.93c-.691-1.261-1.037-2.748-1.037-4.46v-.395c0-1.711.34-3.198 1.02-4.46a7.216 7.216 0 0 1 2.864-2.93c1.229-.69 2.655-1.036 4.28-1.036 1.6 0 2.994.357 4.18 1.07 1.184.713 2.106 1.7 2.764 2.962.658 1.262.988 2.727.988 4.394v1.416h-11.883c.044 1.119.461 2.03 1.251 2.732.79.702 1.755 1.053 2.897 1.053 1.163 0 2.018-.252 2.567-.757a5.33 5.33 0 0 0 1.25-1.679l3.39 1.778c-.306.57-.75 1.19-1.332 1.86-.582.669-1.355 1.24-2.32 1.71-.966.472-2.195.709-3.687.709m-3.983-10.5h7.637c-.088-.944-.467-1.7-1.136-2.272-.67-.57-1.542-.855-2.617-.855-1.119 0-2.008.285-2.666.855-.658.571-1.064 1.328-1.218 2.272" data-name="Path 104"></path><path d="M169.908 24.367h4.147v23.04h-4.147v-23.04z" data-name="Rectangle 69"></path><path d="M30.216 67.3c7.148-7.483 16.542-12.81 26.684-15.088l.355 1.815c-10.04 1.63-19.557 6.326-27.04 13.274" data-name="Path 105"></path><path d="M30.216 59.644c7.148-7.484 16.542-12.81 26.684-15.089l.355 1.815c-10.04 1.63-19.557 6.326-27.04 13.274" data-name="Path 106"></path><path d="M30.216 51.987c7.148-7.484 16.542-12.81 26.684-15.089l.355 1.815c-10.04 1.63-19.557 6.326-27.04 13.274" data-name="Path 107"></path><path d="M55.629 14.182C45.274 16.204 36 21.25 28.767 28.363c-7.233-7.113-16.506-12.16-26.861-14.181C12.261 12.16 21.534 7.113 28.767 0c7.234 7.113 16.507 12.16 26.862 14.182" data-name="Path 108"></path><path d="M27.039 67.3c-7.482-6.947-17-11.643-27.039-13.273l.354-1.815C10.496 54.49 19.891 59.817 27.04 67.3" data-name="Path 109"></path><path d="M27.039 59.644C19.557 52.696 10.039 48 0 46.37l.354-1.815c10.142 2.278 19.537 7.605 26.685 15.09" data-name="Path 110"></path><path d="M27.039 51.987C19.557 45.04 10.039 40.343 0 38.713l.354-1.815c10.142 2.278 19.537 7.605 26.685 15.09" data-name="Path 111"></path><path d="M45.141 22.357a52.923 52.923 0 0 0-16.374 10.966 52.923 52.923 0 0 0-16.373-10.966v11.76a52.92 52.92 0 0 1 16.373 10.966 52.92 52.92 0 0 1 16.374-10.965v-11.76Z" data-name="Path 112"></path></g><defs><clipPath id="a"><path d="M0 0h174.055v67.3H0V0z" data-name="Rectangle 70"></path></clipPath></defs></svg>