<svg width="125" height="125" viewBox="0 0 125 125" fill="none" xmlns="http://www.w3.org/2000/svg">
<path d="M39 56.9999C34.9467 56.9999 31.6667 53.7199 31.6667 49.6666C31.6667 45.6133 34.9467 42.3333 39 42.3333C43.0534 42.3333 46.3334 45.6133 46.3334 49.6666C46.3334 53.7199 43.0534 56.9999 39 56.9999ZM39 46.3333C37.16 46.3333 35.6667 47.8266 35.6667 49.6666C35.6667 51.5066 37.16 52.9999 39 52.9999C40.84 52.9999 42.3334 51.5066 42.3334 49.6666C42.3334 47.8266 40.84 46.3333 39 46.3333Z" fill="white"/>
<path d="M87 56.9999C82.9467 56.9999 79.6667 53.7199 79.6667 49.6666C79.6667 45.6133 82.9467 42.3333 87 42.3333C91.0534 42.3333 94.3334 45.6133 94.3334 49.6666C94.3334 53.7199 91.0534 56.9999 87 56.9999ZM87 46.3333C85.16 46.3333 83.6667 47.8266 83.6667 49.6666C83.6667 51.5066 85.16 52.9999 87 52.9999C88.84 52.9999 90.3334 51.5066 90.3334 49.6666C90.3334 47.8266 88.84 46.3333 87 46.3333Z" fill="white"/>
<path d="M81.6667 51.6667H71C69.9067 51.6667 69 50.7601 69 49.6667C69 48.5734 69.9067 47.6667 71 47.6667H81.6667C82.76 47.6667 83.6667 48.5734 83.6667 49.6667C83.6667 50.7601 82.76 51.6667 81.6667 51.6667Z" fill="white"/>
<path d="M55 51.6667H44.3333C43.24 51.6667 42.3333 50.7601 42.3333 49.6667C42.3333 48.5734 43.24 47.6667 44.3333 47.6667H55C56.0933 47.6667 57 48.5734 57 49.6667C57 50.7601 56.0933 51.6667 55 51.6667Z" fill="white"/>
<path d="M47 86.3333H41.6667C38.36 86.3333 35.6667 83.64 35.6667 80.3333V75C35.6667 71.6933 38.36 69 41.6667 69H47C50.3067 69 53 71.6933 53 75V80.3333C53 82.7333 51.5867 84.8668 49.4 85.8001C48.68 86.1468 47.8534 86.3333 47 86.3333ZM41.6667 73C40.5734 73 39.6667 73.9067 39.6667 75V80.3333C39.6667 81.4267 40.5734 82.3333 41.6667 82.3333H47C47.2667 82.3333 47.5067 82.2801 47.7734 82.1468C48.5467 81.8268 49 81.1067 49 80.3333V75C49 73.9067 48.0934 73 47 73H41.6667Z" fill="white"/>
<path d="M84.3333 86.3333H79C78.1467 86.3333 77.32 86.1468 76.52 85.7734C74.4133 84.8934 73 82.7333 73 80.3333V75C73 71.6933 75.6933 69 79 69H84.3333C87.64 69 90.3333 71.6933 90.3333 75V80.3333C90.3333 83.64 87.64 86.3333 84.3333 86.3333ZM79 73C77.9067 73 77 73.9067 77 75V80.3333C77 81.1067 77.4533 81.8268 78.1467 82.1201C78.4933 82.2801 78.7333 82.3333 79 82.3333H84.3333C85.4267 82.3333 86.3333 81.4267 86.3333 80.3333V75C86.3333 73.9067 85.4267 73 84.3333 73H79Z" fill="white"/>
<path d="M67 59.6667H59C55.6933 59.6667 53 56.9734 53 53.6667V45.6667C53 42.3601 55.6933 39.6667 59 39.6667H67C70.3067 39.6667 73 42.3601 73 45.6667V53.6667C73 56.9734 70.3067 59.6667 67 59.6667ZM59 43.6667C57.9067 43.6667 57 44.5734 57 45.6667V53.6667C57 54.7601 57.9067 55.6667 59 55.6667H67C68.0933 55.6667 69 54.7601 69 53.6667V45.6667C69 44.5734 68.0933 43.6667 67 43.6667H59Z" fill="white"/>
<path d="M81.586 73.0001C81.506 73.0001 81.426 73.0001 81.346 73.0001C80.2527 72.8668 79.4527 71.8802 79.586 70.7869C79.6394 70.4135 79.6394 70.0668 79.6394 69.6935C79.6394 62.7601 75.8794 56.36 70.066 53.4267C69.0794 52.92 68.6794 51.7202 69.186 50.7335C69.6927 49.7468 70.8927 49.3468 71.8794 49.8534C79.026 53.4801 83.6394 61.2668 83.6394 69.6935C83.6394 70.2268 83.6127 70.7334 83.5327 71.2667C83.4527 72.2534 82.5994 73.0001 81.586 73.0001Z" fill="white"/>
<path d="M44.4133 72.9999C43.4 72.9999 42.5466 72.2532 42.44 71.2398C42.3866 70.7065 42.3333 70.1999 42.3333 69.6666C42.3333 61.2399 46.9466 53.4533 54.0933 49.8266C55.08 49.3199 56.28 49.72 56.7866 50.7066C57.2933 51.6933 56.8933 52.8933 55.9066 53.4C50.0933 56.3333 46.3333 62.7333 46.3333 69.6666C46.3333 70.0399 46.36 70.3867 46.3866 70.76C46.52 71.8534 45.72 72.8399 44.6266 72.9732C44.5733 72.9999 44.4933 72.9999 44.4133 72.9999Z" fill="white"/>
</svg>
