<svg width="60" height="60" viewBox="0 0 60 60" fill="none" xmlns="http://www.w3.org/2000/svg">
<path d="M57.2948 11.6011C56.945 10.4219 56.2813 9.22817 55.3038 8.00562C53.1541 5.34775 50.7989 3.42197 48.2452 2.66824C36.0936 -0.887608 23.942 -0.887609 11.7869 2.65742C11.6678 2.68988 11.5524 2.72955 11.4334 2.76561C7.91668 3.98455 3.81206 8.12102 2.70475 11.612C-0.887705 23.823 -0.902132 36.0341 2.66507 48.2451C2.89591 49.0277 3.27103 49.8464 3.78681 50.6758C5.68042 53.651 8.79676 56.4423 11.7219 57.3259C23.9168 60.8926 36.1116 60.8926 48.3065 57.3187C52.0036 56.1502 56.1515 51.9993 57.3201 48.3101C59.1055 42.2081 60 36.1062 60 30.0043C60 23.9024 59.0947 17.7355 57.2948 11.6011ZM51.1956 43.1133C50.6654 46.8747 46.9215 50.6145 43.1559 51.1482C34.3948 52.2806 25.6301 52.2806 16.8653 51.1482C13.0998 50.6181 9.35583 46.8747 8.82562 43.1133C7.69666 34.3716 7.69666 25.6262 8.82562 16.8844C9.35944 13.123 13.0998 9.37964 16.8653 8.84951C25.6301 7.71711 34.3912 7.71711 43.1559 8.85311C46.9215 9.38324 50.6654 13.1266 51.1956 16.888C52.3246 25.6298 52.3246 34.3716 51.1956 43.1133Z" fill="#020202"/>
<path d="M44.9957 39.2927C44.8894 40.6712 44.7654 42.0497 44.6201 43.4282C44.535 44.2239 43.8474 44.9486 43.096 45.0383C38.4956 45.5725 35.1003 45.8526 30.4999 45.8825C29.7485 45.89 29.1318 45.2026 29.1283 44.3546C29.1247 42.8977 29.1212 41.437 29.1176 39.9801C29.1141 39.1358 29.7485 38.4522 30.5353 38.4485C35.32 38.4298 38.8961 38.2617 43.6773 37.9442C44.4641 37.8956 45.056 38.497 44.9957 39.2927Z" fill="#020202"/>
</svg>
