<svg width="132" height="31" viewBox="0 0 132 31" fill="none" xmlns="http://www.w3.org/2000/svg">
<rect width="20" height="31" fill="white"/>
<path d="M19.2838 12.697L13.333 11.8321L10.6729 6.43917C10.6002 6.29151 10.4807 6.17198 10.333 6.09933C9.96273 5.91651 9.51273 6.06886 9.32757 6.43917L6.66741 11.8321L0.716633 12.697C0.552571 12.7204 0.402571 12.7978 0.287727 12.9149C0.148887 13.0577 0.0723803 13.2496 0.0750171 13.4487C0.077654 13.6478 0.159219 13.8377 0.30179 13.9767L4.60726 18.1743L3.59007 24.1017C3.56622 24.2396 3.58148 24.3814 3.63411 24.511C3.68675 24.6407 3.77467 24.753 3.88789 24.8352C4.00111 24.9174 4.1351 24.9663 4.27468 24.9763C4.41426 24.9862 4.55383 24.9568 4.67757 24.8915L10.0002 22.0931L15.3229 24.8915C15.4682 24.9689 15.6369 24.9946 15.7987 24.9665C16.2065 24.8962 16.4807 24.5095 16.4104 24.1017L15.3932 18.1743L19.6987 13.9767C19.8159 13.8618 19.8932 13.7118 19.9166 13.5478C19.9799 13.1376 19.694 12.7579 19.2838 12.697Z" fill="#F7A924"/>
<rect width="20" height="31" transform="translate(28)" fill="white"/>
<path d="M47.2838 12.697L41.333 11.8321L38.6729 6.43917C38.6002 6.29151 38.4807 6.17198 38.333 6.09933C37.9627 5.91651 37.5127 6.06886 37.3276 6.43917L34.6674 11.8321L28.7166 12.697C28.5526 12.7204 28.4026 12.7978 28.2877 12.9149C28.1489 13.0577 28.0724 13.2496 28.075 13.4487C28.0777 13.6478 28.1592 13.8377 28.3018 13.9767L32.6073 18.1743L31.5901 24.1017C31.5662 24.2396 31.5815 24.3814 31.6341 24.511C31.6868 24.6407 31.7747 24.753 31.8879 24.8352C32.0011 24.9174 32.1351 24.9663 32.2747 24.9763C32.4143 24.9862 32.5538 24.9568 32.6776 24.8915L38.0002 22.0931L43.3229 24.8915C43.4682 24.9689 43.6369 24.9946 43.7987 24.9665C44.2065 24.8962 44.4807 24.5095 44.4104 24.1017L43.3932 18.1743L47.6987 13.9767C47.8159 13.8618 47.8932 13.7118 47.9166 13.5478C47.9799 13.1376 47.694 12.7579 47.2838 12.697Z" fill="#F7A924"/>
<rect width="20" height="31" transform="translate(56)" fill="white"/>
<path d="M75.2838 12.697L69.333 11.8321L66.6729 6.43917C66.6002 6.29151 66.4807 6.17198 66.333 6.09933C65.9627 5.91651 65.5127 6.06886 65.3276 6.43917L62.6674 11.8321L56.7166 12.697C56.5526 12.7204 56.4026 12.7978 56.2877 12.9149C56.1489 13.0577 56.0724 13.2496 56.075 13.4487C56.0777 13.6478 56.1592 13.8377 56.3018 13.9767L60.6073 18.1743L59.5901 24.1017C59.5662 24.2396 59.5815 24.3814 59.6341 24.511C59.6868 24.6407 59.7747 24.753 59.8879 24.8352C60.0011 24.9174 60.1351 24.9663 60.2747 24.9763C60.4143 24.9862 60.5538 24.9568 60.6776 24.8915L66.0002 22.0931L71.3229 24.8915C71.4682 24.9689 71.6369 24.9946 71.7987 24.9665C72.2065 24.8962 72.4807 24.5095 72.4104 24.1017L71.3932 18.1743L75.6987 13.9767C75.8159 13.8618 75.8932 13.7118 75.9166 13.5478C75.9799 13.1376 75.694 12.7579 75.2838 12.697Z" fill="#F7A924"/>
<rect width="20" height="31" transform="translate(84)" fill="white"/>
<path d="M103.284 12.697L97.333 11.8321L94.6729 6.43917C94.6002 6.29151 94.4807 6.17198 94.333 6.09933C93.9627 5.91651 93.5127 6.06886 93.3276 6.43917L90.6674 11.8321L84.7166 12.697C84.5526 12.7204 84.4026 12.7978 84.2877 12.9149C84.1489 13.0577 84.0724 13.2496 84.075 13.4487C84.0777 13.6478 84.1592 13.8377 84.3018 13.9767L88.6073 18.1743L87.5901 24.1017C87.5662 24.2396 87.5815 24.3814 87.6341 24.511C87.6868 24.6407 87.7747 24.753 87.8879 24.8352C88.0011 24.9174 88.1351 24.9663 88.2747 24.9763C88.4143 24.9862 88.5538 24.9568 88.6776 24.8915L94.0002 22.0931L99.3229 24.8915C99.4682 24.9689 99.6369 24.9946 99.7987 24.9665C100.206 24.8962 100.481 24.5095 100.41 24.1017L99.3932 18.1743L103.699 13.9767C103.816 13.8618 103.893 13.7118 103.917 13.5478C103.98 13.1376 103.694 12.7579 103.284 12.697Z" fill="#F7A924"/>
<rect width="20" height="31" transform="translate(112)" fill="white"/>
<path d="M131.284 12.697L125.333 11.8321L122.673 6.43917C122.6 6.29151 122.481 6.17198 122.333 6.09933C121.963 5.91651 121.513 6.06886 121.328 6.43917L118.667 11.8321L112.717 12.697C112.553 12.7204 112.403 12.7978 112.288 12.9149C112.149 13.0577 112.072 13.2496 112.075 13.4487C112.078 13.6478 112.159 13.8377 112.302 13.9767L116.607 18.1743L115.59 24.1017C115.566 24.2396 115.581 24.3814 115.634 24.511C115.687 24.6407 115.775 24.753 115.888 24.8352C116.001 24.9174 116.135 24.9663 116.275 24.9763C116.414 24.9862 116.554 24.9568 116.678 24.8915L122 22.0931L127.323 24.8915C127.468 24.9689 127.637 24.9946 127.799 24.9665C128.206 24.8962 128.481 24.5095 128.41 24.1017L127.393 18.1743L131.699 13.9767C131.816 13.8618 131.893 13.7118 131.917 13.5478C131.98 13.1376 131.694 12.7579 131.284 12.697Z" fill="#F7A924"/>
</svg>
