<svg width="23" height="51" viewBox="0 0 23 51" fill="none" xmlns="http://www.w3.org/2000/svg">
<path fill-rule="evenodd" clip-rule="evenodd" d="M0.000587463 50.1738C6.65211 50.0668 12.9175 49.2841 17.5297 44.6765C19.872 42.3362 21.4012 39.3752 22.2011 35.6235C22.8638 32.5191 23 29.1576 23 25.0659C23 20.9742 22.8638 17.6117 22.2011 14.5063C21.4002 10.7535 19.871 7.79254 17.5286 5.45119C15.1863 3.10983 12.2222 1.58272 8.46639 0.782811C5.90785 0.237867 3.17423 0.049341 0.000583077 -0.000207798L0.000583602 6.0002C5.50046 6.08718 10.2375 6.64745 13.2874 9.69552C16.7205 13.1256 17.0002 18.6861 17.0002 25.0659C17.0002 31.4457 16.7205 37.0031 13.2884 40.4322C10.4324 43.2864 6.33029 44.0507 0.000586939 44.1716L0.000587463 50.1738Z" fill="#f3f3f3"/>
</svg>
