<svg fill="none" height="64" viewBox="0 0 64 64" width="64" xmlns="http://www.w3.org/2000/svg"><g fill="#4e6ef1"><path d="m19.1 14.1c-1.1-1.1-2.7-1.1-3.7 0l-14.2 14.7c-1.6 1.9-1.6 4.5 0 6.1l14.1 14.7c.5.5 1.3.8 1.9.8s1.3-.3 1.9-.8c1.1-1.1 1.1-2.7 0-3.7l-13.6-13.9 13.6-14.1c1.1-1.1 1.1-2.7 0-3.8z"/><path d="m62.6 28.8-14.2-14.7c-1.1-1.1-2.7-1.1-3.7 0s-1.1 2.7 0 3.7l13.6 14.2-13.6 14.1c-1.1 1.1-1.1 2.7 0 3.7.5.5 1.1.8 1.9.8s1.3-.3 1.9-.8l14.1-14.7c1.8-1.8 1.8-4.4 0-6.3z"/><path d="m38.3 14.4c-1.3-.5-2.9.3-3.5 1.6l-10.9 30.4c-.5 1.3.3 2.9 1.6 3.5.3 0 .5.3.8.3 1.1 0 2.1-.8 2.4-1.9l11.2-30.7c.5-1.3-.3-2.9-1.6-3.2z"/></g></svg>