<svg xmlns="http://www.w3.org/2000/svg" id="Layer_2" data-name="Layer 2" viewBox="0 0 122.5 47.55" width="120" height="50" class="s:w-28"><defs><style>.cls-2{stroke-width:0}</style></defs><g id="Layer_1-2" data-name="Layer 1"><path d="M23.39 29.68c-.7-.34-1.4-.69-2.09-1.03-.44-.23-.88-.46-1.33-.69-1-.55-2.02-1.08-3.06-1.56-.49-.38-1.11-.51-1.62-.86-.67-.4-1.43-.62-2.06-1.07-.12-.13-.25-.23-.35-.4-.32-.6-.69-1.18-1.03-1.76-.22-.5-.45-1.01-.67-1.51-.04-.16-.08-.33-.14-.49a10.03 10.03 0 0 1-.35-5.04c.17-.99.56-1.9.91-2.83.24-.44.47-.89.71-1.33.6-.91 1.23-1.81 1.92-2.65.43-.44.86-.89 1.28-1.33.56-.48 1.13-.96 1.69-1.44.55-.39 1.1-.79 1.65-1.18 1.12-.65 2.22-1.33 3.35-1.96.95-.53 1.88-1.08 2.78-1.69.15-.1.34-.19.3-.42-.04-.24-.26-.26-.42-.31-.5-.16-1-.16-1.5.02-.7.25-1.41.48-2.09.78-1.76.77-3.42 1.69-4.9 2.93-.66.45-1.26.96-1.81 1.54-.6.52-1.18 1.06-1.65 1.7-.61.64-1.16 1.32-1.62 2.06-.93 1.2-1.65 2.52-2.28 3.89-.77 1.66-1.39 3.38-1.69 5.19-.17.53-.24 1.08-.29 1.63l-.21 1.63c.02.53-.12 1.03-.3 1.53-.16.43-.29.86-.44 1.29-.1.08-.09.2-.12.3.05.14.09.28.14.42.49.58.69 1.3 1 1.97.31 1.5.69 2.97 1.39 4.34.59 1.15 1.53 1.83 2.79 2.08.75.15 1.51.19 2.28.22 2.32.12 4.61-.29 6.9-.51 1.73-.17 2.78-1.23 3.17-2.92.06-.25.01-.43-.23-.55" fill="currentColor"></path><path d="M47.03 9.83c.39-.12.78-.24 1.16-.36.44-.15.5-.3.21-.64-.25-.3-.51-.58-.77-.87a8.05 8.05 0 0 0-1.19-1.35c-.83-.95-1.9-1.58-2.95-2.25q-.22.17 0 0c-.66-.47-1.34-.9-2.09-1.21a9.192 9.192 0 0 0-3.37-1.12c-1.41-.31-2.85-.4-4.29-.4-.57-.13-1.15-.04-1.71-.15-.57-.12-.87.03-.95.62-.05.4-.28.44-.61.26-.4-.22-.82-.4-1.22-.61-.53-.2-1.05-.59-1.64-.34-2.38 1.03-4.48 2.53-6.68 3.88-.31.19-.17.49-.12.74.04.26.27.24.49.22.51-.06 1.01-.1 1.52-.16 1.46-.16 2.87-.39 3.77-1.77.41-.62.94-1.03 1.75-.77 1.13.25 2.24.55 3.13 1.35.52.62.95 1.28 1.14 2.14-.7-.2-1.36-.39-2.01-.57-.26-.09-.52-.16-.77-.26-.34-.13-.54-.03-.64.33-.13.47-.29.94-.42 1.41-.25.88-.67 1.65-1.36 2.28-1.07.98-2.12 2-3.18 3l-1.35 1.14c-1.39 1.18-2.7 2.48-4.35 3.33-1.04.54-2.15.92-3.23 1.37-1.06.44-1.37.94-1.24 2.05.13 1.15.57 2.22.8 3.39.14-.1.24-.16.33-.24.77-.62 1.54-1.22 2.43-1.66.37-.18.57-.14.62.31.04.42.11.84.2 1.25.33 1.5 1.08 2.74 2.37 3.61.87.58 1.65.42 2.26-.4.34-.45.74-.84 1.17-1.2.69-.37 1.42-.53 2.19-.3.35.1.71.22 1.06.33 1.28.7 2.63 1.22 4.11 1.34.1.02.19.05.29.07.95.16 1.92.2 2.86.42.04.17-.03.36.13.5.03.03.06.06.1.09.9-.15 1.64-.63 2.39-1.09 1.05-.59 2.06-1.25 3.05-1.94.57-.3 1.09-.66 1.61-1.03.6-.34 1.19-.69 1.74-1.1.89-.48 1.71-1.04 2.45-1.77.98-.97 1.34-2.11 1.14-3.41-.15-.96-.18-1.88.17-2.8.23-.61.44-1.23.68-1.83.41-1.04.09-2.13-.85-2.76-.15-.11-.28-.24-.44-.33-.15-.09-.29-.19-.28-.38.02-.23.2-.29.39-.34M75.24 19.15c-2.02 1.96-4.03 3.93-6.03 5.91-.29.29-.43.31-.73 0-2.02-2.01-4.06-4-6.1-5.99-.84-.81-2.16-.8-3 0-.87.82-.97 2.15-.13 2.97 2.44 2.41 4.91 4.8 7.36 7.19.02.3.06 4.17.06 4.17 0 .16-.05 2.71.02 2.97.08 1.27 1.08 2.09 2.42 1.99 1.16-.09 1.99-1.11 1.9-2.34.09-.84 0-6.04 0-6.27.04-.19-.04-.41.14-.58.48-.41.93-.84 1.34-1.31.58-.51 1.14-1.05 1.66-1.62q-.09-.07 0 0c1.43-1.39 2.88-2.77 4.29-4.19.64-.64.72-1.45.39-2.26-.59-1.44-2.44-1.77-3.59-.66M99.67 28.97l-.33-.58c.26-.28.5-.56.64-.91.17-.24.3-.51.39-.79l.12-.39c.05-.23.1-.46.15-.68.09-.39.17-.79.08-1.19.12-3.02-2.61-5.86-5.83-5.91-4.11-.06-8.22-.02-12.32-.01-1.02 0-1.9.75-2.08 1.69-.28 1.45.74 2.59 2.32 2.6 3.84 0 7.68.01 11.52 0 .93 0 1.59.33 1.97 1.16.44 1.49-.61 2-.65 2.04-.4.23-.82.32-1.29.32-1.24-.02-2.48 0-3.72 0-1.51 0-1.91.93-2.07 1.37-.12.19-.18.94-.09 1.1 0 1.04 1.05 1.73 1.91 1.79 1.34.1 2.68.03 4.03.04.32 0 .64.02.94.12.05.04.1.08.16.12.78.56 1.05 1.26.78 2.05-.26.78-.93 1.21-1.87 1.21H85.3c-.37 0-.48-.08-.48-.46.02-1.04-.08-5.42-.07-5.59l-.03-.29c-.08-.22-.47-.87-.64-.9-.99-.94-2.44-.76-3.27.41-.16.12-.44.93-.33 1.19v1.28c0 .2-.07 4.91-.02 6.62.03 1.15.94 1.99 2.09 2 4.12.01 8.25.05 12.37 0 3.68-.05 6.55-3.69 5.72-7.14-.02-.39-.81-2.08-.96-2.26M116.76 26.32c-2.79-.08-5.59-.02-8.38-.02-1.15 0-1.56-.66-1.7-1.07-.43-1.33.37-2.45 1.8-2.45h11.56c.42 0 .84-.03 1.23-.22.93-.46 1.4-1.43 1.16-2.44-.23-.98-1.1-1.64-2.18-1.64h-11.91c-3.59 0-6.36 2.9-6.12 6.42 0 3.1 2.65 5.64 5.75 5.64.74.1 8.01.04 8.28.04.97.02 1.59.5 1.84 1.44.16 2.15-1.74 2.1-1.74 2.1h-6.06c-1.93 0-3.87-.01-5.8-.01-1.36 0-2.3.88-2.29 2.15 0 1.25.93 2.12 2.28 2.12h11.91c3.44 0 6.07-2.14 6.07-6.26 0-3.6-2.29-5.69-5.7-5.8" fill="currentColor"></path><path d="m34.89 28.54.09.09c-.07 0-.1-.02-.09-.09M53.17 25.92c-.2-.5-.34-.53-.75-.17-3.33 2.87-6.66 5.74-10.01 8.6-.59.5-.97 1.11-1.28 1.8-.11.07-.15.18-.17.31-.08.04-.1.12-.11.2-.06.1-.13.2-.19.3-.01.03-.02.05-.02.08-.06.1-.12.21-.17.32-.03.07-.07.13-.1.2-.17.3-.36.6-.5.91-1.35 3.02-3.34 5.5-6.03 7.44-1.42 1.02-2.14.87-2.94-.68-.31-.6-.57-1.23-.84-1.85-.24-.55-.4-.62-.96-.44-.69.23-1.38.47-2.07.7-1.86.63-3.71 1.27-5.58 1.91.12.18.29.21.44.27 2.66 1.2 5.46 1.73 8.36 1.74 4.12.01 8.01-.96 11.65-2.91 1.85-.99 3.56-2.18 5.05-3.67.08-.07.15-.15.23-.22.03-.03.06-.05.09-.08.07-.07.14-.15.2-.22.06-.06.13-.12.19-.18.07-.07.13-.14.2-.21.12-.08.24-.17.29-.31.11-.1.22-.2.32-.31 2.22-2.55 3.81-5.45 4.8-8.68.5-1.61.54-3.23-.09-4.82" fill="currentColor"></path><path d="M56.31 12.17c-.3-.15-.43.16-.58.34-2.29 2.76-4.69 5.41-7.3 7.88-4.82 4.56-10.21 8.23-16.35 10.79-2.32.97-4.72 1.72-7.12 2.46.03.01.06.03.09.04-.03-.01-.06-.02-.09-.04-.62.15-3.2.71-3.77.81l-2.29.39c-.13 0-2.22.21-2.29.22-1.45.18-5.34.18-7.4-.43-1.6-.47-2.64-1.61-3.12-3.22-.29-.97-.37-1.97-.3-2.99.06-.85.28-1.7.06-2.56-.03-.1-.03-.24.1-.3-.05-.14-.09-.28-.14-.41C4.46 27 3.05 28.8 1.83 30.74c-.62.98-1.19 1.99-1.51 3.12-.52 1.83-.49 3.6.6 5.25.09.23 1.02 1.58 2.82 2.52.92.57 1.94.92 2.99 1.19 3.94 1.01 7.93.95 11.91.36 6.2-.92 11.97-3.09 17.32-6.35.25-.03 3.61-2.29 4-2.57 6.19-4.5 11.29-9.94 14.69-16.86a29.31 29.31 0 0 0 1.79-4.52c.08-.25.16-.56-.13-.71M32.38 35.54c.14 0 .27.01.39.11a.524.524 0 0 0-.39-.11" fill="currentColor"></path></g></svg>