<svg width="23" height="51" viewBox="0 0 23 51" fill="none" xmlns="http://www.w3.org/2000/svg">
<path fill-rule="evenodd" clip-rule="evenodd" d="M22.9994 0C16.3479 0.107018 10.0825 0.889716 5.47033 5.49729C3.12795 7.83762 1.5988 10.7986 0.798892 14.5503C0.136226 17.6547 0 21.0162 0 25.1079C0 29.1997 0.136226 32.5622 0.798892 35.6676C1.59983 39.4203 3.12898 42.3813 5.47136 44.7226C7.81374 47.064 10.7778 48.5911 14.5336 49.391C17.0921 49.936 19.8258 50.1245 22.9994 50.174V44.1736C17.4995 44.0866 12.7625 43.5264 9.71262 40.4783C6.27945 37.0482 5.99984 31.4877 5.99984 25.1079C5.99984 18.7281 6.27947 13.1707 9.71161 9.74166C12.5676 6.88747 16.6697 6.1231 22.9994 6.00226V0Z" fill="#f3f3f3"/>
</svg>
