<svg width="125" height="125" viewBox="0 0 125 125" fill="none" xmlns="http://www.w3.org/2000/svg">
<rect width="125" height="125" fill="#ECECEC"/>
<path d="M51.7995 69.7998C50.7061 69.7998 49.7995 68.8931 49.7995 67.7998V56.5999C49.7995 55.5065 50.7061 54.5999 51.7995 54.5999C52.8928 54.5999 53.7995 55.5065 53.7995 56.5999V67.7998C53.7995 68.8931 52.8928 69.7998 51.7995 69.7998Z" fill="#292D32"/>
<path d="M52.2 80.9998C48.2267 80.9998 45 77.7731 45 73.7998C45 69.8265 48.2267 66.5999 52.2 66.5999C56.1734 66.5999 59.4001 69.8265 59.4001 73.7998C59.4001 77.7731 56.1734 80.9998 52.2 80.9998ZM52.2 70.5999C50.44 70.5999 49 72.0398 49 73.7998C49 75.5598 50.44 76.9998 52.2 76.9998C53.96 76.9998 55.4001 75.5598 55.4001 73.7998C55.4001 72.0398 53.96 70.5999 52.2 70.5999Z" fill="#292D32"/>
<path d="M51.8 58.6C48.04 58.6 45 55.56 45 51.8C45 48.04 48.04 45 51.8 45C55.56 45 58.5999 48.04 58.5999 51.8C58.5999 55.56 55.56 58.6 51.8 58.6ZM51.8 49C50.2533 49 49 50.2533 49 51.8C49 53.3466 50.2533 54.6 51.8 54.6C53.3466 54.6 54.5999 53.3466 54.5999 51.8C54.5999 50.2533 53.3466 49 51.8 49Z" fill="#292D32"/>
<path d="M74.1997 58.6C70.4397 58.6 67.3997 55.56 67.3997 51.8C67.3997 48.04 70.4397 45 74.1997 45C77.9597 45 80.9997 48.04 80.9997 51.8C80.9997 55.56 77.9597 58.6 74.1997 58.6ZM74.1997 49C72.6531 49 71.3998 50.2533 71.3998 51.8C71.3998 53.3466 72.6531 54.6 74.1997 54.6C75.7464 54.6 76.9997 53.3466 76.9997 51.8C76.9997 50.2533 75.7464 49 74.1997 49Z" fill="#292D32"/>
<path d="M52.0136 69.8C51.8536 69.8 51.6669 69.7734 51.5069 69.7467C50.4402 69.48 49.8003 68.3867 50.067 67.32C51.027 63.56 54.4135 60.9733 58.2802 60.9733H58.3069L63.8002 61H63.8269C67.0535 61 69.9069 58.9734 70.9735 55.9334C71.3469 54.8934 72.4936 54.3334 73.5069 54.7067C74.5469 55.0801 75.107 56.2001 74.7336 57.2667C73.107 61.9334 68.7335 65.0534 63.7735 65.0267L58.2802 65C58.2802 65 58.2801 65 58.2535 65C56.2001 65 54.4136 66.3867 53.907 68.3601C53.7203 69.2134 52.8936 69.8 52.0136 69.8Z" fill="#292D32"/>
<path d="M71 91.6666H55C40.52 91.6666 34.3333 85.4799 34.3333 70.9999V54.9999C34.3333 40.5199 40.52 34.3333 55 34.3333H71C85.48 34.3333 91.6667 40.5199 91.6667 54.9999V70.9999C91.6667 85.4799 85.48 91.6666 71 91.6666ZM55 38.3333C42.7067 38.3333 38.3333 42.7066 38.3333 54.9999V70.9999C38.3333 83.2933 42.7067 87.6666 55 87.6666H71C83.2933 87.6666 87.6667 83.2933 87.6667 70.9999V54.9999C87.6667 42.7066 83.2933 38.3333 71 38.3333H55Z" fill="#292D32"/>
</svg>
