<svg width="125" height="125" viewBox="0 0 125 125" fill="none" xmlns="http://www.w3.org/2000/svg">
<rect width="125" height="125" fill="#ECECEC"/>
<path d="M49.3467 81.3999C48.2533 81.3999 47.3467 80.4932 47.3467 79.3999V73.8799C47.3467 72.7865 48.2533 71.8799 49.3467 71.8799C50.44 71.8799 51.3467 72.7865 51.3467 73.8799V79.3999C51.3467 80.5199 50.44 81.3999 49.3467 81.3999Z" fill="#292D32"/>
<path d="M63 81.3999C61.9067 81.3999 61 80.4933 61 79.3999V68.3333C61 67.2399 61.9067 66.3333 63 66.3333C64.0933 66.3333 65 67.2399 65 68.3333V79.3999C65 80.5199 64.0933 81.3999 63 81.3999Z" fill="#292D32"/>
<path d="M76.6533 81.3999C75.56 81.3999 74.6533 80.4932 74.6533 79.3999V62.8132C74.6533 61.7199 75.56 60.8132 76.6533 60.8132C77.7467 60.8132 78.6533 61.7199 78.6533 62.8132V79.3999C78.6533 80.5199 77.7733 81.3999 76.6533 81.3999Z" fill="#292D32"/>
<path d="M49.3467 66.1468C48.44 66.1468 47.64 65.5334 47.4 64.6268C47.1333 63.5601 47.7733 62.4668 48.8667 62.2001C58.68 59.7468 67.32 54.3868 73.9067 46.7334L75.1333 45.2934C75.8533 44.4668 77.1067 44.3601 77.96 45.0801C78.7867 45.8001 78.8933 47.0534 78.1733 47.9068L76.9467 49.3468C69.8267 57.6668 60.44 63.4534 49.8267 66.0934C49.6667 66.1468 49.5067 66.1468 49.3467 66.1468Z" fill="#292D32"/>
<path d="M76.6533 56.3868C75.56 56.3868 74.6533 55.4801 74.6533 54.3868V48.6001H68.84C67.7467 48.6001 66.84 47.6934 66.84 46.6001C66.84 45.5068 67.7467 44.6001 68.84 44.6001H76.6533C77.7467 44.6001 78.6533 45.5068 78.6533 46.6001V54.4134C78.6533 55.5068 77.7733 56.3868 76.6533 56.3868Z" fill="#292D32"/>
<path d="M71 91.6666H55C40.52 91.6666 34.3333 85.4799 34.3333 70.9999V54.9999C34.3333 40.5199 40.52 34.3333 55 34.3333H71C85.48 34.3333 91.6667 40.5199 91.6667 54.9999V70.9999C91.6667 85.4799 85.48 91.6666 71 91.6666ZM55 38.3333C42.7067 38.3333 38.3333 42.7066 38.3333 54.9999V70.9999C38.3333 83.2933 42.7067 87.6666 55 87.6666H71C83.2933 87.6666 87.6667 83.2933 87.6667 70.9999V54.9999C87.6667 42.7066 83.2933 38.3333 71 38.3333H55Z" fill="#292D32"/>
</svg>
