<svg width="125" height="125" viewBox="0 0 125 125" fill="none" xmlns="http://www.w3.org/2000/svg">
<rect width="125" height="125" fill="#ECECEC"/>
<path d="M47.786 74.1645C46.9525 74.1645 46.1786 73.718 45.7916 72.944C45.226 71.8426 45.6725 70.5031 46.8037 69.9375C49.3935 68.6575 51.5962 66.6928 53.1739 64.3114C53.7097 63.5077 53.7097 62.4956 53.1739 61.6919C51.5665 59.3105 49.3637 57.3459 46.8037 56.0659C45.6725 55.53 45.226 54.1905 45.7916 53.0593C46.3274 51.958 47.6669 51.5114 48.7683 52.077C52.0428 53.7142 54.8409 56.1849 56.8651 59.2212C58.3832 61.5133 58.3832 64.49 56.8651 66.7821C54.8409 69.8184 52.0428 72.2891 48.7683 73.9263C48.4707 74.0752 48.1135 74.1645 47.786 74.1645Z" fill="#292D32"/>
<path d="M77.8856 74.1629H65.9787C64.7582 74.1629 63.7461 73.1508 63.7461 71.9303C63.7461 70.7098 64.7582 69.6978 65.9787 69.6978H77.8856C79.1061 69.6978 80.1182 70.7098 80.1182 71.9303C80.1182 73.1508 79.1061 74.1629 77.8856 74.1629Z" fill="#292D32"/>
<path d="M71.9302 95H54.0698C37.906 95 31 88.094 31 71.9302V54.0698C31 37.906 37.906 31 54.0698 31H71.9302C88.094 31 95 37.906 95 54.0698V71.9302C95 88.094 88.094 95 71.9302 95ZM54.0698 35.4651C40.347 35.4651 35.4651 40.347 35.4651 54.0698V71.9302C35.4651 85.653 40.347 90.5349 54.0698 90.5349H71.9302C85.653 90.5349 90.5349 85.653 90.5349 71.9302V54.0698C90.5349 40.347 85.653 35.4651 71.9302 35.4651H54.0698Z" fill="#292D32"/>
</svg>
