<svg width="108" height="97" viewBox="0 0 108 97" fill="none" xmlns="http://www.w3.org/2000/svg">
<rect width="107.143" height="96.3752" fill="#ECECEC"/>
<path d="M44.8282 53.4797C43.891 53.4797 43.1139 52.7441 43.1139 51.8571V42.7701C43.1139 41.8831 43.891 41.1475 44.8282 41.1475C45.7653 41.1475 46.5425 41.8831 46.5425 42.7701V51.8571C46.5425 52.7441 45.7653 53.4797 44.8282 53.4797Z" fill="#292D32"/>
<path d="M45.1715 62.5668C41.7657 62.5668 39 59.9488 39 56.7251C39 53.5014 41.7657 50.8835 45.1715 50.8835C48.5772 50.8835 51.3429 53.5014 51.3429 56.7251C51.3429 59.9488 48.5772 62.5668 45.1715 62.5668ZM45.1715 54.1289C43.6629 54.1289 42.4286 55.2972 42.4286 56.7251C42.4286 58.1531 43.6629 59.3214 45.1715 59.3214C46.68 59.3214 47.9143 58.1531 47.9143 56.7251C47.9143 55.2972 46.68 54.1289 45.1715 54.1289Z" fill="#292D32"/>
<path d="M44.8285 44.3928C41.6057 44.3928 39 41.9263 39 38.8757C39 35.8251 41.6057 33.3586 44.8285 33.3586C48.0514 33.3586 50.6571 35.8251 50.6571 38.8757C50.6571 41.9263 48.0514 44.3928 44.8285 44.3928ZM44.8285 36.604C43.5028 36.604 42.4286 37.6208 42.4286 38.8757C42.4286 40.1306 43.5028 41.1475 44.8285 41.1475C46.1543 41.1475 47.2285 40.1306 47.2285 38.8757C47.2285 37.6208 46.1543 36.604 44.8285 36.604Z" fill="#292D32"/>
<path d="M64.0284 44.3928C60.8055 44.3928 58.1998 41.9263 58.1998 38.8757C58.1998 35.8251 60.8055 33.3586 64.0284 33.3586C67.2512 33.3586 69.8569 35.8251 69.8569 38.8757C69.8569 41.9263 67.2512 44.3928 64.0284 44.3928ZM64.0284 36.604C62.7027 36.604 61.6284 37.6208 61.6284 38.8757C61.6284 40.1306 62.7027 41.1475 64.0284 41.1475C65.3541 41.1475 66.4283 40.1306 66.4283 38.8757C66.4283 37.6208 65.3541 36.604 64.0284 36.604Z" fill="#292D32"/>
<path d="M45.0116 53.4799C44.8745 53.4799 44.7145 53.4583 44.5773 53.4367C43.663 53.2203 43.1145 52.3332 43.3431 51.4678C44.1659 48.4172 47.0687 46.3185 50.383 46.3185H50.4059L55.1144 46.3402H55.1373C57.903 46.3402 60.3487 44.6959 61.263 42.2294C61.583 41.3856 62.5659 40.9313 63.4345 41.2342C64.3259 41.5371 64.8059 42.4458 64.4859 43.3112C63.0916 47.0974 59.343 49.6288 55.0915 49.6072L50.383 49.5855C50.383 49.5855 50.383 49.5855 50.3601 49.5855C48.6001 49.5855 47.0688 50.7106 46.6345 52.3116C46.4745 53.004 45.7659 53.4799 45.0116 53.4799Z" fill="#292D32"/>
<path d="M61.2857 71.221H47.5715C35.16 71.221 29.8572 66.2015 29.8572 54.4534V41.472C29.8572 29.7238 35.16 24.7043 47.5715 24.7043H61.2857C73.6972 24.7043 79 29.7238 79 41.472V54.4534C79 66.2015 73.6972 71.221 61.2857 71.221ZM47.5715 27.9497C37.0343 27.9497 33.2857 31.4979 33.2857 41.472V54.4534C33.2857 64.4274 37.0343 67.9756 47.5715 67.9756H61.2857C71.8229 67.9756 75.5715 64.4274 75.5715 54.4534V41.472C75.5715 31.4979 71.8229 27.9497 61.2857 27.9497H47.5715Z" fill="#292D32"/>
</svg>
