<svg width="108" height="97" viewBox="0 0 108 97" fill="none" xmlns="http://www.w3.org/2000/svg">
<rect width="107.143" height="96.3752" fill="#ECECEC"/>
<path d="M35.7975 58C35.1284 58 34.5071 57.6201 34.1965 56.9617C33.7424 56.0247 34.1009 54.885 35.0089 54.4038C37.0879 53.3149 38.8563 51.6434 40.1228 49.6174C40.5529 48.9336 40.5529 48.0726 40.1228 47.3888C38.8324 45.3628 37.064 43.6914 35.0089 42.6024C34.1009 42.1465 33.7424 41.0069 34.1965 40.0446C34.6266 39.1075 35.7019 38.7277 36.5861 39.2088C39.2147 40.6017 41.461 42.7037 43.086 45.2868C44.3047 47.2369 44.3047 49.7694 43.086 51.7194C41.461 54.3026 39.2147 56.4045 36.5861 57.7974C36.3471 57.924 36.0604 58 35.7975 58Z" fill="#292D32"/>
<path d="M61.0909 58H50.9091C49.8655 58 49 57.0933 49 56C49 54.9067 49.8655 54 50.9091 54H61.0909C62.1345 54 63 54.9067 63 56C63 57.0933 62.1345 58 61.0909 58Z" fill="#292D32"/>
<path d="M55.8953 75H41.1047C27.7191 75 22 69.2809 22 55.8953V41.1047C22 27.7191 27.7191 22 41.1047 22H55.8953C69.2809 22 75 27.7191 75 41.1047V55.8953C75 69.2809 69.2809 75 55.8953 75ZM41.1047 25.6977C29.7405 25.6977 25.6977 29.7405 25.6977 41.1047V55.8953C25.6977 67.2595 29.7405 71.3023 41.1047 71.3023H55.8953C67.2595 71.3023 71.3023 67.2595 71.3023 55.8953V41.1047C71.3023 29.7405 67.2595 25.6977 55.8953 25.6977H41.1047Z" fill="#292D32"/>
</svg>
