<svg width="250" height="77" viewBox="0 0 250 77" fill="none" xmlns="http://www.w3.org/2000/svg">
<path d="M74.89 22.69C73.67 17 71.35 12.51 67.78 8.96L67.76 8.94C60.04 1.27 49.3 0.629997 38.05 0.629997C26.8 0.629997 16.01 1.27 8.29 8.99C4.74 12.54 2.42 17.03 1.21 22.71C0.21 27.42 0 32.51 0 38.72C0 44.93 0.21 50.02 1.21 54.73C2.42 60.42 4.74 64.91 8.29 68.46C11.84 72.01 16.33 74.32 22.03 75.54C26.74 76.54 31.84 76.75 38.05 76.75C44.26 76.75 49.36 76.55 54.07 75.54C59.76 74.33 64.26 72.01 67.81 68.46C71.36 64.91 73.68 60.42 74.89 54.73C75.9 50.02 76.1 44.93 76.1 38.72C76.1 32.51 75.89 27.41 74.88 22.69H74.89ZM38.05 9.72C49.47 9.72 56.57 10.63 61.36 15.4C66.11 20.13 67.01 27.24 67.01 38.72C67.01 48.39 66.59 56.82 61.38 62.02C56.18 67.22 47.74 67.64 38.05 67.64C28.36 67.64 19.92 67.22 14.72 62.02C9.52 56.82 9.09 48.39 9.09 38.72C9.09 29.05 9.51 20.62 14.72 15.42C19.51 10.63 26.62 9.72 38.05 9.72V9.72Z" fill="#ffffff"/>
<path d="M39.1095 55.78H52.9095C53.7895 55.78 54.4995 55.02 54.4995 54.08V48.43C54.4995 47.49 53.7895 46.73 52.9095 46.73H39.1095C38.2295 46.73 37.5195 47.49 37.5195 48.43V54.08C37.5195 55.02 38.2295 55.78 39.1095 55.78V55.78Z" fill="#ffffff"/>
<path d="M127.081 18.5V56.82H119.401V40.52H102.991V56.82H95.3105V18.5H102.991V34.25H119.401V18.5H127.081Z" fill="#ffffff"/>
<path d="M162.709 43.91H140.479C140.659 46.11 141.429 47.83 142.789 49.07C144.139 50.32 145.809 50.94 147.789 50.94C150.639 50.94 152.669 49.72 153.879 47.26H162.169C161.289 50.19 159.609 52.59 157.119 54.48C154.629 56.37 151.569 57.31 147.949 57.31C145.019 57.31 142.399 56.66 140.069 55.36C137.749 54.06 135.929 52.22 134.639 49.84C133.339 47.46 132.689 44.72 132.689 41.61C132.689 38.5 133.329 35.7 134.609 33.32C135.889 30.94 137.679 29.11 139.989 27.83C142.299 26.55 144.949 25.91 147.949 25.91C150.949 25.91 153.429 26.53 155.719 27.78C158.009 29.03 159.779 30.79 161.039 33.08C162.299 35.37 162.929 37.99 162.929 40.96C162.929 42.06 162.859 43.05 162.709 43.92V43.91ZM154.969 38.75C154.929 36.77 154.219 35.19 152.829 34C151.439 32.81 149.739 32.22 147.729 32.22C145.829 32.22 144.219 32.8 142.929 33.95C141.629 35.1 140.829 36.7 140.539 38.75H154.979H154.969Z" fill="#ffffff"/>
<path d="M173.471 55.96C171.491 55.06 169.931 53.85 168.781 52.31C167.631 50.77 167.001 49.07 166.891 47.2H174.631C174.781 48.37 175.351 49.34 176.361 50.11C177.371 50.88 178.621 51.26 180.121 51.26C181.621 51.26 182.731 50.97 183.551 50.38C184.371 49.79 184.791 49.04 184.791 48.13C184.791 47.14 184.291 46.4 183.281 45.91C182.271 45.42 180.671 44.88 178.481 44.29C176.211 43.74 174.351 43.17 172.911 42.59C171.461 42 170.221 41.11 169.181 39.9C168.141 38.69 167.621 37.06 167.621 35.02C167.621 33.34 168.101 31.8 169.071 30.41C170.041 29.02 171.431 27.92 173.241 27.12C175.051 26.32 177.181 25.91 179.631 25.91C183.251 25.91 186.141 26.82 188.301 28.63C190.461 30.44 191.651 32.88 191.871 35.96H184.521C184.411 34.75 183.911 33.79 183.011 33.08C182.111 32.37 180.911 32.01 179.411 32.01C178.021 32.01 176.951 32.27 176.201 32.78C175.451 33.29 175.071 34.01 175.071 34.92C175.071 35.94 175.581 36.72 176.611 37.25C177.631 37.78 179.231 38.32 181.391 38.87C183.591 39.42 185.401 39.99 186.821 40.57C188.251 41.16 189.481 42.06 190.521 43.29C191.561 44.52 192.101 46.14 192.141 48.15C192.141 49.91 191.651 51.48 190.681 52.87C189.711 54.26 188.321 55.35 186.511 56.14C184.701 56.93 182.591 57.32 180.171 57.32C177.751 57.32 175.451 56.87 173.471 55.98V55.96Z" fill="#ffffff"/>
<path d="M207.389 32.71V47.42C207.389 48.44 207.639 49.19 208.129 49.64C208.619 50.1 209.459 50.33 210.629 50.33H214.199V56.81H209.369C202.889 56.81 199.649 53.66 199.649 47.37V32.71H196.029V26.4H199.649V18.88H207.389V26.4H214.199V32.71H207.389Z" fill="#ffffff"/>
<path d="M219.61 33.32C220.83 30.94 222.5 29.11 224.6 27.83C226.7 26.55 229.05 25.91 231.65 25.91C233.92 25.91 235.91 26.37 237.61 27.28C239.31 28.19 240.68 29.35 241.7 30.74V26.4H249.44V56.81H241.7V52.36C240.71 53.79 239.35 54.97 237.61 55.9C235.87 56.83 233.87 57.3 231.6 57.3C229.04 57.3 226.7 56.64 224.6 55.32C222.49 54 220.83 52.15 219.61 49.75C218.38 47.35 217.77 44.6 217.77 41.49C217.77 38.38 218.38 35.69 219.61 33.31V33.32ZM240.61 36.81C239.88 35.47 238.89 34.45 237.65 33.74C236.4 33.03 235.07 32.67 233.64 32.67C232.21 32.67 230.9 33.02 229.69 33.71C228.48 34.41 227.5 35.42 226.75 36.76C226 38.1 225.63 39.68 225.63 41.51C225.63 43.34 226 44.94 226.75 46.31C227.5 47.68 228.49 48.74 229.71 49.47C230.94 50.2 232.24 50.57 233.64 50.57C235.04 50.57 236.4 50.21 237.65 49.5C238.89 48.79 239.88 47.76 240.61 46.43C241.34 45.09 241.71 43.49 241.71 41.63C241.71 39.77 241.34 38.16 240.61 36.83V36.81Z" fill="#ffffff"/>
</svg>
