<svg width="63" height="63" viewBox="0 0 63 63" fill="none" xmlns="http://www.w3.org/2000/svg">
<path d="M60.1596 12.1812C59.7922 10.943 59.0954 9.68958 58.069 8.4059C55.8119 5.61514 53.3388 3.59306 50.6574 2.80165C37.8983 -0.931989 25.1391 -0.931989 12.3762 2.79029C12.2512 2.82437 12.13 2.86603 12.0051 2.90389C8.31252 4.18378 4.00266 8.52708 2.83998 12.1926C-0.93209 25.0142 -0.947239 37.8358 2.79832 50.6574C3.04071 51.4791 3.43458 52.3387 3.97615 53.2096C5.96444 56.3336 9.2366 59.2645 12.308 60.1922C25.1126 63.9372 37.9172 63.9372 50.7218 60.1846C54.6037 58.9578 58.959 54.5993 60.1861 50.7256C62.0608 44.3185 63 37.9115 63 31.5045C63 25.0975 62.0494 18.6223 60.1596 12.1812ZM53.7554 45.269C53.1987 49.2185 49.2675 53.1452 45.3137 53.7057C36.1145 54.8947 26.9116 54.8947 17.7086 53.7057C13.7548 53.149 9.82362 49.2185 9.2669 45.269C8.0815 36.0901 8.0815 26.9075 9.2669 17.7286C9.82741 13.7792 13.7548 9.84862 17.7086 9.29198C26.9116 8.10297 36.1107 8.10297 45.3137 9.29577C49.2675 9.85241 53.1987 13.783 53.7554 17.7324C54.9408 26.9113 54.9408 36.0901 53.7554 45.269Z" fill="white"/>
<path d="M47.2456 41.6994C47.1335 43.0664 47.0028 44.4334 46.8497 45.8004C46.7601 46.5895 46.0356 47.3082 45.2439 47.3971C40.3967 47.9268 36.8192 48.2047 31.972 48.2343C31.1804 48.2417 30.5306 47.5601 30.5268 46.7191C30.5231 45.2744 30.5194 43.8259 30.5156 42.3811C30.5119 41.5439 31.1804 40.8659 32.0094 40.8622C37.0508 40.8437 40.8187 40.677 45.8564 40.3621C46.6854 40.3139 47.309 40.9104 47.2456 41.6994Z" fill="#1ED07C"/>
</svg>
